<svg xmlns="http://www.w3.org/2000/svg" width="135" height="37"><rect width="100%" height="100%" fill="none"/><g class="currentLayer"><title>Layer 1</title><path fill="#FFF" d="M134.8 37.002h-15l.1-.7v-.1c0-.9-.7-1.6-1.6-1.6s-1.6.7-1.6 1.6v.1l.1.7H17.9l.1-.7v-.1c0-.9-.7-1.6-1.6-1.6-.9 0-1.6.7-1.6 1.6v.1l.1.7H0v-5.7l.4-.8.3-.1c5.3-1.5 9.1-6.3 9.1-11.9 0-5.6-3.8-10.4-9.2-11.8l-.2-.1-.4-.8v-5.7h14.9l-.1.6v.1c0 .9.7 1.6 1.6 1.6.9 0 1.6-.7 1.6-1.6v-.1l-.1-.7h98.9V.802c0 .9.7 1.6 1.6 1.6s1.6-.7 1.6-1.6v-.1l-.2-.7h15v5.7l-.4.8-.3.1c-5.4 1.4-9.1 6.3-9.1 11.8s3.8 10.4 9.1 11.8l.3.1.4.8v5.9zm-13.7-1.2h12.5v-4.3c-5.8-1.6-9.8-6.9-9.8-12.9s4-11.3 9.8-12.9V1.302h-12.5c-.2 1.3-1.4 2.4-2.8 2.4s-2.6-1-2.8-2.4H19.2c-.2 1.3-1.4 2.4-2.8 2.4s-2.6-1-2.8-2.4H1.2v4.3c5.8 1.6 9.8 6.9 9.8 12.9s-4 11.3-9.8 12.9v4.3h12.5c.2-1.3 1.4-2.4 2.8-2.4s2.6 1 2.8 2.4h96.4c.2-1.3 1.4-2.4 2.8-2.4s2.4 1.1 2.6 2.5z"/><g><path fill="#FFF" d="M16.3 8.002c-.3 0-.6-.3-.6-.6v-1.8c0-.3.3-.6.6-.6s.6.3.6.6v1.8c0 .3-.2.6-.6.6zM16.3 27.002c-.3 0-.6-.3-.6-.6v-3.2c0-.3.3-.6.6-.6s.6.3.6.6v3.2c0 .4-.2.6-.6.6zm0-6.3c-.3 0-.6-.3-.6-.6v-3.2c0-.3.3-.6.6-.6s.6.3.6.6v3.2c0 .3-.2.6-.6.6zm0-6.4c-.3 0-.6-.3-.6-.6v-3.2c0-.3.3-.6.6-.6s.6.3.6.6v3.2c0 .4-.2.6-.6.6zM16.3 32.002c-.3 0-.6-.3-.6-.6v-1.8c0-.3.3-.6.6-.6s.6.3.6.6v1.8c0 .4-.2.6-.6.6z"/></g><g><path fill="#FFF" d="M118.1 8.002c-.3 0-.6-.3-.6-.6v-1.8c0-.3.3-.6.6-.6s.6.3.6.6v1.8c0 .3-.3.6-.6.6zM118.1 27.002c-.3 0-.6-.3-.6-.6v-3.2c0-.3.3-.6.6-.6s.6.3.6.6v3.2c0 .4-.3.6-.6.6zm0-6.3c-.3 0-.6-.3-.6-.6v-3.2c0-.3.3-.6.6-.6s.6.3.6.6v3.2c0 .3-.3.6-.6.6zm0-6.4c-.3 0-.6-.3-.6-.6v-3.2c0-.3.3-.6.6-.6s.6.3.6.6v3.2c0 .4-.3.6-.6.6zM118.1 32.002c-.3 0-.6-.3-.6-.6v-1.8c0-.3.3-.6.6-.6s.6.3.6.6v1.8c0 .4-.3.6-.6.6z"/></g><g fill="#FFF"><path d="M49.3 12.002h-.4v3.6h-1.6v-8.4h1.6v3.7l.4-.2 2.3-3.6h1.9l-2.4 3.5-.8.5.7.5 2.8 3.9h-2l-2.5-3.5zM57.1 10.902l.2 1.1h.1l.2-1.1 1.2-3.7h1.7l-2.2 5.8c-.2.5-.3.9-.5 1.2-.2.3-.3.6-.5.8-.2.2-.4.4-.6.5s-.5.2-.8.2c-.3 0-.5 0-.6-.1-.2 0-.3-.1-.5-.2l.4-1.3c.1.1.3.1.4.1h.4c.4 0 .6-.3.8-.9l-3.1-6.1h1.9l1.5 3.7zM65.6 8.602h-2.9v6.9h-1.6v-8.3h6.2v8.4h-1.6v-7zM73.6 10.902l.1-1.1h-.1l-.6 1.1-3.1 4.6h-1.2v-8.3h1.6v4.6l-.1 1.1h.1l.6-1.2 3.1-4.5h1.2v8.4h-1.6v-4.7zM82.7 8.602h-2.4v6.9h-1.6v-6.9h-2.5v-1.4h6.6v1.4zM83.5 7.202h1.6v3h1.1c.4 0 .8 0 1.1.1.4.1.7.2 1 .4.3.2.5.5.7.8.2.3.3.8.3 1.3 0 1-.3 1.7-.9 2.2-.6.5-1.5.7-2.6.7h-1.1c-.2 0-.4 0-.7-.1s-.4-.1-.6-.1v-8.3zm2.5 7c.2 0 .4 0 .6-.1.2 0 .4-.1.5-.2.2-.1.3-.2.4-.4.1-.2.1-.4.1-.6 0-.3 0-.5-.1-.7-.1-.2-.2-.3-.4-.4-.1-.1-.3-.2-.5-.2h-1-.4v2.5c.1 0 .2 0 .4.1h.4zM47.2 19.602h5.2v1.5h-3.5v1.8c.1 0 .3 0 .5-.1h.6c.4 0 .9 0 1.2.1.4.1.7.2 1 .4.3.2.5.5.6.8s.2.7.2 1.2-.1.9-.2 1.2c-.2.4-.4.6-.7.9-.3.2-.6.4-1.1.5s-.8.2-1.3.2h-1.1c-.2 0-.5 0-.7-.1-.2 0-.4-.1-.6-.1v-8.3zm2.6 7.1c.2 0 .4 0 .6-.1.2-.1.3-.1.5-.2.1-.1.2-.2.3-.4.1-.2.1-.4.1-.6 0-.3 0-.5-.1-.7-.1-.2-.2-.3-.4-.4-.2-.1-.3-.2-.5-.2h-1c-.1 0-.3 0-.3.1v2.5h.8zM59 23.302l.1-1.1H59l-.6 1.1-3.1 4.6h-1.2v-8.4h1.6v4.6l-.1 1.1h.1l.6-1.2 3.1-4.5h1.2v8.4H59v-4.6zM66.5 21.002h-1.8c0 .8-.1 1.5-.1 2.1s-.1 1.2-.2 1.7-.2.9-.3 1.3c-.1.4-.3.7-.4 1-.1.2-.2.3-.4.5-.1.1-.3.2-.4.3-.2.1-.3.1-.5.1h-.9c-.1 0-.2-.1-.4-.1l.2-1.4h.2c.1 0 .3 0 .4-.1l.3-.3c.1-.2.2-.4.3-.8.1-.3.2-.8.2-1.3.1-.5.1-1.2.2-1.9s.1-1.6.1-2.6h5v8.4h-1.6v-6.9zM69.5 19.602h5v1.5h-3.3v2h3v1.5h-3v2.1h3.4v1.5h-5v-8.6zM81.8 21.002h-2.4v6.9h-1.6v-6.9h-2.5v-1.5h6.5v1.5z"/></g></g></svg>