<svg version="1.1" xmlns="http://www.w3.org/2000/svg" xmlns:xlink="http://www.w3.org/1999/xlink" enable-background="new 0 0 135 37" xml:space="preserve" width="135" height="37"><rect id="backgroundrect" width="100%" height="100%" x="0" y="0" fill="none" stroke="none" style="" class=""/>




<g class="currentLayer" style=""><title>Layer 1</title><g id="svg_1" class="">
	<path fill="#FFFFFF" d="M134.80078125,37.001564025878906 H119.80078125 l0.10000000149011612,-0.699999988079071 c0,0 0,-0.10000000149011612 0,-0.10000000149011612 c0,-0.8999999761581421 -0.699999988079071,-1.600000023841858 -1.600000023841858,-1.600000023841858 s-1.600000023841858,0.699999988079071 -1.600000023841858,1.600000023841858 c0,0 0,0.10000000149011612 0,0.10000000149011612 l0.10000000149011612,0.699999988079071 H17.900781631469727 l0.10000000149011612,-0.699999988079071 c0,0 0,-0.10000000149011612 0,-0.10000000149011612 c0,-0.8999999761581421 -0.699999988079071,-1.600000023841858 -1.600000023841858,-1.600000023841858 c-0.8999999761581421,0 -1.600000023841858,0.699999988079071 -1.600000023841858,1.600000023841858 c0,0 0,0.10000000149011612 0,0.10000000149011612 l0.10000000149011612,0.699999988079071 H0.0007812529802322388 v-5.699999809265137 l0.4000000059604645,-0.800000011920929 l0.30000001192092896,-0.10000000149011612 C6.000781059265137,28.901561737060547 9.80078125,24.1015625 9.80078125,18.501562118530273 C9.80078125,12.901562690734863 6.000781059265137,8.1015625 0.600781261920929,6.701562404632568 L0.4007812738418579,6.6015625 L0.0007812529802322388,5.801562309265137 v-5.699999809265137 h14.899999618530273 L14.80078125,0.7015625238418579 c0,0 0,0.10000000149011612 0,0.10000000149011612 c0,0.8999999761581421 0.699999988079071,1.600000023841858 1.600000023841858,1.600000023841858 c0.8999999761581421,0 1.600000023841858,-0.699999988079071 1.600000023841858,-1.600000023841858 c0,0 0,-0.10000000149011612 0,-0.10000000149011612 l-0.10000000149011612,-0.699999988079071 H116.80078125 L116.80078125,0.7015625238418579 c0,0 0,0.10000000149011612 0,0.10000000149011612 c0,0.8999999761581421 0.699999988079071,1.600000023841858 1.600000023841858,1.600000023841858 s1.600000023841858,-0.699999988079071 1.600000023841858,-1.600000023841858 c0,0 0,-0.10000000149011612 0,-0.10000000149011612 L119.80078125,0.0015624985098838806 H134.80078125 v5.699999809265137 l-0.4000000059604645,0.800000011920929 l-0.30000001192092896,0.10000000149011612 c-5.400000095367432,1.399999976158142 -9.100000381469727,6.300000190734863 -9.100000381469727,11.800000190734863 s3.799999952316284,10.399999618530273 9.100000381469727,11.800000190734863 l0.30000001192092896,0.10000000149011612 l0.4000000059604645,0.800000011920929 V37.001564025878906 zM121.10078430175781,35.80156326293945 h12.5 v-4.199999809265137 l0,-0.10000000149011612 c-5.800000190734863,-1.600000023841858 -9.800000190734863,-6.900000095367432 -9.800000190734863,-12.899999618530273 c0,-6 4,-11.300000190734863 9.800000190734863,-12.899999618530273 l0,-0.10000000149011612 V1.3015625476837158 h-12.5 c-0.20000000298023224,1.2999999523162842 -1.399999976158142,2.4000000953674316 -2.799999952316284,2.4000000953674316 s-2.5999999046325684,-1 -2.799999952316284,-2.4000000953674316 H19.200780868530273 c-0.20000000298023224,1.2999999523162842 -1.399999976158142,2.4000000953674316 -2.799999952316284,2.4000000953674316 c-1.399999976158142,0 -2.5999999046325684,-1 -2.799999952316284,-2.4000000953674316 H1.200781226158142 v4.199999809265137 l0,0.10000000149011612 c5.800000190734863,1.600000023841858 9.800000190734863,6.900000095367432 9.800000190734863,12.899999618530273 c0,6 -4,11.300000190734863 -9.800000190734863,12.899999618530273 l0,0.10000000149011612 v4.199999809265137 h12.5 c0.20000000298023224,-1.2999999523162842 1.399999976158142,-2.4000000953674316 2.799999952316284,-2.4000000953674316 s2.5999999046325684,1 2.799999952316284,2.4000000953674316 h96.4000015258789 c0.20000000298023224,-1.2999999523162842 1.399999976158142,-2.4000000953674316 2.799999952316284,-2.4000000953674316 S120.9007797241211,34.40156173706055 121.10078430175781,35.80156326293945 z" id="svg_2"/>
</g><g id="svg_3" class="">
	<g id="svg_4">
		<path fill="#FFFFFF" d="M16.30078125,8.001562595367432 c-0.30000001192092896,0 -0.6000000238418579,-0.30000001192092896 -0.6000000238418579,-0.6000000238418579 V5.6015625 c0,-0.30000001192092896 0.30000001192092896,-0.6000000238418579 0.6000000238418579,-0.6000000238418579 c0.30000001192092896,0 0.6000000238418579,0.30000001192092896 0.6000000238418579,0.6000000238418579 v1.7999999523162842 C16.900781631469727,7.701562404632568 16.700780868530273,8.001562595367432 16.30078125,8.001562595367432 z" id="svg_5"/>
	</g>
	<g id="svg_6">
		<path fill="#FFFFFF" d="M16.30078125,27.001562118530273 c-0.30000001192092896,0 -0.6000000238418579,-0.30000001192092896 -0.6000000238418579,-0.6000000238418579 v-3.200000047683716 c0,-0.30000001192092896 0.30000001192092896,-0.6000000238418579 0.6000000238418579,-0.6000000238418579 c0.30000001192092896,0 0.6000000238418579,0.30000001192092896 0.6000000238418579,0.6000000238418579 v3.200000047683716 C16.900781631469727,26.801563262939453 16.700780868530273,27.001562118530273 16.30078125,27.001562118530273 zM16.30078125,20.701562881469727 c-0.30000001192092896,0 -0.6000000238418579,-0.30000001192092896 -0.6000000238418579,-0.6000000238418579 v-3.200000047683716 c0,-0.30000001192092896 0.30000001192092896,-0.6000000238418579 0.6000000238418579,-0.6000000238418579 c0.30000001192092896,0 0.6000000238418579,0.30000001192092896 0.6000000238418579,0.6000000238418579 V20.1015625 C16.900781631469727,20.401561737060547 16.700780868530273,20.701562881469727 16.30078125,20.701562881469727 zM16.30078125,14.301562309265137 c-0.30000001192092896,0 -0.6000000238418579,-0.30000001192092896 -0.6000000238418579,-0.6000000238418579 v-3.200000047683716 c0,-0.30000001192092896 0.30000001192092896,-0.6000000238418579 0.6000000238418579,-0.6000000238418579 c0.30000001192092896,0 0.6000000238418579,0.30000001192092896 0.6000000238418579,0.6000000238418579 v3.200000047683716 C16.900781631469727,14.1015625 16.700780868530273,14.301562309265137 16.30078125,14.301562309265137 z" id="svg_7"/>
	</g>
	<g id="svg_8">
		<path fill="#FFFFFF" d="M16.30078125,32.00156211853027 c-0.30000001192092896,0 -0.6000000238418579,-0.30000001192092896 -0.6000000238418579,-0.6000000238418579 v-1.7999999523162842 c0,-0.30000001192092896 0.30000001192092896,-0.6000000238418579 0.6000000238418579,-0.6000000238418579 c0.30000001192092896,0 0.6000000238418579,0.30000001192092896 0.6000000238418579,0.6000000238418579 v1.7999999523162842 C16.900781631469727,31.801563262939453 16.700780868530273,32.00156211853027 16.30078125,32.00156211853027 z" id="svg_9"/>
	</g>
</g><g id="svg_10" class="">
	<g id="svg_11">
		<path fill="#FFFFFF" d="M118.10078430175781,8.001562595367432 c-0.30000001192092896,0 -0.6000000238418579,-0.30000001192092896 -0.6000000238418579,-0.6000000238418579 V5.6015625 c0,-0.30000001192092896 0.30000001192092896,-0.6000000238418579 0.6000000238418579,-0.6000000238418579 s0.6000000238418579,0.30000001192092896 0.6000000238418579,0.6000000238418579 v1.7999999523162842 C118.7007827758789,7.701562404632568 118.4007797241211,8.001562595367432 118.10078430175781,8.001562595367432 z" id="svg_12"/>
	</g>
	<g id="svg_13">
		<path fill="#FFFFFF" d="M118.10078430175781,27.001562118530273 c-0.30000001192092896,0 -0.6000000238418579,-0.30000001192092896 -0.6000000238418579,-0.6000000238418579 v-3.200000047683716 c0,-0.30000001192092896 0.30000001192092896,-0.6000000238418579 0.6000000238418579,-0.6000000238418579 s0.6000000238418579,0.30000001192092896 0.6000000238418579,0.6000000238418579 v3.200000047683716 C118.7007827758789,26.801563262939453 118.4007797241211,27.001562118530273 118.10078430175781,27.001562118530273 zM118.10078430175781,20.701562881469727 c-0.30000001192092896,0 -0.6000000238418579,-0.30000001192092896 -0.6000000238418579,-0.6000000238418579 v-3.200000047683716 c0,-0.30000001192092896 0.30000001192092896,-0.6000000238418579 0.6000000238418579,-0.6000000238418579 s0.6000000238418579,0.30000001192092896 0.6000000238418579,0.6000000238418579 V20.1015625 C118.7007827758789,20.401561737060547 118.4007797241211,20.701562881469727 118.10078430175781,20.701562881469727 zM118.10078430175781,14.301562309265137 c-0.30000001192092896,0 -0.6000000238418579,-0.30000001192092896 -0.6000000238418579,-0.6000000238418579 v-3.200000047683716 c0,-0.30000001192092896 0.30000001192092896,-0.6000000238418579 0.6000000238418579,-0.6000000238418579 s0.6000000238418579,0.30000001192092896 0.6000000238418579,0.6000000238418579 v3.200000047683716 C118.7007827758789,14.1015625 118.4007797241211,14.301562309265137 118.10078430175781,14.301562309265137 z" id="svg_14"/>
	</g>
	<g id="svg_15">
		<path fill="#FFFFFF" d="M118.10078430175781,32.00156211853027 c-0.30000001192092896,0 -0.6000000238418579,-0.30000001192092896 -0.6000000238418579,-0.6000000238418579 v-1.7999999523162842 c0,-0.30000001192092896 0.30000001192092896,-0.6000000238418579 0.6000000238418579,-0.6000000238418579 s0.6000000238418579,0.30000001192092896 0.6000000238418579,0.6000000238418579 v1.7999999523162842 C118.7007827758789,31.801563262939453 118.4007797241211,32.00156211853027 118.10078430175781,32.00156211853027 z" id="svg_16"/>
	</g>
</g><g id="svg_17" class="">
	<path fill="#FFFFFF" d="M49.30078125,12.001562118530273 h-0.4000000059604645 v3.5999999046325684 h-1.600000023841858 V7.201562404632568 h1.600000023841858 v3.700000047683716 l0.4000000059604645,-0.20000000298023224 l2.299999952316284,-3.5999999046325684 h1.899999976158142 l-2.4000000953674316,3.5 L50.30078125,11.1015625 l0.699999988079071,0.5 l2.799999952316284,3.9000000953674316 h-2 L49.30078125,12.001562118530273 z" id="svg_18"/>
	<path fill="#FFFFFF" d="M57.10078048706055,10.901562690734863 l0.20000000298023224,1.100000023841858 h0.10000000149011612 l0.20000000298023224,-1.100000023841858 L58.80078125,7.201562404632568 h1.7000000476837158 l-2.200000047683716,5.800000190734863 c-0.20000000298023224,0.5 -0.30000001192092896,0.8999999761581421 -0.5,1.2000000476837158 c-0.20000000298023224,0.30000001192092896 -0.30000001192092896,0.6000000238418579 -0.5,0.800000011920929 c-0.20000000298023224,0.20000000298023224 -0.4000000059604645,0.4000000059604645 -0.6000000238418579,0.5 s-0.5,0.20000000298023224 -0.800000011920929,0.20000000298023224 c-0.30000001192092896,0 -0.5,0 -0.6000000238418579,-0.10000000149011612 c-0.20000000298023224,0 -0.30000001192092896,-0.10000000149011612 -0.5,-0.20000000298023224 l0.4000000059604645,-1.2999999523162842 c0.10000000149011612,0.10000000149011612 0.30000001192092896,0.10000000149011612 0.4000000059604645,0.10000000149011612 c0.10000000149011612,0 0.20000000298023224,0 0.4000000059604645,0 c0.4000000059604645,0 0.6000000238418579,-0.30000001192092896 0.800000011920929,-0.8999999761581421 l-3.0999999046325684,-6.099999904632568 h1.899999976158142 L57.10078048706055,10.901562690734863 z" id="svg_19"/>
	<path fill="#FFFFFF" d="M65.60078430175781,8.6015625 h-2.9000000953674316 v6.900000095367432 h-1.600000023841858 V7.201562404632568 h6.199999809265137 v8.399999618530273 h-1.600000023841858 V8.6015625 z" id="svg_20"/>
	<path fill="#FFFFFF" d="M73.60078430175781,10.901562690734863 l0.10000000149011612,-1.100000023841858 h-0.10000000149011612 l-0.6000000238418579,1.100000023841858 l-3.0999999046325684,4.599999904632568 h-1.2000000476837158 V7.201562404632568 h1.600000023841858 v4.599999904632568 l-0.10000000149011612,1.100000023841858 h0.10000000149011612 l0.6000000238418579,-1.2000000476837158 l3.0999999046325684,-4.5 h1.2000000476837158 v8.399999618530273 h-1.600000023841858 V10.901562690734863 z" id="svg_21"/>
	<path fill="#FFFFFF" d="M82.7007827758789,8.6015625 h-2.4000000953674316 v6.900000095367432 h-1.600000023841858 V8.6015625 h-2.5 V7.201562404632568 h6.599999904632568 V8.6015625 z" id="svg_22"/>
	<path fill="#FFFFFF" d="M83.50077819824219,7.201562404632568 h1.600000023841858 v3 c0,0 0.10000000149011612,0 0.20000000298023224,0 c0.10000000149011612,0 0.20000000298023224,0 0.30000001192092896,0 c0.10000000149011612,0 0.20000000298023224,0 0.30000001192092896,0 c0.10000000149011612,0 0.20000000298023224,0 0.30000001192092896,0 c0.4000000059604645,0 0.800000011920929,0 1.100000023841858,0.10000000149011612 c0.4000000059604645,0.10000000149011612 0.699999988079071,0.20000000298023224 1,0.4000000059604645 c0.30000001192092896,0.20000000298023224 0.5,0.5 0.699999988079071,0.800000011920929 c0.20000000298023224,0.30000001192092896 0.30000001192092896,0.800000011920929 0.30000001192092896,1.2999999523162842 c0,1 -0.30000001192092896,1.7000000476837158 -0.8999999761581421,2.200000047683716 c-0.6000000238418579,0.5 -1.5,0.699999988079071 -2.5999999046325684,0.699999988079071 c-0.10000000149011612,0 -0.30000001192092896,0 -0.5,0 c-0.20000000298023224,0 -0.4000000059604645,0 -0.6000000238418579,0 s-0.4000000059604645,0 -0.699999988079071,-0.10000000149011612 s-0.4000000059604645,-0.10000000149011612 -0.6000000238418579,-0.10000000149011612 V7.201562404632568 zM86.00077819824219,14.201562881469727 c0.20000000298023224,0 0.4000000059604645,0 0.6000000238418579,-0.10000000149011612 c0.20000000298023224,0 0.4000000059604645,-0.10000000149011612 0.5,-0.20000000298023224 c0.20000000298023224,-0.10000000149011612 0.30000001192092896,-0.20000000298023224 0.4000000059604645,-0.4000000059604645 c0.10000000149011612,-0.20000000298023224 0.10000000149011612,-0.4000000059604645 0.10000000149011612,-0.6000000238418579 c0,-0.30000001192092896 0,-0.5 -0.10000000149011612,-0.699999988079071 c-0.10000000149011612,-0.20000000298023224 -0.20000000298023224,-0.30000001192092896 -0.4000000059604645,-0.4000000059604645 c-0.10000000149011612,-0.10000000149011612 -0.30000001192092896,-0.20000000298023224 -0.5,-0.20000000298023224 c-0.20000000298023224,0 -0.4000000059604645,0 -0.6000000238418579,0 c-0.10000000149011612,0 -0.10000000149011612,0 -0.20000000298023224,0 c-0.10000000149011612,0 -0.20000000298023224,0 -0.20000000298023224,0 s-0.20000000298023224,0 -0.20000000298023224,0 c-0.10000000149011612,0 -0.10000000149011612,0 -0.20000000298023224,0 V14.1015625 c0.10000000149011612,0 0.20000000298023224,0 0.4000000059604645,0.10000000149011612 C85.7007827758789,14.201562881469727 85.80078125,14.201562881469727 86.00077819824219,14.201562881469727 z" id="svg_23"/>
	<path fill="#FFFFFF" d="M47.200782775878906,19.6015625 h5.199999809265137 v1.5 h-3.5 v1.7999999523162842 c0.10000000149011612,0 0.30000001192092896,0 0.5,-0.10000000149011612 c0.20000000298023224,0 0.4000000059604645,0 0.6000000238418579,0 c0.4000000059604645,0 0.8999999761581421,0 1.2000000476837158,0.10000000149011612 c0.4000000059604645,0.10000000149011612 0.699999988079071,0.20000000298023224 1,0.4000000059604645 c0.30000001192092896,0.20000000298023224 0.5,0.5 0.6000000238418579,0.800000011920929 s0.20000000298023224,0.699999988079071 0.20000000298023224,1.2000000476837158 c0,0.5 -0.10000000149011612,0.8999999761581421 -0.20000000298023224,1.2000000476837158 c-0.20000000298023224,0.4000000059604645 -0.4000000059604645,0.6000000238418579 -0.699999988079071,0.8999999761581421 c-0.30000001192092896,0.20000000298023224 -0.6000000238418579,0.4000000059604645 -1.100000023841858,0.5 S50.200782775878906,28.1015625 49.700782775878906,28.1015625 c-0.10000000149011612,0 -0.30000001192092896,0 -0.5,0 s-0.4000000059604645,0 -0.6000000238418579,0 s-0.5,0 -0.699999988079071,-0.10000000149011612 c-0.20000000298023224,0 -0.4000000059604645,-0.10000000149011612 -0.6000000238418579,-0.10000000149011612 V19.6015625 zM49.80078125,26.701562881469727 c0.20000000298023224,0 0.4000000059604645,0 0.6000000238418579,-0.10000000149011612 c0.20000000298023224,-0.10000000149011612 0.30000001192092896,-0.10000000149011612 0.5,-0.20000000298023224 c0.10000000149011612,-0.10000000149011612 0.20000000298023224,-0.20000000298023224 0.30000001192092896,-0.4000000059604645 c0.10000000149011612,-0.20000000298023224 0.10000000149011612,-0.4000000059604645 0.10000000149011612,-0.6000000238418579 c0,-0.30000001192092896 0,-0.5 -0.10000000149011612,-0.699999988079071 c-0.10000000149011612,-0.20000000298023224 -0.20000000298023224,-0.30000001192092896 -0.4000000059604645,-0.4000000059604645 c-0.20000000298023224,-0.10000000149011612 -0.30000001192092896,-0.20000000298023224 -0.5,-0.20000000298023224 c-0.20000000298023224,0 -0.4000000059604645,0 -0.6000000238418579,0 c-0.10000000149011612,0 -0.30000001192092896,0 -0.4000000059604645,0 s-0.30000001192092896,0 -0.30000001192092896,0.10000000149011612 v2.5 c0.10000000149011612,0 0.20000000298023224,0 0.4000000059604645,0 C49.50078201293945,26.701562881469727 49.60078048706055,26.701562881469727 49.80078125,26.701562881469727 z" id="svg_24"/>
	<path fill="#FFFFFF" d="M59.00078201293945,23.301563262939453 l0.10000000149011612,-1.100000023841858 h-0.10000000149011612 l-0.6000000238418579,1.100000023841858 l-3.0999999046325684,4.599999904632568 h-1.2000000476837158 v-8.399999618530273 h1.600000023841858 V24.1015625 l-0.10000000149011612,1.100000023841858 h0.10000000149011612 l0.6000000238418579,-1.2000000476837158 l3.0999999046325684,-4.5 h1.2000000476837158 v8.399999618530273 h-1.600000023841858 V23.301563262939453 z" id="svg_25"/>
	<path fill="#FFFFFF" d="M66.50077819824219,21.001562118530273 h-1.7999999523162842 c0,0.800000011920929 -0.10000000149011612,1.5 -0.10000000149011612,2.0999999046325684 s-0.10000000149011612,1.2000000476837158 -0.20000000298023224,1.7000000476837158 c-0.10000000149011612,0.5 -0.20000000298023224,0.8999999761581421 -0.30000001192092896,1.2999999523162842 c-0.10000000149011612,0.4000000059604645 -0.30000001192092896,0.699999988079071 -0.4000000059604645,1 c-0.10000000149011612,0.20000000298023224 -0.20000000298023224,0.30000001192092896 -0.4000000059604645,0.5 c-0.10000000149011612,0.10000000149011612 -0.30000001192092896,0.20000000298023224 -0.4000000059604645,0.30000001192092896 c-0.20000000298023224,0.10000000149011612 -0.30000001192092896,0.10000000149011612 -0.5,0.10000000149011612 c-0.10000000149011612,0 -0.30000001192092896,0 -0.4000000059604645,0 c-0.20000000298023224,0 -0.30000001192092896,0 -0.5,0 c-0.10000000149011612,0 -0.20000000298023224,-0.10000000149011612 -0.4000000059604645,-0.10000000149011612 l0.20000000298023224,-1.399999976158142 c0,0 0.10000000149011612,0 0.10000000149011612,0 s0.10000000149011612,0 0.10000000149011612,0 c0.10000000149011612,0 0.30000001192092896,0 0.4000000059604645,-0.10000000149011612 s0.20000000298023224,-0.20000000298023224 0.30000001192092896,-0.30000001192092896 c0.10000000149011612,-0.20000000298023224 0.20000000298023224,-0.4000000059604645 0.30000001192092896,-0.800000011920929 c0.10000000149011612,-0.30000001192092896 0.20000000298023224,-0.800000011920929 0.20000000298023224,-1.2999999523162842 c0.10000000149011612,-0.5 0.10000000149011612,-1.2000000476837158 0.20000000298023224,-1.899999976158142 s0.10000000149011612,-1.600000023841858 0.10000000149011612,-2.5999999046325684 h5 v8.399999618530273 h-1.600000023841858 V21.001562118530273 z" id="svg_26"/>
	<path fill="#FFFFFF" d="M69.50077819824219,19.6015625 h5 v1.5 h-3.299999952316284 v2 h3 v1.5 h-3 v2.0999999046325684 h3.4000000953674316 v1.5 h-5 V19.6015625 z" id="svg_27"/>
	<path fill="#FFFFFF" d="M81.80078125,21.001562118530273 h-2.4000000953674316 v6.900000095367432 h-1.600000023841858 v-6.900000095367432 h-2.5 v-1.5 H81.80078125 V21.001562118530273 z" id="svg_28"/>
</g></g></svg>