<svg xmlns="http://www.w3.org/2000/svg" width="740" height="88"><rect width="100%" height="100%" fill="none"/><g class="currentLayer"><title>Layer 1</title><g><path fill="#A11A19" d="M101.43 86.468c-.198.168-.386.34-.592.505-.13.107-.25.216-.383.32-.13.108-.25.218-.384.324-.127.106-.25.216-.382.32-.13.11-.25.218-.383.324-.13.108-.252.218-.384.324-.127.107-.25.216-.382.322-.16.132-.317.266-.482.396-.222.19-.435.385-.668.57-.128.107-.25.217-.382.322-.13.107-.252.217-.384.323-.124.104-.242.21-.37.313l-.053.044c-.142.117-.283.235-.428.35-.012.01-.022.02-.034.028-.216.184-.423.374-.648.554-.16.132-.317.266-.482.396-.222.19-.435.384-.667.57-.128.107-.25.216-.382.322-.13.107-.252.217-.384.323-.16.132-.317.266-.482.396-.252.216-.5.435-.766.645-.222.19-.436.384-.667.57-.13.106-.253.216-.385.322-.13.107-.25.217-.383.323-.13.107-.25.216-.383.32-.163.136-.324.27-.49.403-.097.08-.18.165-.278.243-.063.052-.13.103-.194.156-.19.162-.374.33-.573.487-.16.132-.318.266-.482.396-.252.215-.5.434-.766.644-.222.19-.436.384-.668.57-.13.107-.252.216-.384.322-.13.106-.25.217-.383.322-.13.107-.25.216-.384.322-.13.108-.252.217-.384.322-.16.132-.317.266-.482.396-.222.19-.435.385-.667.57-.13.108-.25.218-.383.324-.13.107-.25.216-.384.32-.128.107-.25.218-.383.323-.16.132-.318.266-.483.396-.222.19-.435.386-.667.57-.13.108-.25.218-.383.324-.13.107-.252.216-.384.32-.125.105-.244.214-.373.316l-.026.022c-.136.114-.27.23-.41.34-.146.122-.287.245-.437.364-.222.19-.436.384-.667.57-.13.107-.252.217-.384.322-.13.107-.25.217-.383.323-.13.108-.252.218-.384.323-.16.132-.318.266-.482.396-.222.188-.436.383-.667.57-.13.106-.252.215-.384.32-.13.107-.25.218-.383.323-.128.106-.25.215-.38.32l-.265.218c-.17.143-.33.29-.505.43-.13.106-.25.217-.383.322-.13.107-.252.216-.384.322-.13.108-.25.217-.383.323-.13.106-.25.217-.384.322-.128.106-.25.215-.383.32-.16.133-.317.268-.482.398-.22.19-.434.384-.666.57-.13.107-.25.216-.383.322-.128.107-.25.217-.383.323-.128.106-.25.216-.383.32-.13.11-.25.218-.383.324-.128.107-.25.217-.383.322-.16.13-.317.265-.482.395-.222.19-.435.386-.668.57-.13.108-.25.217-.383.322-.13.108-.25.217-.383.322-.128.106-.25.216-.383.322-.13.106-.25.216-.383.32-.13.11-.25.218-.383.324-.128.106-.25.217-.383.322-.13.107-.25.216-.383.322-.13.108-.25.217-.384.322-.128.107-.25.217-.383.323-.13.106-.25.216-.383.32-.16.133-.32.268-.482.398-.222.19-.435.384-.667.57-.13.107-.25.217-.384.322-.127.107-.25.217-.382.323-.03.026-.058.053-.09.078-1.178 1.01-2.492 1.953-3.985 2.875-2.503 1.546-4.868 1.584-6.413 1.584-1.546 0-3.22-.994-3.956-1.4-.57-.313-1.005-.207-1.172-.143-.047.04-.1.08-.16.123a3.18 3.18 0 0 1-1.274.775c-1.25.394-7.857-.192-8.982-.568a3.405 3.405 0 0 1-1.306-.78l-.406.056c.163.157.27.23.27.23l-.642.09c.15.146.258.233.258.233l-1.555.217s-3.14.404-4.6-.56c-1.463-.963-1.65-3.545-1.65-3.545s.063-8.86.094-11.1c.03-2.236.887-2.79.89-2.79.17-.233.384-.405.635-.542a2.72 2.72 0 0 1 .07-.05c.034-.03.06-.05.06-.053.103-.1.21-.187.322-.27.036-.03.063-.05.063-.052.102-.1.21-.188.32-.27l.063-.053c.103-.102.214-.19.327-.274.034-.03.057-.048.057-.05.07-.07.154-.118.23-.178a.93.93 0 0 1 .153-.142c.102-.1.21-.188.32-.27l.063-.053c.102-.1.21-.187.32-.27l.064-.053c.1-.1.21-.187.32-.27.036-.03.063-.05.063-.052.102-.1.21-.188.32-.27l.063-.053c.102-.1.21-.187.32-.27l.064-.053c.1-.1.21-.187.32-.27.036-.03.063-.05.063-.053.095-.092.195-.175.3-.253L31.9 89.494 30.323 92.2s-1.298-2.296-1.67-2.165c-.09.08-2.362 1.167-2.482 1.264-.604.535-10.277 6.164-11.374 5.923-1.41-.308-1.127-1.3-1.02-1.69.108-.39.497-.753.833-.994.334-.244.4-.7.253-.874-.146-.174-2.395-2.406-3.402-2.098-1.006.31.4-2.216-.27-1.76-2.85 1.91-2.59-.806-6.046-1.488L0 86.187 98.252 4.284c.376-.304.908-.702 1.222-.793 1.315-.38 3.095-.204 4.168.02.64.133 1.474.413 2.248.69.13-.114.264-.178.405-.23-.034.07.008.038.013.028-.004-.04 3.1-2.777 3.1-2.777.012-.02.02.077.033.057.308-.46.936-.674 1.353-.674h.364l.008.002.012-.002h.364c.447 0 .86.075 1.1.46.245.395.307.783.308 1.446.002.94-.12 1.95-.02 2.44.09.427.858-.11.858-.11 3.47-2.747 5.457-4.07 6.896-4.408 1.438-.34 2.213.356 2.342.874.13.517.016.986-.484 1.535l-2.35 2.028c-.104.098-.18.206-.333.32-.008.005.076.012.076.02v.008s.077.294 1.07.175c3.457-.41 10.926-.504 13.924 1.22 1.505.864 1.895 1.973.614 2.853l-11.11 9.34c-.13.136-.627.525-.713.587-.003.004-.008.007-.01.012 3.613.223 9.682-.708 11.06-1.038 4.26-1.022 7.11.472 6.527 5.132-.196 1.566-.76 2.664-1.608 3.265 0 0-3.518 2.89-3.484 2.924-.02.02-.038.043-.06.063 3.734.684 6.878 2.533 8.782 4.877 2.76 3.394 2.576 7.04 1.173 10.604-1.632 4.147-3.808 7.034-6.94 9.534-.054.046-.112.09-.17.136-.073.063-.155.125-.23.19-.248.213-.488.43-.75.64l-36.576 30.74z"/><path fill="#A11A19" d="M216.96 43.832c-.238.18-.467.373-.69.582l-.037.038c-.033.026-5.267-8.642-5.267-8.642l-10.19 10.3s-2.17.404-2.57.33c.11-.102 2.713-3.373 2.84-3.88.125-.505-6.4-6.57-7.352-6.57-.564 0-5.573-.34-5.573-.283 0 0-3.213 3.213-3.213 3.254v-.455h-12.035l.033-2.673s-3.678 3.373-3.566 3.427c0 0-5.043-4.07-8.04-2.958-1 .37-1.934.878-2.77 1.616-.172.13-.336.276-.5.42L89.157 96.236c-.172.13-.338.277-.504.423-.172.13-.337.276-.502.422a8.3 8.3 0 0 0-.503.423c-.238.18-.47.372-.693.58-.034.034-.064.073-.098.105-.04.033-.082.06-.12.095-.206.15-.404.315-.6.487a8.3 8.3 0 0 0-.503.422c-.172.13-.338.277-.503.424-.173.13-.337.276-.503.422a8.43 8.43 0 0 0-.69.58c-.026.025-.047.055-.073.08-.06.048-.122.094-.18.145-.194.142-.38.3-.564.463-.173.13-.337.276-.503.422-.172.13-.337.277-.502.423a8.3 8.3 0 0 0-.503.423c-.237.18-.468.373-.692.582-.026.023-.048.053-.073.078-.142.117-.292.216-.43.344-.034.032-.063.07-.098.104-.04.033-.08.062-.12.095-.205.15-.404.315-.6.488-.17.13-.336.277-.5.423a8.3 8.3 0 0 0-.504.422 8.3 8.3 0 0 0-.502.422 8.43 8.43 0 0 0-.69.582c-.027.024-.05.053-.075.078-.058.05-.12.094-.18.145-.19.143-.378.3-.562.464a8.3 8.3 0 0 0-.502.42c-.172.13-.337.277-.503.423a8.43 8.43 0 0 0-.69.582c-.018.016-.033.037-.05.053-.076.06-.153.12-.227.185a8.65 8.65 0 0 0-.54.448c-.172.13-.337.278-.503.424-.172.13-.337.276-.503.422a8.3 8.3 0 0 0-.503.422c-.172.13-.337.277-.503.423-.172.13-.337.277-.503.423a8.35 8.35 0 0 0-.547.46 8.53 8.53 0 0 0-.463.39c-.17.128-.334.273-.497.418a8.3 8.3 0 0 0-.503.423c-.172.13-.336.277-.502.423-.172.13-.338.277-.504.423-.172.13-.336.275-.502.422a8.3 8.3 0 0 0-.503.422c-.19.142-.37.3-.55.46-.158.12-.31.255-.462.39-.17.128-.334.273-.497.418a8.3 8.3 0 0 0-.502.422c-.172.13-.337.278-.503.424-.172.13-.337.276-.503.422a8.3 8.3 0 0 0-.502.422 8.3 8.3 0 0 0-.502.423c-.173.13-.338.277-.504.423a8.28 8.28 0 0 0-.5.423 8.3 8.3 0 0 0-.504.423 8.3 8.3 0 0 0-.502.422c-.173.13-.338.277-.504.423-.172.13-.337.276-.502.422-.173.13-.338.276-.504.422-.172.13-.338.277-.504.424-.172.13-.336.276-.502.422a8.3 8.3 0 0 0-.502.422 8.43 8.43 0 0 0-.69.582c-.02.016-.034.037-.052.053-.152.122-.308.234-.453.37-.884.825-1.603 1.914-2.157 3.264-.553 1.35-.83 3.026-.83 5.027 0 1.923.247 3.56.742 4.91.496 1.353 1.16 2.45 1.997 3.295a7.425 7.425 0 0 0 2.9 1.836c1.097.38 2.26.57 3.483.57 1.01 0 1.997-.098 2.958-.29.962-.192 1.754-.51 2.375-.955l-.033-.133c.178-.096.38-.176.536-.29l-.034-.132c.18-.097.38-.177.536-.29l-.033-.132c.178-.097.38-.177.536-.29l-.033-.134c.18-.096.38-.176.536-.29l-.033-.133c.178-.098.38-.178.536-.29l-.034-.134c.18-.096.38-.176.536-.29l.746-.132c.02-.01.837-.02.837-.03v4.492h10.837v-1.083h3.25v-.322.423c0 .116.57.126 1.182.183.61.06.933.453 1.525.482.593.03.935.317 1.45.317H93.88c.007 0 .014-.43.02-.43.652-.008 1.29-.255 1.917-.408.952-.232 1.8-.542 2.55-1.028.323-.21.602-.512.86-.782.043-.033.082-.094.123-.13.01-.004.018-.024.026-.03a5.62 5.62 0 0 0 1.033-.87 5.668 5.668 0 0 0 1.013-.853 5.675 5.675 0 0 0 1.018-.857c.16-.135.338-.257.48-.41a5.65 5.65 0 0 0 1.014-.848c.085-.055.15.3.23.24l-2.226 6.406H106.938l.387-1.083H108.445l.386-2.166h1.124l.387-1.083H113.743l1.632 4.332h5.203l-.432-1.083h1.939l-.432-2.166h.553c.106 1.083.2.224.31.337a7.387 7.387 0 0 0 2.9 1.817c1.097.38 2.258.56 3.483.56 1.01 0 1.998-.1 2.96-.295.96-.192 1.753-.512 2.374-.956l-.033-.137c.18-.096.38-.177.537-.29l-.034-.133c.18-.096.38-.177.536-.29l-.034-.133c.178-.097.38-.177.536-.29l-.034-.133c.18-.096.38-.176.536-.29l-.033-.132c.18-.096.38-.177.537-.29l-.034-.134c.18-.096.38-.176.536-.29l-.034-.132c.178-.096.38-.176.536-.29l-.034-.132c.18-.097.38-.177.536-.29l-.033-.133c.18-.095.38-.175.537-.288l-.034-.133c.18-.097.38-.177.536-.29l-.035-.133c.18-.097.38-.177.536-.29l-.032-.133c.18-.096.38-.176.536-.29l-.034-.132c.18-.096.38-.176.536-.29l-.033-.132c.18-.097.38-.177.536-.29l-.035-.133c.18-.096.38-.176.536-.29l.274-.133c.107-.057.627-.11.627-.172v8.434H148.09v-1.083h1.082v-2.166h1.083v-1.083h1.083v-1.083h2.166v-1.082h-1.126c.016 0 .027-.12.045-.053a8.935 8.935 0 0 0 1.59 3.222c.708.932 1.608 1.586 2.696 2.09 1.088.505 2.37.725 3.847.725 2.313 0 4.18-.67 5.61-1.96.176-.13.34-.283.504-.43.175-.13.34-.28.503-.426.175-.13.34-.278.503-.425.228-.17.447-.355.656-.554.087-.068.16-.15.245-.222.21-.152.412-.318.606-.492.176-.13.34-.276.503-.423.174-.13.34-.277.502-.424.175-.13.34-.275.503-.422.175-.13 1.56-.275 1.723-.422.154-.116 1.666-.246 1.666-.375v7.09h-1.207 4.455v-1.084h2.165v-2.166h2.167v-2.165h1.083v5.414h4.331v-1.083h4.332v-2.166h1.083v-1.083h-.986c.207 1.083.41.652.662.984.71.933 1.608 1.597 2.697 2.1 1.088.506 2.37.73 3.847.73 2.312 0 4.18-.666 5.61-1.956.175-.13.34-.282.503-.43.175-.13.34-.278.503-.425.174-.13.34-.278.503-.425.228-.17.447-.356.656-.555.086-.067.16-.15.244-.222.21-.152.413-.318.607-.492.174-.13.34-.276.503-.423.175-.13.34-.275.503-.423.174-.13.34-.275.502-.422.175-.13.34-.276.504-.422.173-.13.338-.275.5-.423.176-.13.34-.275.504-.422.174-.13.34-.275.502-.422.175-.13.34-.275.503-.423l.103-.08c-.088.48-.18.928-.278 1.308-.025.098-.053.173-.08.262-.016-.005-.033-.007-.05-.013l-.04.31c-.02.065-.04.14-.06.204-.02-.003-.036 0-.053-.005a2.147 2.147 0 0 1-.35-.088l-.066.517c-.03-.004-.06-.003-.088-.008a2.265 2.265 0 0 1-.35-.088l-.066.518c-.03-.004-.058-.003-.087-.008a2.265 2.265 0 0 1-.35-.088l-.066.518c-.03-.003-.06-.002-.09-.008a2.265 2.265 0 0 1-.35-.087l-.065.516c-.03-.003-.058-.002-.088-.007a2.265 2.265 0 0 1-.35-.09l-.065.52c-.03-.005-.06-.004-.088-.01a2.265 2.265 0 0 1-.35-.087l-.437 3.44c.29.136.588.237.89.305.3.068.674.1 1.122.1.308 0 .644-.035 1.005-.103a4.594 4.594 0 0 0 1.092-.368 4.804 4.804 0 0 0 1.065-.71c.036-.03.067-.072.103-.106.134-.094.27-.19.4-.3.04-.037.076-.083.116-.12.13-.092.26-.182.387-.29.09-.078.173-.175.26-.262.08-.063.163-.118.242-.187.036-.03.068-.073.103-.107.135-.094.27-.19.4-.3.04-.037.077-.084.117-.122.13-.09.26-.18.384-.287.092-.078.175-.176.26-.263.08-.062.165-.117.243-.185.037-.03.07-.074.105-.11a5.31 5.31 0 0 0 .397-.3c.04-.035.078-.083.12-.12.128-.09.257-.18.383-.288.092-.08.175-.176.262-.266.08-.06.162-.114.24-.182.038-.032.07-.075.106-.11.135-.094.27-.188.398-.3.042-.036.08-.083.12-.122.13-.09.26-.18.383-.286.094-.08.178-.177.265-.267.08-.06.16-.114.24-.182.037-.03.07-.076.106-.11.134-.093.267-.188.396-.298.044-.037.08-.086.123-.125.126-.09.255-.178.38-.284.093-.08.177-.178.265-.268.08-.06.16-.113.237-.18.038-.032.072-.078.11-.112.133-.093 1.2-.186 1.328-.297.044-.037 1.058-.085 1.058-.126v8.596h3.25v-1.083h1.082v-2.166h-.04 3.29v2.206c0 .116-.275.203.278.262.556.057.366.107.91.145.543.04.787.064 1.244.074.457.01.692.015.964.015 2.7 0 4.712-.595 6.158-1.78.108-.087.163-.19.26-.286.065-.05.13-.085.194-.136.092-.074.147-.172.233-.252.084-.062.18-.105.26-.17.094-.076.156-.176.244-.257.08-.06.178-.104.256-.168.092-.074.154-.172.24-.252.084-.062.185-.105.264-.17.08-.065.133-.15.208-.218.097-.07.202-.13.293-.204.117-.095.217-.204.323-.308.055-.042.124-.07.18-.116.09-.074.153-.172.24-.252.082-.062.183-.106.262-.17.093-.076.157-.175.245-.257.08-.06.18-.102.256-.166.094-.076.156-.174.242-.254.08-.058.174-.1.25-.16.49 1.29 1.136 2.35 1.945 3.168a7.418 7.418 0 0 0 2.9 1.835c1.097.378 2.258.568 3.483.568 1.01 0 1.997-.097 2.958-.29.962-.19 1.753-.51 2.375-.954l-.034-.133c.178-.095.378-.175.536-.288l-.034-.133c.18-.097.38-.178.536-.29l-.034-.134c.18-.097.38-.177.536-.29l-.033-.134c.18-.096.38-.176.536-.29l.13-.14c.115-.064.52-.112.52-.18v3.804h6.497v-1.083h1.083v-2.166h-.518 2.684v-1.327l1.147 4.576H277.536l-.85-1.083H280.205v1.083h-.105 2.509l.807-1.083H284.12l.806-2.166h.7l.807-1.083h.2l.805-1.083h.702l.805-1.082h.702l.302-.998v7.496h5.416v-1.083H298.615v1.083h-.028H301.44l.806-1.083h.702l.805-2.166H304.456l.806-1.083h.2l.806-1.083h.702l.805-1.082h.702l.806-1.083h1.244v7.58H315.942v-1.082h2.165v-2.166h1.083v-2.166h1.083v-1.082h2.166v-1.083h-.435 2.6v-1.083h1.083v-1.083h1.083v-1.084h1.084v-3.248h1.083v-1.083h2.165v-1.083h1.083v-1.083h1.083v17.326H338.684v-1.083h1.082v-2.166h2.166v-1.083h1.083v-1.083h1.082v-1.082h2.166v6.498h-.84H358.174v-1.083h.255l-.46 1.083h4.998l.387-1.083H364.477l.386-2.166H365.985l.387-1.083h3.404l1.632 4.332h5.199l-.43-1.083h1.938l-.432-2.166H379.627l-.432-1.083h1.723v4.332h5.414v-1.083h1.084v-2.166h2.166v-1.083h1.083v-2.166h1.083v6.498h6.497v-1.083h1.083v-2.166h1.083v-1.083h2.165v-1.083h1.083v-1.082h1.083v-1.083h1.084v-1.083h-.01 2.176v-1.083h1.083v-1.084h1.082v-3.248h3.25v-1.083h-1.43 3.595v-1.083h1.083v-1.083h2.166v-.537 17.863h-.68 5.01v-1.083h1.083v-2.166h3.25v-1.28c0 .562-.347 1.085.048 1.537.68.777 1.024 1.38 2.004 1.806.983.426 1.87.64 3.154.64 2.258 0 3.932-.626 5.28-1.857.19-.14.31-.296.483-.458.16-.122.282-.254.43-.39.176-.13.327-.272.49-.42.21-.158.404-.33.596-.512.134-.102.26-.214.386-.328a6.63 6.63 0 0 0 .513-.427c.19-.14.37-.296.544-.457.16-.12.31-.254.458-.39.175-.13.34-.27.503-.42.192-.14.372-.295.547-.458.16-.12.31-.253.46-.39.175-.13.734-.272.897-.42.046-.034.536-.062.536-.098v7.572h4.332v-1.083h-.19 2.354v-2.166h1.083v-1.083h1.082v-1.083h1.083v-1.082h1.083v6.498H462.137v-1.083h1.083V138.134h-.382c.207 1.083.41.652.663.984.71.933 1.61 1.597 2.698 2.1 1.088.506 2.37.73 3.847.73 2.313 0 4.178-.667 5.61-1.957.175-.13.34-.282.503-.428.175-.13.34-.28.503-.425.175-.13.34-.278.503-.425a7.4 7.4 0 0 0 .658-.555c.086-.067.162-.15.245-.222.21-.152.413-.318.607-.492.174-.13.34-.276.502-.422.175-.13.34-.275.503-.423.174-.13.34-.275.502-.422.174-.13.654-.275.818-.422.108-.082-.454-.174.63-.26v6.973h5.415v-1.083h1.083v-2.166h2.165v-2.167h3.25v-1.082h1.083v-1.083h-.72c.08 1.083.153.65.275 1.105.35 1.303.88 2.25 1.59 3.184.708.932 1.608 1.568 2.696 2.072 1.09.505 2.37.716 3.848.716 2.313 0 4.178-.675 5.61-1.964.175-.13.34-.286.503-.434.174-.13.34-.28.502-.427.175-.13.34-.28.503-.426.228-.17.447-.355.657-.555.086-.068.162-.15.245-.222.21-.152.413-.318.606-.492.175-.13.34-.275.503-.42.175-.13.34-.278.503-.425.175-.13.34-.275.503-.422.174-.13.34-.275.502-.423.175-.13.34-.275.503-.422.176-.13.34-.276.504-.423.175-.13.34-.275.503-.423.174-.13.34-.275.502-.422.175-.13.34-.276.503-.423.174-.13.34-.275.502-.423a7.19 7.19 0 0 0 .67-.565c.095-.076.184-.16.276-.24.196-.143.382-.3.564-.463.174-.13.34-.275.502-.422.175-.13.34-.275.503-.422.173-.13.338-.276.5-.423.176-.13.34-.275.504-.422.174-.13.34-.275.502-.422.253-.19.494-.395.722-.618.1-.08.202-.15.296-.237.17-.127.33-.27.49-.413.174-.13.34-.276.502-.422.174-.13.34-.275.503-.422.173-.13.338-.276.5-.423.175-.13.34-.275.504-.422.174-.13.338-.275.502-.422.252-.19.494-.393.722-.618.1-.08.202-.15.296-.237.17-.126.33-.27.49-.412.174-.13.338-.275.502-.423.114-.085.22-.182.33-.274a8.12 8.12 0 0 1 1.592-.173c.97 0 2.326.17 2.92.51.003 0 .58.003.58.005v.307h-1.52.44v1.082H528.417h.86v1.083h-2.371.205v1.083h-1.209.128v5.414h-.036.614c.117 0 .292-.653.527-.633.614.013 1.14-.178 1.623-.152l-.142.378c-.122-.05-.235-.148-.337-.197l-.168.54c-.12-.048-.235-.11-.335-.158l-.168.56c-.12-.047-.234-.098-.335-.147l-.168.567a5.76 5.76 0 0 1-.337-.147l-.167.568a6.55 6.55 0 0 1-.335-.145l-.168.568a5.783 5.783 0 0 1-.337-.146l-.168.567a5.712 5.712 0 0 1-.334-.145l-.168.568a5.712 5.712 0 0 1-.335-.145l-.168.568a5.783 5.783 0 0 1-.336-.146l-.167.567a5.712 5.712 0 0 1-.335-.145l-.164.558c-.112-.045-.246-.09-.34-.136l-1.025 3.468c.562.29 1.367.544 2.416.758 1.05.214 2.212.32 3.495.32.992 0 1.957-.12 2.908-.364a7.67 7.67 0 0 0 2.507-1.122c.138-.095.246-.216.37-.323.056-.038.123-.063.178-.1.327-.228.62-.492.895-.776.04-.026.086-.043.125-.07.388-.268.737-.582 1.053-.93.095-.087.2-.162.29-.255.047-.03.102-.052.148-.083a6.01 6.01 0 0 0 .89-.773c.04-.027.09-.045.13-.072.385-.268 1.325-.583 1.64-.93.08-.072.834-.134.834-.21v6.554h4.339v-1.083h1.083v-2.166h1.083v-1.083h2.166v-1.083h1.082v-1.082h1.083v-1.083h1.083v-1.083h3.249v-1.083h1.083v9.746h-.173 2.783l.806-1.083h.702l.806-2.166h.7l.807-1.083h.2l.85-1.083h.659l.804-1.082h.702l.806-1.083h2.543v7.58h4.331v-1.082h1.083v-2.166h1.082v-1.083h1.083v-1.083h1.083v-2.165h1.083v7.58h6.498v-1.082h1.083v-2.166h1.084v-1.083h1.083v-1.083h1.083v-1.082h1.083v-1.083h1.083v7.58h12.995v-1.082h.133l-.12.43c.292.136.59-.014.89.054.302.068.676-.025 1.123-.025.31 0 .645-.1 1.006-.166.358-.068.722-.224 1.093-.398.368-.175.724-.43 1.064-.72.038-.033.07-.086.108-.122.133-.093.266-.19.394-.3.043-.038.082-.09.124-.13.128-.087.255-.176.378-.282.094-.082.18-.18.27-.27.077-.06.156-.114.233-.18.04-.032.072-.078.11-.113.132-.093.264-.185.392-.295.043-.038.08-.088.125-.128.126-.09.254-.176.376-.28.097-.083.182-.18.272-.273.077-.06.156-.112.232-.177.04-.033.074-.08.113-.116.132-.09.263-.183.39-.292.045-.038.084-.088.127-.13.127-.088.254-.174.376-.28.095-.082.182-.18.273-.272.077-.06.155-.11.23-.175.04-.032.075-.08.114-.116.13-.092.262-.184.39-.292.088-.076.168-.17.252-.258.083-.064.167-.12.25-.19.034-.03.065-.073.1-.104.135-.096.27-.193.402-.306.04-.034.076-.08.115-.118.13-.092.26-.183.388-.29.09-.078.17-.173.255-.26.082-.063.167-.12.247-.188.036-.03.745-.073.78-.106.133-.095-.01-.19 1.073-.3v8.254h4.33V139.217h1.083v-1.083h1.474l-2.268 4.332h5.136l.657-1.083h.851l.635-2.166h.874l.708-1.083h.298l.644-1.083h.863l.958-1.42v6.836h4.33v-1.083h3.25v-2.166h1.083v-1.083h1.083v-2.166h1.082v-1.083h1.083v-1.083h2.166v-1.083h2.166v-1.084h1.083v-3.248h1.082v-1.083h2.166v-1.083h3.25v-2.167h3.248v-1.082h1.082v-1.083h1.083v-1.083h-.003 3.253v-1.083h1.083v-1.083h1.083v-2.164h1.083v-1.083h-.34 2.505v-1.083h-.866 3.03v-2.166h1.083v-1.083h1.083v-1.082h1.083v-1.083h2.165v-2.166h-.226 1.308v-2.167h1.083v-1.082h2.167V102.4h1.083v-1.083H689.55v-1.083h1.08V99.15h1.084v-1.084h1.083V95.9h1.083v-1.083h2.166v-1.083h1.083v-2.166h2.165v-1.082h1.083v-1.083h-.314 2.48l.3-2.166h4.03l33.47-31.405-.068-19.053-12.08.913c.567-.588-5.078 4.756-5.078 4.783v-5.63l-11.608-1.353c-.834 1.015-10.592 8.765-10.592 8.765l-2.572.158.068-.225 6.61-5.368.046-3.295-11.985-.126-2.115 1.887.046 1.67-15.9-3.514-2.578 3.446-4.633-.385-7.054 6.588-3.766-9.634-3.97 3.587s-11.553-3.477-12.636-3.418c0 0-3.604 3.916-3.604 3.976 0 0-12.18-3.39-12.394-3.274 0 0-12.105 10.322-12.245 10.398 0 0-4.888-14.874-14.505-9.034-.17.128-.33.27-.49.414-.18.133-10.145 9.49-10.145 9.583l-.018-.98 8.004-7.756-.05-3.53-11.787.078-4.603 3.61s-13.517-1.148-13.676-1.005c-.18.133-4.428 3.73-4.506 3.8-.18.13-3.747-6.338-3.747-6.338l-7.534 8.37.115-8.685H545.3l-4.278 4.598-.745.78c-.132 0-.27-1.107-.418-1.315-.67-.934-10.79-2.845-12.17-1.33-.024.027-.045.022-.067.05-.53.315-3.76 3.29-4.842 4.22v-6.243l-3.627-.617-21.86 20.81c.026 0-.028-1.394-.028-1.394s8.52-8.04 8.574-8.144c.446-.884 1.032-1.96 1.032-3.243 0-1.42-.268-2.763-.783-3.648s-1.2-1.67-2.015-2.167a7.848 7.848 0 0 0-2.79-1.038c-1.02-.166-6.9-.72-7.983-.566 0 0-2.736 1.982-2.736 2.043l-.937.452-12.005-2.622-2.3-.034-4.09 4.596-4.25-4.782L455.3 47.17l-5.483.27 8.495-8.09-1.966-.845-10.133-2.656-2.192 2.655h-1.232l-14.528-2.572-13.57 14.304-2.708-14.372-9.385 9.092s.25-3.022.27-3.046c.18-.127 7.71-7.182 7.856-7.335.83-.944 1.78-1.517 1.98-2.66l-3.124-1.11c-.022.182-2.09 1.99-2.09 1.99-.017.152-1.74.317-2.12.046-.38-.27-.61-.718-.685-1.34l-2.957-.068c.014.12-5.684 4.877-5.684 4.877.014.12-2.868-.502-2.868-.502l-9.01 10.278v-7.58l-3.903-2.64-9.938 11.268-.475-.745 7.39-10.57-4.513.146-6.44 7.954h-.694l-3.4-8.11-3.214 3.098-.72.202.547-2.36c-.525-.212-11.327 1.448-11.49 1.593-.173.13-6.352 5.325-6.54 5.49-.2.15-.392.318-.583.49a6.465 6.465 0 0 0-1.727-.667 12.908 12.908 0 0 0-2.763-.292c-.234 0-.475.01-.747.03-.274.02-.518.04-.78.058-.262.02-.377.044-.6.073-.223.03-.31.054-.31.072v-5.092h-1.402l-2.364-2.978-3.44 3.757-.068-3.672-11.912-.034c-.322.406-6.214 6.867-6.214 6.867-.006.422-6.906-7.37-13.125-4.614-.17.13-6.002 5.476-6.002 5.62l-1.244-4.945-13.786-2.696-4.298 6.435s-8.572-7.13-8.732-6.988c-.176.13-7.48 4.097-7.48 4.097l-1.446-.864-12.92-2.666-1.48-.02-2.518 3.4c-.525-.215-6.508-3.203-10.838-1.24-.17.13-.838.662-1.002.807m10.27 1.773h-.016l.017-.074v.073zm45.604 99.572l-.668-.972h.668v.972zm70.067-92.177a1.675 1.675 0 0 1 .01-.416c.006.003.017.006.024.01l.13-.564.018.007v.963h-.183zm180.18 84.932l-.092-.04.103.006-.01.034zm97.315 4.416v-.61h.373l-.373.61z"/><g fill="#FFF"><path d="M170.43 54.97c-.623.443-1.415.76-2.376.953-.963.193-1.948.29-2.96.29-1.222 0-2.384-.19-3.48-.57a7.45 7.45 0 0 1-2.9-1.835c-.837-.846-1.502-1.943-1.998-3.294-.496-1.35-.743-2.987-.743-4.91 0-2.002.277-3.68.83-5.03.555-1.35 1.274-2.438 2.158-3.264a7.965 7.965 0 0 1 2.96-1.778 10.38 10.38 0 0 1 3.264-.54c1.165 0 2.152.078 2.96.233.804.156 1.47.34 1.996.554l-.788 3.38c-.447-.213-.977-.37-1.588-.466-.612-.098-1.355-.145-2.23-.145-1.613 0-2.91.573-3.89 1.722-.982 1.15-1.474 2.93-1.474 5.345 0 1.05.117 2.01.35 2.877s.587 1.607 1.063 2.22a4.89 4.89 0 0 0 1.78 1.43c.708.342 1.53.512 2.46.512.876 0 1.614-.088 2.217-.262a6.5 6.5 0 0 0 1.573-.67l.816 3.245zM172.907 35.81h12.097v3.555H176.9v4.75h7.376v3.557H176.9v4.985h8.25v3.555h-12.24l-.003-20.403zM201.85 40.268c0 .506-.062 1.01-.19 1.516a4.15 4.15 0 0 1-.622 1.384c-.29.418-.666.787-1.13 1.108-.463.32-1.023.56-1.68.714v.174a6.77 6.77 0 0 1 1.653.496c.523.233.978.554 1.364.962.387.408.69.904.914 1.487.222.582.334 1.272.334 2.07 0 1.05-.224 1.957-.67 2.725a5.543 5.543 0 0 1-1.793 1.88 8.227 8.227 0 0 1-2.55 1.08 12.35 12.35 0 0 1-2.944.348h-1.27c-.513 0-1.067-.015-1.66-.044a39.287 39.287 0 0 1-1.806-.132 12.717 12.717 0 0 1-1.676-.262V35.664a31.684 31.684 0 0 1 2.798-.32 44.68 44.68 0 0 1 1.676-.088c.573-.02 1.142-.03 1.706-.03.952 0 1.88.074 2.784.22.903.145 1.71.403 2.42.772.708.37 1.277.885 1.705 1.546.424.66.64 1.494.64 2.504zm-8.54 3.82c.273 0 .588-.01.948-.03.36-.02.655-.048.89-.086a5.27 5.27 0 0 0 1.91-1.04c.532-.46.8-1.065.8-1.816 0-.5-.098-.913-.29-1.24a2.216 2.216 0 0 0-.774-.778 3.273 3.273 0 0 0-1.093-.404 6.91 6.91 0 0 0-1.28-.116c-.507 0-.973.01-1.4.03-.428.02-.758.047-.99.086v5.393h1.28zm1.265 8.77c.476 0 .938-.056 1.387-.172.447-.115.844-.293 1.188-.534s.62-.543.83-.908c.208-.365.314-.798.314-1.3 0-.634-.124-1.135-.37-1.5a2.544 2.544 0 0 0-.975-.85c-.4-.203-.85-.333-1.346-.39a12.93 12.93 0 0 0-1.486-.087h-2.09v5.568c.096.04.25.068.458.087.21.02.434.033.672.043.238.01.486.02.744.028.258.013.482.016.673.016zM215.403 51.694h-6.266l-1.546 4.518H203.6l7.346-20.55h2.943l7.347 20.55h-4.2l-1.63-4.518zm-5.246-3.206h4.372l-1.517-4.547-.61-3.206h-.147l-.613 3.236-1.486 4.518zM235.895 54.97c-.62.443-1.413.76-2.374.953a15.02 15.02 0 0 1-2.958.29 10.6 10.6 0 0 1-3.483-.57 7.442 7.442 0 0 1-2.9-1.835c-.837-.846-1.502-1.943-1.998-3.294-.494-1.35-.742-2.987-.742-4.91 0-2.002.277-3.68.83-5.03.556-1.35 1.274-2.438 2.157-3.264a7.973 7.973 0 0 1 2.96-1.778 10.38 10.38 0 0 1 3.264-.54c1.166 0 2.152.078 2.96.233.804.156 1.47.34 1.995.554l-.787 3.38c-.446-.213-.976-.37-1.588-.466-.61-.098-1.354-.145-2.23-.145-1.612 0-2.91.573-3.89 1.722-.98 1.15-1.474 2.93-1.474 5.345 0 1.05.117 2.01.35 2.877.234.867.588 1.607 1.063 2.22a4.895 4.895 0 0 0 1.778 1.43c.71.342 1.53.512 2.463.512.876 0 1.613-.088 2.217-.262a6.48 6.48 0 0 0 1.573-.67l.815 3.245zM253.268 39.365h-5.947v16.847h-3.99V39.365h-5.977V35.81h15.915v3.555zM253.56 45.603c0-3.4.748-6.02 2.244-7.856 1.495-1.836 3.634-2.755 6.412-2.755 1.457 0 2.73.254 3.82.758a7.198 7.198 0 0 1 2.71 2.158c.718.932 1.253 2.05 1.6 3.35.352 1.304.527 2.75.527 4.345 0 3.4-.753 6.02-2.258 7.854-1.508 1.837-3.64 2.755-6.398 2.755-1.477 0-2.76-.253-3.848-.757a7.072 7.072 0 0 1-2.697-2.157c-.71-.933-1.238-2.05-1.59-3.353-.35-1.3-.523-2.75-.523-4.342zm4.197 0c0 1.03.087 1.977.262 2.84.174.867.44 1.61.8 2.23.36.624.822 1.11 1.385 1.46.563.35 1.233.524 2.01.524 1.42 0 2.516-.554 3.295-1.662.776-1.107 1.165-2.905 1.165-5.392 0-.992-.082-1.915-.248-2.77-.164-.855-.422-1.603-.772-2.244s-.807-1.142-1.37-1.503c-.564-.36-1.254-.538-2.07-.538-1.418 0-2.517.566-3.293 1.703s-1.165 2.92-1.165 5.35zM284.865 39.365h-7.142v16.847h-3.993V35.81h15.128V56.21h-3.993V39.365zM291.714 45.603c0-3.4.75-6.02 2.244-7.856 1.498-1.836 3.635-2.755 6.412-2.755 1.458 0 2.73.254 3.82.758a7.19 7.19 0 0 1 2.71 2.158c.72.932 1.254 2.05 1.604 3.35.35 1.304.525 2.75.525 4.345 0 3.4-.756 6.02-2.26 7.854-1.506 1.837-3.64 2.755-6.4 2.755-1.476 0-2.758-.253-3.846-.757a7.09 7.09 0 0 1-2.697-2.157c-.708-.933-1.238-2.05-1.587-3.353-.35-1.3-.526-2.75-.526-4.342zm4.197 0c0 1.03.09 1.977.263 2.84.175.867.443 1.61.8 2.23a4.06 4.06 0 0 0 1.386 1.46c.562.35 1.233.524 2.01.524 1.418 0 2.517-.554 3.293-1.662.778-1.107 1.168-2.905 1.168-5.392 0-.992-.083-1.915-.247-2.77-.166-.855-.423-1.603-.773-2.244-.35-.642-.807-1.142-1.37-1.503-.563-.36-1.253-.538-2.07-.538-1.42 0-2.516.566-3.293 1.703-.777 1.138-1.166 2.92-1.166 5.35zM322.057 39.162h-4.344a239.064 239.064 0 0 1-.26 5.042c-.1 1.516-.23 2.88-.395 4.094-.166 1.215-.384 2.288-.656 3.222-.272.933-.622 1.74-1.05 2.42a4.53 4.53 0 0 1-.918 1.106c-.34.29-.696.525-1.064.7a4.58 4.58 0 0 1-1.093.364c-.36.07-.696.102-1.006.102a5.2 5.2 0 0 1-1.122-.102 4.39 4.39 0 0 1-.89-.306l.44-3.44a2.147 2.147 0 0 0 .7.116c.31 0 .616-.076.917-.232.3-.156.558-.418.772-.788.292-.426.544-1.053.757-1.88.214-.825.403-1.88.57-3.162.165-1.282.296-2.813.394-4.59.097-1.778.165-3.852.204-6.224h12.038v20.404h-3.993V39.162zM329.548 35.517h3.993v7.316c.098-.02.26-.044.482-.073s.467-.053.73-.072l.8-.06c.272-.018.523-.028.757-.028.95 0 1.875.097 2.768.29.894.196 1.686.54 2.375 1.035.69.496 1.24 1.167 1.648 2.01.41.847.613 1.92.613 3.223 0 2.332-.724 4.09-2.172 5.275-1.446 1.185-3.52 1.778-6.222 1.778-.272 0-.635-.004-1.092-.014a30.09 30.09 0 0 1-1.5-.073 52.768 52.768 0 0 1-1.65-.145 11.265 11.265 0 0 1-1.53-.262v-20.2zm5.975 17.14c.544 0 1.06-.054 1.545-.16.485-.107.914-.293 1.282-.555s.657-.607.86-1.035c.204-.427.306-.95.306-1.573 0-.66-.11-1.2-.336-1.618a2.585 2.585 0 0 0-.875-.977 3.256 3.256 0 0 0-1.267-.468 9.58 9.58 0 0 0-1.516-.116c-.137 0-.3.01-.495.028l-.584.06a7.272 7.272 0 0 0-.903.144v6.092c.213.06.5.102.86.132.36.03.733.044 1.123.044zM359.714 54.97c-.62.443-1.413.76-2.375.953a15.02 15.02 0 0 1-2.96.29 10.6 10.6 0 0 1-3.482-.57 7.442 7.442 0 0 1-2.9-1.835c-.836-.846-1.5-1.943-1.997-3.294-.494-1.35-.742-2.987-.742-4.91 0-2.002.278-3.68.83-5.03.556-1.35 1.274-2.438 2.158-3.264a7.973 7.973 0 0 1 2.96-1.778 10.38 10.38 0 0 1 3.264-.54c1.165 0 2.15.078 2.958.233.805.156 1.47.34 1.996.554l-.787 3.38c-.446-.213-.976-.37-1.588-.466s-1.356-.145-2.23-.145c-1.613 0-2.91.573-3.893 1.722-.98 1.15-1.47 2.93-1.47 5.345 0 1.05.116 2.01.35 2.877.232.867.587 1.607 1.062 2.22a4.895 4.895 0 0 0 1.778 1.43c.708.342 1.53.512 2.463.512.876 0 1.613-.088 2.216-.262s1.128-.4 1.574-.67l.814 3.245zM367.235 47.497h-1.05v8.715h-3.993V35.81h3.993v9.035l.933-.408 5.627-8.628h4.546l-5.945 8.568-1.575 1.108 1.633 1.137 6.79 9.59h-4.926l-6.032-8.716zM392.156 44.903l.234-2.653h-.145l-1.37 2.74-7.607 11.222h-3.003V35.81h3.992v11.104l-.29 2.74h.175l1.428-2.826 7.607-11.018h2.973v20.403h-3.995v-11.31zM410.985 44.903l.234-2.653h-.146l-1.37 2.74-7.608 11.222h-3.003V35.81h3.993v11.104l-.29 2.74h.174l1.43-2.826 7.606-11.018h2.972v20.403h-3.993v-11.31zm-5.683-14.165c.078.622.306 1.068.684 1.34.38.272.87.41 1.472.41 1.302 0 2.02-.574 2.157-1.72l3.236.494c-.212 1.225-.77 2.118-1.675 2.682-.904.564-2.152.846-3.745.846-.797 0-1.526-.06-2.188-.174-.66-.117-1.237-.307-1.732-.57a3.495 3.495 0 0 1-1.226-1.063c-.32-.448-.52-1-.597-1.662l3.615-.582zM444.095 39.365h-5.946v16.847h-3.994V39.365h-5.975V35.81h15.914v3.555zM446.166 35.81h12.096v3.555h-8.102v4.75h7.374v3.557h-7.374v4.985h8.25v3.555h-12.243V35.81zM471.437 51.694h-6.267l-1.545 4.518h-3.993l7.345-20.55h2.944l7.346 20.55h-4.197l-1.633-4.518zm-5.247-3.206h4.373l-1.516-4.547-.612-3.206h-.145l-.613 3.236-1.487 4.518zM491.228 39.365h-5.946v16.847h-3.993V39.365h-5.976V35.81h15.913v3.555zM493.298 36.013a27.773 27.773 0 0 1 2.696-.365c.98-.087 1.958-.13 2.93-.13 1.01 0 2.027.082 3.047.248a7.62 7.62 0 0 1 2.756.99c.816.496 1.48 1.186 1.996 2.07.515.884.773 2.035.773 3.453 0 1.282-.224 2.366-.67 3.25-.448.884-1.04 1.607-1.78 2.172s-1.578.97-2.52 1.223c-.943.254-1.92.38-2.93.38h-.466a15.932 15.932 0 0 1-1.358-.058 5.014 5.014 0 0 1-.48-.06v7.026h-3.993v-20.2zm5.946 2.944c-.39 0-.757.014-1.107.043s-.632.063-.846.102v6.617c.08.018.196.038.352.057.155.02.32.034.495.044.175.01.345.015.51.015h.364c.526 0 1.045-.05 1.56-.146a3.867 3.867 0 0 0 1.385-.54c.41-.262.734-.626.976-1.092.243-.467.365-1.08.365-1.837 0-.64-.116-1.17-.35-1.588a2.873 2.873 0 0 0-.917-1.006c-.38-.252-.813-.426-1.298-.524s-.98-.145-1.486-.145z"/><g><path d="M523.145 43.708h2.712c.25-2.78 1.067-4.926 2.448-6.44 1.38-1.516 3.313-2.274 5.8-2.274 1.475 0 2.74.253 3.79.758a6.713 6.713 0 0 1 2.58 2.157c.67.93 1.164 2.05 1.486 3.35.32 1.303.482 2.75.482 4.344 0 3.4-.7 6.02-2.1 7.854-1.398 1.837-3.48 2.755-6.236 2.755-1.282 0-2.415-.214-3.397-.64a6.956 6.956 0 0 1-2.49-1.807c-.683-.778-1.218-1.72-1.605-2.828-.39-1.107-.642-2.33-.757-3.672h-2.712v8.54h-3.993V35.4h3.993v8.308zm6.792 1.895c0 1.03.073 1.977.22 2.84.144.867.378 1.61.7 2.23.32.624.748 1.11 1.282 1.46.532.35 1.188.524 1.966.524 1.42 0 2.463-.554 3.133-1.662.67-1.107 1.005-2.905 1.005-5.392 0-.992-.063-1.915-.19-2.77-.126-.855-.344-1.603-.654-2.244-.31-.642-.734-1.142-1.267-1.503-.535-.36-1.21-.538-2.027-.538-1.4 0-2.445.566-3.134 1.703-.69 1.138-1.035 2.92-1.035 5.35zM556.752 47.264h-7.46v8.54h-3.994V35.4h3.993v8.308h7.462V35.4h3.995v20.404h-3.995v-8.54zM563.048 45.603c0-3.4.75-6.02 2.244-7.856 1.496-1.836 3.634-2.755 6.412-2.755 1.458 0 2.73.254 3.82.758a7.19 7.19 0 0 1 2.71 2.158c.718.932 1.253 2.05 1.602 3.35.35 1.304.525 2.75.525 4.345 0 3.4-.752 6.02-2.257 7.854-1.507 1.837-3.638 2.755-6.398 2.755-1.477 0-2.76-.253-3.847-.757a7.072 7.072 0 0 1-2.697-2.157c-.71-.933-1.237-2.05-1.59-3.353-.347-1.3-.522-2.75-.522-4.342zm4.198 0c0 1.03.086 1.977.262 2.84.174.867.44 1.61.8 2.23.36.624.822 1.11 1.385 1.46.563.35 1.234.524 2.01.524 1.42 0 2.517-.554 3.295-1.662.777-1.107 1.166-2.905 1.166-5.392 0-.992-.083-1.915-.248-2.77-.165-.855-.423-1.603-.772-2.244-.35-.642-.807-1.142-1.37-1.503-.565-.36-1.254-.538-2.07-.538-1.418 0-2.518.566-3.294 1.703-.775 1.138-1.164 2.92-1.164 5.35zM595.08 38.957h-7.867v16.847h-3.993V35.4h11.862v3.557zM595.315 45.603c0-3.4.748-6.02 2.244-7.856 1.494-1.836 3.633-2.755 6.41-2.755 1.458 0 2.73.254 3.82.758a7.198 7.198 0 0 1 2.71 2.158c.72.932 1.254 2.05 1.602 3.35.35 1.304.526 2.75.526 4.345 0 3.4-.753 6.02-2.258 7.854-1.508 1.837-3.64 2.755-6.398 2.755-1.477 0-2.76-.253-3.848-.757a7.072 7.072 0 0 1-2.696-2.157c-.71-.933-1.238-2.05-1.59-3.353-.35-1.3-.523-2.75-.523-4.342zm4.196 0c0 1.03.088 1.977.263 2.84.175.867.44 1.61.802 2.23.358.624.82 1.11 1.384 1.46.562.35 1.232.524 2.01.524 1.418 0 2.515-.554 3.294-1.662.776-1.107 1.165-2.905 1.165-5.392 0-.992-.083-1.915-.25-2.77-.163-.855-.42-1.603-.77-2.244-.35-.642-.808-1.142-1.37-1.503-.565-.36-1.255-.538-2.07-.538-1.42 0-2.518.566-3.294 1.703s-1.165 2.92-1.165 5.35z"/></g><g><path d="M626.863 46.768v-3.12H628.203c.254 0 .51-.003.772-.014.262-.01.52-.03.773-.057.252-.03.455-.063.61-.102.68-.156 1.265-.432 1.75-.83.485-.4.73-.938.73-1.62 0-.932-.298-1.568-.89-1.908-.593-.34-1.374-.51-2.346-.51-.874 0-1.69.117-2.447.35-.758.233-1.33.456-1.72.67l-1.02-3.382c.214-.116.52-.242.918-.38a15.584 15.584 0 0 1 3.048-.7 14.28 14.28 0 0 1 1.835-.115c.855 0 1.69.078 2.507.233a6.544 6.544 0 0 1 2.187.816c.64.388 1.155.908 1.545 1.56.388.65.583 1.48.583 2.49s-.268 1.944-.802 2.8c-.535.854-1.393 1.476-2.58 1.863v.147c1.263.252 2.25.797 2.96 1.632.71.836 1.063 1.952 1.063 3.35 0 1.11-.224 2.057-.67 2.844a5.84 5.84 0 0 1-1.764 1.938c-.728.506-1.57.88-2.52 1.122s-1.924.365-2.915.365c-1.282 0-2.448-.106-3.498-.32-1.05-.214-1.857-.466-2.42-.757l1.023-3.47c.45.215 1.092.434 1.93.657.837.224 1.83.336 2.982.336.428 0 .862-.054 1.3-.16.44-.108.834-.282 1.185-.526.35-.242.633-.557.848-.947.214-.388.32-.855.32-1.4 0-.912-.34-1.603-1.023-2.07-.683-.464-1.903-.717-3.66-.756a6.99 6.99 0 0 0-.527-.03h-1.404zM640.445 35.604a27.727 27.727 0 0 1 2.696-.365c.98-.087 1.958-.13 2.93-.13 1.01 0 2.027.082 3.047.247a7.613 7.613 0 0 1 2.755.99c.816.497 1.48 1.187 1.997 2.072.513.882.77 2.034.77 3.452 0 1.282-.224 2.366-.67 3.25a6.21 6.21 0 0 1-1.778 2.172c-.738.565-1.58.972-2.52 1.224-.943.253-1.92.38-2.93.38h-.466a16.008 16.008 0 0 1-1.356-.058 4.967 4.967 0 0 1-.48-.06v7.026h-3.993V35.604zm5.946 2.945c-.388 0-.756.013-1.107.042-.35.03-.63.063-.846.102v6.616c.078.02.195.04.35.06a9.132 9.132 0 0 0 1.005.057h.365c.525 0 1.044-.05 1.56-.146a3.86 3.86 0 0 0 1.383-.538c.41-.262.735-.626.977-1.093.243-.467.365-1.08.365-1.837 0-.64-.116-1.17-.35-1.59a2.865 2.865 0 0 0-.918-1.005 3.592 3.592 0 0 0-1.297-.524 7.612 7.612 0 0 0-1.486-.145zM669.01 44.495l.232-2.653h-.145l-1.37 2.74-7.608 11.222h-3.003V35.4h3.993v11.106l-.29 2.74h.173l1.428-2.827 7.61-11.018H673v20.403h-3.994v-11.31zM691.015 38.957h-5.947v16.847h-3.992V38.957H675.1V35.4h15.914v3.557zM693.085 35.4h12.097v3.557h-8.103v4.75h7.373v3.557h-7.374v4.985h8.248v3.554h-12.242V35.4zM719.55 38.957h-4.343a239.064 239.064 0 0 1-.26 5.042c-.1 1.515-.23 2.88-.395 4.094-.166 1.215-.384 2.288-.656 3.22-.272.935-.622 1.74-1.05 2.42a4.53 4.53 0 0 1-.918 1.107c-.34.293-.696.526-1.064.7a4.58 4.58 0 0 1-1.093.366c-.36.068-.695.102-1.005.102a5.2 5.2 0 0 1-1.123-.102 4.39 4.39 0 0 1-.89-.307l.438-3.44a2.147 2.147 0 0 0 .7.116c.31 0 .617-.077.918-.233.3-.156.558-.418.772-.787.292-.427.544-1.054.757-1.88.214-.825.403-1.88.57-3.162.165-1.283.296-2.814.394-4.59.097-1.78.166-3.853.205-6.224h12.037v20.403h-3.992V38.957zM740.42 55.804h-3.993V47.73l-2.1.554-4.255 7.52h-4.634l4.197-6.79 1.75-1.254a6.576 6.576 0 0 1-1.75-.715c-.544-.32-1.02-.733-1.428-1.237s-.73-1.104-.962-1.793c-.234-.69-.35-1.472-.35-2.346 0-1.225.214-2.256.64-3.09a5.36 5.36 0 0 1 1.777-2.027c.76-.514 1.663-.884 2.712-1.108a16.38 16.38 0 0 1 3.41-.335c.33 0 .71.01 1.136.03a31.316 31.316 0 0 1 2.666.233c.438.057.832.135 1.182.23v20.2zm-5.48-17.138c-.524 0-1.02.048-1.486.145a3.45 3.45 0 0 0-1.223.497c-.35.233-.627.553-.83.96-.205.41-.306.935-.306 1.576 0 .602.096 1.112.29 1.53.196.42.468.758.816 1.02.35.263.757.453 1.224.57.467.116.973.174 1.516.174h1.487v-6.325c-.216-.04-.433-.073-.656-.102-.222-.03-.5-.044-.83-.044z"/></g></g><g fill="#FFF"><path d="M109.826 13.95s-2.053 2.042-3.463 1.733c-1.41-.31-1.127-1.302-1.02-1.692.108-.388.497-.75.833-.992.336-.242.403-.698.254-.872-.147-.175-.684-.16-1.69.148-1.006.31-2.43 1.073-3.1 1.53-2.85 1.908-8.286 3.58-11.743 2.9 0 0-3.037-.783-2.316-3.008 1.113-3.43 6.534-5.446 9.835-6.094.705-.137 3.15-.173 2.078-1.245h.01c-.233-.185-.61-.365-1.084-.82-1.06-1.015.595-2.272 1.524-2.542 1.315-.38 3.095-.242 4.168-.018.79.165 1.828.514 2.728.86 2.062.785 4.22 2.888 3.567-.57v-.003c-.016-.058-.535-1.97.1-2.925.307-.46.723-.692 1.14-.743h.364c.447.054.86.306 1.1.69.245.394.307 1.026.308 1.688.003.94-.12 1.945-.02 2.434.09.426.858-.114.858-.114 3.47-2.746 5.457-4.07 6.896-4.41 1.438-.34 2.213.357 2.342.873.13.516.016.984-.484 1.533-.5.55-2.196 1.518-2.552 1.76-.263.18-.268.477-.254.617 0 0 .178.293 1.17.174 3.457-.412 11.027-.505 14.025 1.22 2.46 1.414 1.964 3.486-4.013 4.126-4.464.478-7.945.272-12.203-1.065 0 0-.676-.316-.782.106-.106.423.697.93.697.93l2.366 2.028s.464.507.36 1.056c-.107.55-.614.993-1.797 1.204-1.185.212-2.262-.36-2.262-.36s-2.24-1.182-2.725-1.394c-.486-.212-.993-.147-1.226 0-.232.148-.232.697-.232.697.21 7.783.12 15.675.47 23.413.04.838-.76 1.03-.76 1.03s-1.134.208-1.83.953c-.304.324-.597.88-.738 1.508-.68 3.035-.636 9.262-.34 11.786.405 3.452 2.15 4.64 2.15 4.64l-1.56.217s-3.14.404-4.6-.56c-1.463-.963-1.65-3.545-1.65-3.545s.064-8.86.094-11.1c.033-2.236.89-2.79.892-2.79.575-.79 1.596-.908 3.117-1.184 1.676-.305 1.79-2.097 1.79-2.097l-.24-16.506-.097-4.596c0-.002-.04-.82-.457-.607z"/><path d="M145.392 34.075c-2.22-2.733-6.12-4.805-10.683-5.126-4.565-.324-9.6.944-9.6.944s-.083-2.818.197-3.347c.278-.53.752-1.004 1.533-1.088 2.746-.296 6.765-.538 9.288.724 3.06 1.39 5.21.163 5.635-3.236.583-4.66-2.268-6.154-6.527-5.132-1.394.335-7.586 1.284-11.184 1.032a3.97 3.97 0 0 0-.157-.006s-5.358-.46-6.317-.525c-.96-.068-1.54 0-2.143.313-.602.312-.692 1.116-.692 1.116-.037 1.438-.22 3.7-.035 5.177.192 1.536 1.067 1.918 2.457 2.32 0 0 1.558.225 1.53 1.98-.03 1.756-.03 6.624-.03 6.624.166 1.982-1.397 2.33-2.943 2.434-1.67.114-3.184.34-3.72 1.134-.414.61-.81 1.87-.81 3.316 0 0-.46 4.983.083 8.677.553 3.755 1.54 4.97 3.086 5.485 1.126.376 7.733.962 8.982.568.864-.272 1.357-.862 1.357-.862s.512-.295 1.25.11c.736.405 2.41 1.4 3.956 1.4 1.546 0 3.91-.04 6.414-1.584 4.998-3.087 8.093-6.37 10.247-11.843 1.4-3.565 1.584-7.21-1.175-10.605zm-8.72 15.38c-.338.377-.735.583-1.32.49-.41-.064-.6-.402-.662-.88-.155-1.186.47-3.226.433-4.06-.033-.71-.21-1.292-.655-1.436-.534-.174-.837.57-.837.57s-.33 1.862-.693 2.585c-.36.722-.583 1.11-1 1.278-.883.353-1.162-3.205-1.194-3.64-.083-1.127-1.148-1.524-1.863-.918-.51.434-.754 1.355-.642 2.2.196 1.45 1.734 2.592 1.813 4.273.11 2.32-2.233 4.132-3.794 1.75-.514-.786-.97-1.95-1.18-3.39-.415-2.86.057-6.636.723-8.803.208-.677.454-1.296.742-1.837.633-1.19 1.466-2.015 2.534-2.3 1.555-.417 2.166.027 2.472.444.305.417.166 1.666.11 2.332-.103 1.24 1.6 1.718 1.972.695.283-.78.792-1.6 1.415-1.99 1.533-.95 2.382.794 2.404 2.182.017 1-.104 2.18-.096 2.972.014 1.292 1.05 1.635 1.163 3.11.08 1.022-1.1 3.54-1.845 4.372z"/></g></g></g></svg>