<svg version="1.1" xmlns="http://www.w3.org/2000/svg" xmlns:xlink="http://www.w3.org/1999/xlink" enable-background="new 301.417 24.406 77.083 36.583" xml:space="preserve" width="77" height="35"><rect id="backgroundrect" width="100%" height="100%" x="0" y="0" fill="none" stroke="none"/>


<g class="currentLayer" style=""><title>Layer 1</title><g id="svg_1" class="">
	<g id="svg_2">
		<g id="svg_3">
			<path fill="#FFFFFF" d="M14.15618896484375,35.137718200683594 l-0.16300000250339508,-0.4880000054836273 c0,0 -0.4880000054836273,-1.1390000581741333 -0.8949999809265137,-1.7089999914169312 c-0.32600000500679016,-0.40700000524520874 -1.0579999685287476,-0.4880000054836273 -1.3830000162124634,-0.4880000054836273 l-8.625,0 c-0.08100000023841858,0 -1.2209999561309814,-0.08100000023841858 -2.197000026702881,-1.3020000457763672 c-0.8140000104904175,-1.0579999685287476 -0.8949999809265137,-2.0339999198913574 -0.8949999809265137,-2.0339999198913574 v-29.049999237060547 h28.724000930786133 v29.049999237060547 c0,0.08100000023841858 -0.08100000023841858,1.0579999685287476 -0.8949999809265137,2.0339999198913574 c-0.9760000109672546,1.1390000581741333 -2.197000026702881,1.2209999561309814 -2.197000026702881,1.2209999561309814 l-8.869999885559082,0.08100000023841858 c-0.32499998807907104,0 -1.0579999685287476,0.08100000023841858 -1.465000033378601,0.4880000054836273 c-0.4880000054836273,0.4880000054836273 -0.9760000109672546,1.6269999742507935 -0.9760000109672546,1.7089999914169312 L14.15618896484375,35.137718200683594 zM0.4041748046875,0.4727191925048828 v28.64299964904785 c0,0 0.08100000023841858,0.8949999809265137 0.8140000104904175,1.7899999618530273 c0.8140000104904175,1.0579999685287476 1.871999979019165,1.1390000581741333 1.871999979019165,1.1390000581741333 l8.543999671936035,0.08100000023841858 c0.08100000023841858,0 1.1390000581741333,0 1.7089999914169312,0.5699999928474426 c0.32499998807907104,0.32499998807907104 0.6510000228881836,0.8949999809265137 0.8140000104904175,1.3830000162124634 c0.16300000250339508,-0.40700000524520874 0.4880000054836273,-0.9760000109672546 0.8140000104904175,-1.3830000162124634 c0.5699999928474426,-0.5699999928474426 1.6269999742507935,-0.5699999928474426 1.7089999914169312,-0.5699999928474426 l8.869999885559082,-0.08100000023841858 c0,0 1.0579999685287476,-0.08100000023841858 1.9529999494552612,-1.1390000581741333 c0.8140000104904175,-0.8949999809265137 0.8140000104904175,-1.7899999618530273 0.8140000104904175,-1.7899999618530273 V0.4727191925048828 H0.4041748046875 z" id="svg_4"/>
		</g>
	</g>
	<g id="svg_5">
		<g id="svg_6">
			<g id="svg_7">
				<g id="svg_8">
					<path fill="#FFFFFF" d="M21.1541748046875,24.070716857910156 l1.7899999618530273,2.0339999198913574 c0.08100000023841858,0 0.16300000250339508,0 0.24400000274181366,-0.08100000023841858 c1.7089999914169312,-0.4880000054836273 2.359999895095825,-2.8480000495910645 2.359999895095825,-2.8480000495910645 s-0.6510000228881836,0.7319999933242798 -2.359999895095825,0.7319999933242798 c-0.8949999809265137,0 -1.3830000162124634,0.5699999928474426 -1.3830000162124634,0.5699999928474426 s0.24400000274181366,-0.32499998807907104 0.8949999809265137,-0.9760000109672546 c0.6510000228881836,-0.6510000228881836 2.5230000019073486,-0.4880000054836273 3.9059998989105225,-1.9529999494552612 c0.8140000104904175,-0.8949999809265137 0.7319999933242798,-3.010999917984009 0.7319999933242798,-3.010999917984009 s-0.6510000228881836,0.8140000104904175 -2.115999937057495,1.465000033378601 c-1.0579999685287476,0.40700000524520874 -1.7089999914169312,1.7899999618530273 -1.7089999914169312,1.7899999618530273 s0.16300000250339508,-0.8949999809265137 1.2209999561309814,-1.871999979019165 s0.9760000109672546,-2.0339999198913574 0.8140000104904175,-2.7669999599456787 c-0.40700000524520874,-1.7089999914169312 -0.08100000023841858,-2.359999895095825 -0.08100000023841858,-2.359999895095825 s-0.8949999809265137,0.8140000104904175 -1.465000033378601,1.5460000038146973 s-0.6510000228881836,1.5460000038146973 -0.40700000524520874,3.1740000247955322 c0.24400000274181366,1.6269999742507935 -0.8140000104904175,3.1740000247955322 -0.8140000104904175,3.1740000247955322 s0.6510000228881836,-1.7899999618530273 0,-3.255000114440918 c-0.32600000500679016,-0.8140000104904175 -0.32600000500679016,-1.5460000038146973 -0.32600000500679016,-1.5460000038146973 s-0.08100000023841858,0.16300000250339508 -0.40700000524520874,0.8140000104904175 c-1.0579999685287476,1.871999979019165 -0.4880000054836273,3.1740000247955322 -0.40700000524520874,4.313000202178955 C21.47918701171875,23.33871841430664 21.31719970703125,23.74571990966797 21.1541748046875,24.070716857910156 z" id="svg_9"/>
				</g>
			</g>
			<g id="svg_10">
				<g id="svg_11">
					<path fill="#FFFFFF" d="M20.910186767578125,23.826717376708984 c0,-0.08100000023841858 0,-0.16300000250339508 0.08100000023841858,-0.24400000274181366 c0.24400000274181366,-1.3830000162124634 -0.40700000524520874,-2.7669999599456787 -0.40700000524520874,-2.7669999599456787 s-0.4880000054836273,0.7319999933242798 -0.9760000109672546,1.6269999742507935 L20.910186767578125,23.826717376708984 z" id="svg_12"/>
				</g>
			</g>
		</g>
		<g id="svg_13">
			<g id="svg_14">
				<g id="svg_15">
					<path fill="none" d="M11.877197265625,27.651718139648438 c-0.16300000250339508,0 -0.6510000228881836,-0.24400000274181366 -0.6510000228881836,-0.24400000274181366 l0.08100000023841858,-0.6510000228881836 c0,-0.08100000023841858 0.08100000023841858,-0.6510000228881836 0.08100000023841858,-0.6510000228881836 s0.16300000250339508,-0.32499998807907104 0.24400000274181366,-0.40700000524520874 c0.08100000023841858,-0.08100000023841858 0.40700000524520874,-0.32499998807907104 0.24400000274181366,-0.40700000524520874 c-0.16300000250339508,-0.08100000023841858 -0.4880000054836273,-0.16300000250339508 -0.5699999928474426,-0.16300000250339508 c-0.08100000023841858,0 -0.7319999933242798,-0.08100000023841858 -0.7319999933242798,-0.08100000023841858 l-0.24400000274181366,-0.16300000250339508 l-0.08100000023841858,-0.16300000250339508 h-0.4880000054836273 l-0.40700000524520874,-0.5699999928474426 c0,0 0,-0.32499998807907104 -0.08100000023841858,-0.40700000524520874 c0,-0.08100000023841858 -0.32600000500679016,-0.40700000524520874 -0.32600000500679016,-0.40700000524520874 s0,-0.32499998807907104 0,-0.40700000524520874 l-0.40700000524520874,-0.24400000274181366 l-0.16300000250339508,-0.16300000250339508 l-0.16300000250339508,-0.5699999928474426 l-0.24400000274181366,-0.40700000524520874 l-0.16300000250339508,-0.16300000250339508 l-0.08100000023841858,-0.32499998807907104 l-0.16300000250339508,-0.16300000250339508 c0,0 0,0 -0.08100000023841858,-0.16300000250339508 c-0.16300000250339508,-0.08100000023841858 -0.16300000250339508,-0.16300000250339508 -0.16300000250339508,-0.16300000250339508 v-0.08100000023841858 c-0.08100000023841858,-0.08100000023841858 -0.08100000023841858,-0.08100000023841858 -0.08100000023841858,-0.08100000023841858 l-0.16300000250339508,-7.40500020980835 c0,0 0.08100000023841858,0 0.08100000023841858,-0.08100000023841858 s0,-0.16300000250339508 0,-0.16300000250339508 s0.08100000023841858,0 0.16300000250339508,-0.08100000023841858 c0,-0.08100000023841858 0,-0.32499998807907104 0,-0.32499998807907104 l-0.16300000250339508,-0.16300000250339508 c0,0 0.08100000023841858,-0.08100000023841858 0.08100000023841858,-0.24400000274181366 c0,-0.16300000250339508 0.08100000023841858,-0.08100000023841858 0,-0.32499998807907104 c-0.08100000023841858,-0.24400000274181366 -0.16300000250339508,-0.24400000274181366 -0.16300000250339508,-0.24400000274181366 s0.08100000023841858,0 0.32499998807907104,0 c0.16300000250339508,0 0.7319999933242798,0.08100000023841858 0.8140000104904175,0 c0.08100000023841858,-0.08100000023841858 0.16300000250339508,-0.08100000023841858 0.16300000250339508,-0.08100000023841858 s-0.24400000274181366,0.08100000023841858 -0.4880000054836273,-0.08100000023841858 c-0.24400000274181366,-0.16300000250339508 -0.6510000228881836,-0.24400000274181366 -0.8949999809265137,-0.16300000250339508 c-0.24400000274181366,0 -0.40700000524520874,0.08100000023841858 -0.40700000524520874,0.08100000023841858 s-0.32499998807907104,-0.32499998807907104 -0.5699999928474426,-0.24400000274181366 c-0.24400000274181366,0.08100000023841858 -0.40700000524520874,0.24400000274181366 -0.6510000228881836,0.32499998807907104 c-0.24400000274181366,0 -0.32600000500679016,0.08100000023841858 -0.32600000500679016,0.08100000023841858 s0.08100000023841858,0.16300000250339508 0.4880000054836273,0.16300000250339508 s0.5699999928474426,-0.16300000250339508 0.6510000228881836,-0.16300000250339508 c0.08100000023841858,0 0.24400000274181366,0.08100000023841858 0.24400000274181366,0.08100000023841858 v0.08100000023841858 h-0.16300000250339508 v0.6510000228881836 c0,0 -0.08100000023841858,0 -0.08100000023841858,0.08100000023841858 s0,0.08100000023841858 0,0.08100000023841858 h-0.40700000524520874 c0,0 -0.16300000250339508,0 0,0.16300000250339508 c0.16300000250339508,0.16300000250339508 0.16300000250339508,0.08100000023841858 0.16300000250339508,0.24400000274181366 c0,0.16300000250339508 -0.08100000023841858,0.24400000274181366 0.08100000023841858,0.32499998807907104 c0.16300000250339508,0.08100000023841858 0.08100000023841858,0.08100000023841858 0.08100000023841858,0.08100000023841858 l-0.08100000023841858,7.323999881744385 c0,0 -0.08100000023841858,0.08100000023841858 -0.16300000250339508,0.08100000023841858 c0,0.08100000023841858 0,0.16300000250339508 0,0.16300000250339508 s-0.08100000023841858,0 -0.08100000023841858,0.08100000023841858 s0,0.16300000250339508 0,0.16300000250339508 l-0.08100000023841858,0 v0.24400000274181366 h-0.24400000274181366 H5.04217529296875 l-0.08100000023841858,0.32499998807907104 l0.08100000023841858,0.16300000250339508 l0.08100000023841858,0.24400000274181366 l-0.08100000023841858,0.32499998807907104 l-0.08100000023841858,0.08100000023841858 v0.4880000054836273 l-0.08100000023841858,0.32499998807907104 h-0.24400000274181366 v-0.08100000023841858 l-0.24400000274181366,-0.16300000250339508 c0,0 -0.16300000250339508,-0.08100000023841858 -0.16300000250339508,0 s-0.40700000524520874,1.0579999685287476 -0.40700000524520874,1.0579999685287476 l-0.16300000250339508,0.6510000228881836 c0,0 0,0.4880000054836273 0,0.5699999928474426 l-0.16300000250339508,0.24400000274181366 h-0.24400000274181366 l-0.16300000250339508,0.6510000228881836 c0,0 -0.16300000250339508,0.40700000524520874 -0.16300000250339508,0.4880000054836273 s0,0.6510000228881836 0,0.6510000228881836 l-0.08100000023841858,0.40700000524520874 l0.24400000274181366,0.24400000274181366 c0,0 0.16300000250339508,0.32499998807907104 0.16300000250339508,0.40700000524520874 s0.08100000023841858,0.32499998807907104 0.08100000023841858,0.32499998807907104 s0.24400000274181366,0.24400000274181366 0.32499998807907104,0.24400000274181366 c0.24400000274181366,0 0.40700000524520874,0.24400000274181366 0.40700000524520874,0.24400000274181366 l0.16300000250339508,0.08100000023841858 c0,0 0.16300000250339508,0.08100000023841858 0.24400000274181366,0.08100000023841858 c0.08100000023841858,0 7.567999839782715,0 7.567999839782715,0 l0.16300000250339508,-0.16300000250339508 l0.08100000023841858,-0.6510000228881836 l-0.08100000023841858,-0.4880000054836273 C12.20318603515625,27.89571762084961 12.121185302734375,27.73271942138672 11.877197265625,27.651718139648438 z" id="svg_16"/>
				</g>
			</g>
			<g id="svg_17">
				<g id="svg_18">
					<path fill="#FFFFFF" d="M27.2572021484375,30.987720489501953 l-4.230999946594238,-4.801000118255615 c-1.0579999685287476,0.24400000274181366 -1.871999979019165,0 -2.5230000019073486,0 c-0.7319999933242798,0 -0.9760000109672546,0.40700000524520874 -0.9760000109672546,0.40700000524520874 s1.2209999561309814,-0.08100000023841858 2.197000026702881,0.08100000023841858 c1.3020000457763672,0.32499998807907104 2.2780001163482666,1.5460000038146973 2.2780001163482666,1.5460000038146973 s-0.5699999928474426,-0.08100000023841858 -1.6269999742507935,0.24400000274181366 c-1.0579999685287476,0.32499998807907104 -2.8480000495910645,0.08100000023841858 -3.986999988555908,-0.4880000054836273 c-0.8949999809265137,-0.4880000054836273 -2.359999895095825,-0.24400000274181366 -3.255000114440918,0 s-1.5460000038146973,1.1390000581741333 -1.5460000038146973,1.1390000581741333 h-0.16300000250339508 c0,0 0,-0.9760000109672546 0.32600000500679016,-1.3830000162124634 c0.16300000250339508,-0.16300000250339508 0.32499998807907104,-0.32499998807907104 1.3020000457763672,-0.24400000274181366 c0,0 2.440999984741211,-0.08100000023841858 3.3359999656677246,-0.8140000104904175 c0.8949999809265137,-0.7319999933242798 0.7319999933242798,-2.7669999599456787 0.9760000109672546,-3.4179999828338623 c0.08100000023841858,-0.24400000274181366 0.24400000274181366,-0.4880000054836273 0.40700000524520874,-0.7319999933242798 L0.322174072265625,0.554718017578125 c0,0 -0.24400000274181366,26.121000289916992 0,28.39900016784668 c0.08100000023841858,0.6510000228881836 0.40700000524520874,1.7089999914169312 0.8949999809265137,2.2780001163482666 c0.6510000228881836,0.7319999933242798 1.465000033378601,0.9760000109672546 1.465000033378601,0.9760000109672546 s9.682999610900879,0.24400000274181366 10.253000259399414,0.4880000054836273 c0.5699999928474426,0.24400000274181366 1.2209999561309814,1.9529999494552612 1.2209999561309814,1.9529999494552612 s0.4880000054836273,-1.0579999685287476 0.8140000104904175,-1.5460000038146973 c0.32600000500679016,-0.4880000054836273 1.2209999561309814,-0.7319999933242798 1.2209999561309814,-0.7319999933242798 s9.276000022888184,0 10.333999633789062,-0.40700000524520874 C27.582183837890625,31.556716918945312 27.2572021484375,30.987720489501953 27.2572021484375,30.987720489501953 zM12.2841796875,29.034717559814453 l-0.16300000250339508,0.16300000250339508 h-7.567999839782715 l-0.24400000274181366,-0.08100000023841858 l-0.24400000274181366,-0.08100000023841858 c0,0 -0.24400000274181366,-0.24400000274181366 -0.32499998807907104,-0.24400000274181366 c-0.08100000023841858,0 -0.32600000500679016,-0.24400000274181366 -0.32600000500679016,-0.24400000274181366 s-0.08100000023841858,-0.24400000274181366 -0.08100000023841858,-0.32499998807907104 s-0.16300000250339508,-0.40700000524520874 -0.16300000250339508,-0.40700000524520874 l-0.24400000274181366,-0.24400000274181366 l0.08100000023841858,-0.40700000524520874 V26.51171875 l0.16300000250339508,-0.4880000054836273 l0.08100000023841858,-0.6510000228881836 h0.32600000500679016 l0.16300000250339508,-0.24400000274181366 v-0.5699999928474426 l0.16300000250339508,-0.6510000228881836 c0,0 0.32499998807907104,-0.9760000109672546 0.40700000524520874,-1.0579999685287476 c0,-0.08100000023841858 0.16300000250339508,0 0.16300000250339508,0 l0.24400000274181366,0.16300000250339508 v0.08100000023841858 h0.16300000250339508 l0.08100000023841858,-0.40700000524520874 v-0.40700000524520874 l0.16300000250339508,-0.08100000023841858 l0.08100000023841858,-0.32499998807907104 l-0.08100000023841858,-0.24400000274181366 l-0.16300000250339508,-0.16300000250339508 l0.08100000023841858,-0.24400000274181366 h0.40700000524520874 h0.24400000274181366 v-0.24400000274181366 l0.16300000250339508,-0.08100000023841858 c0,0 0,-0.08100000023841858 0,-0.16300000250339508 c0,-0.08100000023841858 0.08100000023841858,-0.08100000023841858 0.08100000023841858,-0.08100000023841858 s0,-0.08100000023841858 0,-0.16300000250339508 s0.16300000250339508,-0.08100000023841858 0.16300000250339508,-0.08100000023841858 l0.08100000023841858,-7.323999881744385 c0,0 0,-0.08100000023841858 -0.08100000023841858,-0.08100000023841858 c-0.08100000023841858,0 0,-0.08100000023841858 -0.08100000023841858,-0.32499998807907104 c0,-0.16300000250339508 -0.08100000023841858,-0.08100000023841858 -0.16300000250339508,-0.24400000274181366 c-0.16300000250339508,-0.16300000250339508 0,-0.16300000250339508 0,-0.16300000250339508 h0.32499998807907104 c0,0 0,0 0,-0.08100000023841858 s0.08100000023841858,-0.08100000023841858 0.08100000023841858,-0.08100000023841858 v-0.6510000228881836 h0.16300000250339508 v-0.08100000023841858 c0,0 -0.16300000250339508,-0.08100000023841858 -0.24400000274181366,-0.08100000023841858 c-0.08100000023841858,0 -0.32499998807907104,0.16300000250339508 -0.6510000228881836,0.16300000250339508 s-0.4880000054836273,-0.16300000250339508 -0.4880000054836273,-0.16300000250339508 s0.16300000250339508,-0.08100000023841858 0.32600000500679016,-0.08100000023841858 c0.24400000274181366,0 0.40700000524520874,-0.24400000274181366 0.6510000228881836,-0.32499998807907104 c0.24400000274181366,-0.08100000023841858 0.5699999928474426,0.16300000250339508 0.5699999928474426,0.16300000250339508 s0.16300000250339508,-0.08100000023841858 0.40700000524520874,-0.08100000023841858 c0.24400000274181366,0 0.6510000228881836,0.08100000023841858 0.8949999809265137,0.16300000250339508 c0.24400000274181366,0.16300000250339508 0.4880000054836273,0.08100000023841858 0.4880000054836273,0.08100000023841858 s-0.08100000023841858,0 -0.16300000250339508,0.08100000023841858 c-0.08100000023841858,0.08100000023841858 -0.5699999928474426,0.08100000023841858 -0.8140000104904175,0 c-0.16300000250339508,0 -0.32499998807907104,0 -0.32499998807907104,0 s0.08100000023841858,0.24400000274181366 0.24400000274181366,0.40700000524520874 s0,0.16300000250339508 0,0.32499998807907104 c0,0.16300000250339508 -0.08100000023841858,0.24400000274181366 -0.08100000023841858,0.24400000274181366 l0.08100000023841858,0.08100000023841858 c0,0 0,0.16300000250339508 0,0.32499998807907104 c0,0.08100000023841858 -0.16300000250339508,0.08100000023841858 -0.16300000250339508,0.08100000023841858 s0,0.08100000023841858 0,0.16300000250339508 s-0.08100000023841858,0.08100000023841858 -0.08100000023841858,0.08100000023841858 l0.16300000250339508,7.40500020980835 c0,0 0,0 0.08100000023841858,0.08100000023841858 s0,0.08100000023841858 0,0.08100000023841858 s0,0.08100000023841858 0.08100000023841858,0.24400000274181366 c0.08100000023841858,0.16300000250339508 0.08100000023841858,0.16300000250339508 0.08100000023841858,0.16300000250339508 l0.16300000250339508,0.16300000250339508 l0.08100000023841858,0.32499998807907104 l0.16300000250339508,0.16300000250339508 l0.24400000274181366,0.40700000524520874 l0.16300000250339508,0.5699999928474426 l0.16300000250339508,0.16300000250339508 c0,0 0.40700000524520874,0.16300000250339508 0.40700000524520874,0.24400000274181366 v0.40700000524520874 c0,0 0.32600000500679016,0.32499998807907104 0.32600000500679016,0.40700000524520874 s0.08100000023841858,0.40700000524520874 0.08100000023841858,0.40700000524520874 l0.40700000524520874,0.5699999928474426 l0.40700000524520874,0.08100000023841858 l0.08100000023841858,0.24400000274181366 l0.24400000274181366,0.16300000250339508 c0,0 0.6510000228881836,0 0.7319999933242798,0.08100000023841858 c0.08100000023841858,0 0.40700000524520874,0.08100000023841858 0.5699999928474426,0.16300000250339508 c0.16300000250339508,0.08100000023841858 -0.16300000250339508,0.32499998807907104 -0.24400000274181366,0.40700000524520874 c-0.08100000023841858,0.08100000023841858 -0.16300000250339508,0.40700000524520874 -0.24400000274181366,0.40700000524520874 l-0.08100000023841858,0.6510000228881836 c0,0.08100000023841858 -0.08100000023841858,0.6510000228881836 -0.08100000023841858,0.6510000228881836 s0.4880000054836273,0.24400000274181366 0.6510000228881836,0.24400000274181366 c0.16300000250339508,0 0.32499998807907104,0.24400000274181366 0.32499998807907104,0.24400000274181366 l0.16300000250339508,0.4880000054836273 L12.2841796875,29.034717559814453 z" id="svg_19"/>
				</g>
			</g>
			<g id="svg_20">
				<g id="svg_21">
					<path fill="#FFFFFF" d="M21.1541748046875,24.15271759033203 l-0.24400000274181366,-0.24400000274181366 c-0.24400000274181366,0.9760000109672546 -0.7319999933242798,1.465000033378601 -0.7319999933242798,1.465000033378601 S20.82818603515625,24.80371856689453 21.1541748046875,24.15271759033203 z" id="svg_22"/>
				</g>
			</g>
		</g>
		<g id="svg_23">
			<path fill="#FFFFFF" d="M24.897186279296875,10.725719451904297 l-2.6040000915527344,-0.8140000104904175 l-1.465000033378601,-2.115999937057495 c0.40700000524520874,-0.08100000023841858 0.7319999933242798,-0.40700000524520874 0.7319999933242798,-0.8140000104904175 c0,-0.40700000524520874 -0.24400000274181366,-0.7319999933242798 -0.6510000228881836,-0.8140000104904175 v-0.16300000250339508 c0.32499998807907104,-0.08100000023841858 0.6510000228881836,-0.32499998807907104 0.7319999933242798,-0.6510000228881836 h0.32600000500679016 h1.465000033378601 l0,0 l0,0 l0,0 l0,0 c0.32600000500679016,0 0.5699999928474426,-0.32499998807907104 0.5699999928474426,-0.7319999933242798 s-0.24400000274181366,-0.6510000228881836 -0.5699999928474426,-0.7319999933242798 l0,0 l0,0 l0,0 l0,0 l0,0 v-1.0579999685287476 l0,0 l0,0 l0,0 l0,0 l0,0 c0.32600000500679016,0 0.5699999928474426,-0.32499998807907104 0.5699999928474426,-0.7319999933242798 s-0.24400000274181366,-0.6510000228881836 -0.5699999928474426,-0.7319999933242798 l0,0 l0,0 l0,0 l0,0 h-1.465000033378601 h-3.4179999828338623 h-0.40700000524520874 l0,0 l0,0 l0,0 l0,0 c-0.32499998807907104,0 -0.5699999928474426,0.32499998807907104 -0.5699999928474426,0.7319999933242798 s0.24400000274181366,0.6510000228881836 0.5699999928474426,0.7319999933242798 l0,0 l0,0 l0,0 l0,0 l0,0 v1.0579999685287476 l0,0 l0,0 l0,0 l0,0 l0,0 c-0.32499998807907104,0 -0.5699999928474426,0.32499998807907104 -0.5699999928474426,0.7319999933242798 s0.24400000274181366,0.6510000228881836 0.5699999928474426,0.7319999933242798 l0,0 l0,0 l0,0 l0,0 h0.40700000524520874 h1.3830000162124634 c0.08100000023841858,0.32499998807907104 0.40700000524520874,0.5699999928474426 0.7319999933242798,0.6510000228881836 v0.32499998807907104 c-0.32499998807907104,0.08100000023841858 -0.6510000228881836,0.40700000524520874 -0.6510000228881836,0.8140000104904175 c0,0.40700000524520874 0.32600000500679016,0.7319999933242798 0.7319999933242798,0.8140000104904175 l-1.465000033378601,2.115999937057495 l-2.6040000915527344,0.8140000104904175 l1.6269999742507935,2.197000026702881 v2.7669999599456787 l2.6040000915527344,-0.8949999809265137 l2.6040000915527344,0.8949999809265137 v-2.7669999599456787 L24.897186279296875,10.725719451904297 zM20.17718505859375,5.355718612670898 h1.1390000581741333 c-0.08100000023841858,0.16300000250339508 -0.24400000274181366,0.32499998807907104 -0.40700000524520874,0.32499998807907104 l0,0 c0,-0.08100000023841858 -0.08100000023841858,-0.16300000250339508 -0.16300000250339508,-0.16300000250339508 c-0.08100000023841858,0 -0.16300000250339508,0.08100000023841858 -0.16300000250339508,0.16300000250339508 l0,0 C20.421173095703125,5.680719375610352 20.259185791015625,5.517719268798828 20.17718505859375,5.355718612670898 zM20.259185791015625,7.063716888427734 c0,-0.24400000274181366 0.16300000250339508,-0.40700000524520874 0.32600000500679016,-0.4880000054836273 c0,0.08100000023841858 0.08100000023841858,0.16300000250339508 0.16300000250339508,0.16300000250339508 c0.08100000023841858,0 0.16300000250339508,-0.08100000023841858 0.16300000250339508,-0.16300000250339508 c0.24400000274181366,0.08100000023841858 0.32499998807907104,0.24400000274181366 0.32499998807907104,0.4880000054836273 c0,0.24400000274181366 -0.24400000274181366,0.4880000054836273 -0.4880000054836273,0.4880000054836273 C20.503173828125,7.5527191162109375 20.259185791015625,7.307720184326172 20.259185791015625,7.063716888427734 z" id="svg_24"/>
		</g>
	</g>
</g><g id="svg_25" class="">
	<path fill="#FFFFFF" d="M35.053192138671875,0.9537181854248047 h-1.8899999856948853 v4.046000003814697 h-0.9589999914169312 v-4.900000095367432 h2.8489999771118164 V0.9537181854248047 z" id="svg_26"/>
	<path fill="#FFFFFF" d="M37.7271728515625,0.9537181854248047 h-1.0429999828338623 c-0.019999999552965164,0.4429999887943268 -0.03999999910593033,0.847000002861023 -0.06300000101327896,1.2109999656677246 c-0.023000000044703484,0.36399999260902405 -0.054999999701976776,0.6919999718666077 -0.0949999988079071,0.9829999804496765 c-0.039000000804662704,0.2919999957084656 -0.09200000017881393,0.550000011920929 -0.15700000524520874,0.7730000019073486 c-0.06499999761581421,0.2240000069141388 -0.14900000393390656,0.4180000126361847 -0.25200000405311584,0.5809999704360962 c-0.06499999761581421,0.10700000077486038 -0.13899999856948853,0.19599999487400055 -0.22100000083446503,0.26600000262260437 s-0.16699999570846558,0.12600000202655792 -0.2549999952316284,0.1679999977350235 c-0.08900000154972076,0.041999999433755875 -0.1770000010728836,0.07100000232458115 -0.2630000114440918,0.08699999749660492 c-0.08699999749660492,0.017000000923871994 -0.16699999570846558,0.024000000208616257 -0.24199999868869781,0.024000000208616257 c-0.10700000077486038,0 -0.19699999690055847,-0.00800000037997961 -0.27000001072883606,-0.024000000208616257 c-0.07199999690055847,-0.01600000075995922 -0.14399999380111694,-0.04100000113248825 -0.21299999952316284,-0.0729999989271164 l0.10400000214576721,-0.8259999752044678 c0.02800000086426735,0.008999999612569809 0.05700000002980232,0.017000000923871994 0.08399999886751175,0.020999999716877937 c0.02800000086426735,0.004999999888241291 0.05700000002980232,0.007000000216066837 0.08399999886751175,0.007000000216066837 c0.07500000298023224,0 0.14800000190734863,-0.01899999938905239 0.22100000083446503,-0.0560000017285347 c0.07199999690055847,-0.03799999877810478 0.1340000033378601,-0.10100000351667404 0.1860000044107437,-0.1889999955892563 c0.07000000029802322,-0.10300000011920929 0.13099999725818634,-0.2529999911785126 0.18199999630451202,-0.4519999921321869 c0.052000001072883606,-0.1979999989271164 0.09799999743700027,-0.4519999921321869 0.13699999451637268,-0.7599999904632568 c0.03999999910593033,-0.30799999833106995 0.07100000232458115,-0.675000011920929 0.0949999988079071,-1.1019999980926514 c0.023000000044703484,-0.4269999861717224 0.03999999910593033,-0.925000011920929 0.04899999871850014,-1.4950000047683716 h2.8919999599456787 v4.900000095367432 h-0.9589999914169312 V0.9537181854248047 z" id="svg_27"/>
	<path fill="#FFFFFF" d="M41.941192626953125,3.9147186279296875 h-1.5049999952316284 l-0.3709999918937683,1.0850000381469727 h-0.9589999914169312 l1.7640000581741333,-4.934999942779541 h0.7070000171661377 l1.7649999856948853,4.934999942779541 h-1.0089999437332153 L41.941192626953125,3.9147186279296875 zM40.681182861328125,3.1447181701660156 h1.0499999523162842 l-0.36399999260902405,-1.0920000076293945 l-0.1459999978542328,-0.7699999809265137 h-0.03500000014901161 l-0.1469999998807907,0.7770000100135803 L40.681182861328125,3.1447181701660156 z" id="svg_28"/>
	<path fill="#FFFFFF" d="M47.05718994140625,1.2407188415527344 c0,0.12099999934434891 -0.014999999664723873,0.24300000071525574 -0.04500000178813934,0.36399999260902405 c-0.029999999329447746,0.12200000137090683 -0.07999999821186066,0.23199999332427979 -0.14900000393390656,0.3330000042915344 c-0.07000000029802322,0.10100000351667404 -0.1599999964237213,0.1889999955892563 -0.2709999978542328,0.26600000262260437 c-0.11100000143051147,0.07699999958276749 -0.2460000067949295,0.1340000033378601 -0.40400001406669617,0.17100000381469727 v0.041999999433755875 c0.14000000059604645,0.023000000044703484 0.2720000147819519,0.06300000101327896 0.3970000147819519,0.11900000274181366 c0.125,0.0560000017285347 0.23399999737739563,0.13300000131130219 0.3269999921321869,0.23100000619888306 s0.16599999368190765,0.21699999272823334 0.2199999988079071,0.3569999933242798 c0.05299999937415123,0.14000000059604645 0.07999999821186066,0.3059999942779541 0.07999999821186066,0.4970000088214874 c0,0.25200000405311584 -0.05400000140070915,0.4699999988079071 -0.16099999845027924,0.6539999842643738 c-0.10700000077486038,0.1850000023841858 -0.25099998712539673,0.33500000834465027 -0.4309999942779541,0.4519999921321869 s-0.3840000033378601,0.2029999941587448 -0.6119999885559082,0.2590000033378601 c-0.2290000021457672,0.0560000017285347 -0.4650000035762787,0.08399999886751175 -0.7070000171661377,0.08399999886751175 c-0.07900000363588333,0 -0.1809999942779541,0 -0.3050000071525574,0 c-0.12300000339746475,0 -0.25699999928474426,-0.003000000026077032 -0.39800000190734863,-0.009999999776482582 c-0.14300000667572021,-0.007000000216066837 -0.28700000047683716,-0.017999999225139618 -0.4350000023841858,-0.03200000151991844 c-0.1459999978542328,-0.014000000432133675 -0.2809999883174896,-0.03500000014901161 -0.4020000100135803,-0.06300000101327896 v-4.829999923706055 c0.08900000154972076,-0.014000000432133675 0.1899999976158142,-0.02800000086426735 0.3050000071525574,-0.041999999433755875 c0.11400000005960464,-0.014000000432133675 0.23600000143051147,-0.02500000037252903 0.367000013589859,-0.03500000014901161 s0.26499998569488525,-0.017000000923871994 0.4020000100135803,-0.020999999716877937 c0.1379999965429306,-0.004999999888241291 0.27399998903274536,-0.007000000216066837 0.4099999964237213,-0.007000000216066837 c0.2290000021457672,0 0.45100000500679016,0.017999999225139618 0.6679999828338623,0.05299999937415123 s0.41100001335144043,0.09700000286102295 0.5809999704360962,0.1860000044107437 c0.17100000381469727,0.08900000154972076 0.3070000112056732,0.21199999749660492 0.4099999964237213,0.3709999918937683 C47.0072021484375,0.7977180480957031 47.05718994140625,0.9977188110351562 47.05718994140625,1.2407188415527344 zM45.0072021484375,2.1577186584472656 c0.06499999761581421,0 0.14100000262260437,-0.0020000000949949026 0.2280000001192093,-0.007000000216066837 c0.0860000029206276,-0.004000000189989805 0.15700000524520874,-0.010999999940395355 0.21400000154972076,-0.020999999716877937 c0.1770000010728836,-0.054999999701976776 0.33000001311302185,-0.13899999856948853 0.4580000042915344,-0.25 s0.19200000166893005,-0.25600001215934753 0.19200000166893005,-0.43700000643730164 c0,-0.11999999731779099 -0.023000000044703484,-0.21899999678134918 -0.0689999982714653,-0.2980000078678131 c-0.04699999839067459,-0.07800000160932541 -0.10899999737739563,-0.14100000262260437 -0.1860000044107437,-0.18700000643730164 c-0.07699999958276749,-0.04600000008940697 -0.16500000655651093,-0.07800000160932541 -0.2630000114440918,-0.09700000286102295 c-0.0989999994635582,-0.01899999938905239 -0.20100000500679016,-0.02800000086426735 -0.3089999854564667,-0.02800000086426735 c-0.12099999934434891,0 -0.2329999953508377,0.0020000000949949026 -0.335999995470047,0.007000000216066837 c-0.10300000011920929,0.004999999888241291 -0.18199999630451202,0.012000000104308128 -0.2370000034570694,0.020999999716877937 v1.2949999570846558 H45.0072021484375 zM45.3101806640625,4.264719009399414 c0.11400000005960464,0 0.22599999606609344,-0.014000000432133675 0.3330000042915344,-0.041999999433755875 c0.10700000077486038,-0.02800000086426735 0.2029999941587448,-0.07100000232458115 0.2849999964237213,-0.12800000607967377 c0.08299999684095383,-0.057999998331069946 0.14900000393390656,-0.12999999523162842 0.19900000095367432,-0.21799999475479126 c0.050999999046325684,-0.08799999952316284 0.07599999755620956,-0.19200000166893005 0.07599999755620956,-0.31200000643730164 c0,-0.15199999511241913 -0.029999999329447746,-0.2720000147819519 -0.09000000357627869,-0.36000001430511475 c-0.05999999865889549,-0.08699999749660492 -0.1379999965429306,-0.15600000321865082 -0.2329999953508377,-0.20399999618530273 c-0.09700000286102295,-0.04899999871850014 -0.20399999618530273,-0.07999999821186066 -0.3230000138282776,-0.09399999678134918 c-0.11900000274181366,-0.014000000432133675 -0.23800000548362732,-0.020999999716877937 -0.3569999933242798,-0.020999999716877937 h-0.5009999871253967 v1.3370000123977661 c0.02199999988079071,0.008999999612569809 0.05999999865889549,0.01600000075995922 0.10899999737739563,0.020999999716877937 c0.050999999046325684,0.004999999888241291 0.10400000214576721,0.00800000037997961 0.16099999845027924,0.009999999776482582 c0.057999998331069946,0.0020000000949949026 0.11699999868869781,0.004999999888241291 0.17900000512599945,0.007000000216066837 C45.211181640625,4.262718200683594 45.264190673828125,4.264719009399414 45.3101806640625,4.264719009399414 z" id="svg_29"/>
	<path fill="#FFFFFF" d="M50.648193359375,2.948719024658203 h-1.7920000553131104 v2.0510001182556152 h-0.9589999914169312 v-4.900000095367432 h0.9589999914169312 v1.9950000047683716 h1.7920000553131104 v-1.9950000047683716 h0.9589999914169312 v4.900000095367432 h-0.9589999914169312 V2.948719024658203 z" id="svg_30"/>
	<path fill="#FFFFFF" d="M52.301177978515625,2.5497188568115234 c0,-0.8159999847412109 0.18000000715255737,-1.4450000524520874 0.5389999747276306,-1.8860000371932983 s0.8730000257492065,-0.6620000004768372 1.5399999618530273,-0.6620000004768372 c0.35100001096725464,0 0.656000018119812,0.061000000685453415 0.9169999957084656,0.18199999630451202 c0.2619999945163727,0.12099999934434891 0.4790000021457672,0.2939999997615814 0.6510000228881836,0.5180000066757202 c0.17299999296665192,0.2240000069141388 0.3009999990463257,0.492000013589859 0.38499999046325684,0.8050000071525574 c0.08399999886751175,0.31299999356269836 0.12600000202655792,0.6610000133514404 0.12600000202655792,1.0429999828338623 c0,0.8169999718666077 -0.1809999942779541,1.4459999799728394 -0.5419999957084656,1.8869999647140503 c-0.3619999885559082,0.4410000145435333 -0.8740000128746033,0.6620000004768372 -1.5369999408721924,0.6620000004768372 c-0.3540000021457672,0 -0.6620000004768372,-0.061000000685453415 -0.9240000247955322,-0.18199999630451202 s-0.4779999852180481,-0.2939999997615814 -0.6470000147819519,-0.5180000066757202 s-0.2980000078678131,-0.492000013589859 -0.38199999928474426,-0.8050000071525574 C52.34320068359375,3.2797183990478516 52.301177978515625,2.9317188262939453 52.301177978515625,2.5497188568115234 zM53.309173583984375,2.5497188568115234 c0,0.24799999594688416 0.020999999716877937,0.4749999940395355 0.06300000101327896,0.6830000281333923 c0.041999999433755875,0.20800000429153442 0.10599999874830246,0.38600000739097595 0.19200000166893005,0.5360000133514404 c0.08699999749660492,0.14900000393390656 0.19699999690055847,0.26600000262260437 0.3330000042915344,0.3499999940395355 c0.13500000536441803,0.08399999886751175 0.29600000381469727,0.12600000202655792 0.4819999933242798,0.12600000202655792 c0.3409999907016754,0 0.6039999723434448,-0.13300000131130219 0.7910000085830688,-0.39899998903274536 c0.18700000643730164,-0.26600000262260437 0.2800000011920929,-0.6980000138282776 0.2800000011920929,-1.2949999570846558 c0,-0.23800000548362732 -0.019999999552965164,-0.45899999141693115 -0.05999999865889549,-0.6650000214576721 c-0.03999999910593033,-0.20499999821186066 -0.10199999809265137,-0.38499999046325684 -0.1860000044107437,-0.5389999747276306 c-0.08399999886751175,-0.15399999916553497 -0.19300000369548798,-0.27399998903274536 -0.32899999618530273,-0.3610000014305115 c-0.13500000536441803,-0.0860000029206276 -0.3009999990463257,-0.1289999932050705 -0.4970000088214874,-0.1289999932050705 c-0.3409999907016754,0 -0.6039999723434448,0.13699999451637268 -0.7910000085830688,0.4099999964237213 S53.309173583984375,1.9667186737060547 53.309173583984375,2.5497188568115234 z" id="svg_31"/>
	<path fill="#FFFFFF" d="M57.144195556640625,0.09971809387207031 h2.9049999713897705 v0.8539999723434448 h-1.9459999799728394 v1.1410000324249268 h1.7710000276565552 v0.8539999723434448 h-1.7710000276565552 v1.1970000267028809 h1.9809999465942383 v0.8539999723434448 h-2.940000057220459 V0.09971809387207031 z" id="svg_32"/>
	<path fill="#FFFFFF" d="M33.842193603515625,9.262718200683594 l0.14100000262260437,0.6370000243186951 h0.041999999433755875 l0.11100000143051147,-0.6579999923706055 l0.7350000143051147,-2.1419999599456787 h0.9869999885559082 l-1.3020000457763672,3.388000011444092 c-0.10400000214576721,0.26600000262260437 -0.20200000703334808,0.4970000088214874 -0.2980000078678131,0.6930000185966492 c-0.09600000083446503,0.19599999487400055 -0.1979999989271164,0.3580000102519989 -0.3089999854564667,0.4860000014305115 c-0.10899999737739563,0.12800000607967377 -0.23100000619888306,0.2240000069141388 -0.367000013589859,0.28700000047683716 c-0.13500000536441803,0.06300000101327896 -0.2939999997615814,0.09399999678134918 -0.47600001096725464,0.09399999678134918 c-0.15399999916553497,0 -0.27900001406669617,-0.009999999776482582 -0.375,-0.03099999949336052 c-0.09600000083446503,-0.020999999716877937 -0.20000000298023224,-0.06599999964237213 -0.31200000643730164,-0.13699999451637268 l0.24500000476837158,-0.7770000100135803 c0.07999999821186066,0.041999999433755875 0.1509999930858612,0.06800000369548798 0.21699999272823334,0.07699999958276749 s0.13600000739097595,0.014000000432133675 0.20999999344348907,0.014000000432133675 c0.2199999988079071,0 0.37400001287460327,-0.1720000058412552 0.46299999952316284,-0.5180000066757202 l-1.8339999914169312,-3.5769999027252197 h1.1269999742507935 L33.842193603515625,9.262718200683594 z" id="svg_33"/>
	<path fill="#FFFFFF" d="M38.853179931640625,7.9537200927734375 h-1.715000033378601 v4.046000003814697 h-0.9589999914169312 v-4.900000095367432 h3.632999897003174 v4.900000095367432 h-0.9589999914169312 V7.9537200927734375 z" id="svg_34"/>
	<path fill="#FFFFFF" d="M40.6531982421875,7.148719787597656 c0.19599999487400055,-0.03700000047683716 0.41200000047683716,-0.06599999964237213 0.6470000147819519,-0.08699999749660492 s0.4699999988079071,-0.03200000151991844 0.7039999961853027,-0.03200000151991844 c0.24199999868869781,0 0.4860000014305115,0.019999999552965164 0.7310000061988831,0.05999999865889549 c0.24400000274181366,0.03999999910593033 0.4650000035762787,0.11900000274181366 0.6610000133514404,0.23800000548362732 c0.19599999487400055,0.11900000274181366 0.35499998927116394,0.2849999964237213 0.4790000021457672,0.4970000088214874 s0.1860000044107437,0.48899999260902405 0.1860000044107437,0.8289999961853027 c0,0.30799999833106995 -0.05400000140070915,0.5680000185966492 -0.16099999845027924,0.781000018119812 s-0.25,0.38600000739097595 -0.4269999861717224,0.5210000276565552 c-0.17800000309944153,0.13500000536441803 -0.3799999952316284,0.2329999953508377 -0.6050000190734863,0.2939999997615814 c-0.22699999809265137,0.061000000685453415 -0.460999995470047,0.09099999815225601 -0.7039999961853027,0.09099999815225601 c-0.023000000044703484,0 -0.061000000685453415,0 -0.11100000143051147,0 c-0.052000001072883606,0 -0.10499999672174454,-0.0010000000474974513 -0.16099999845027924,-0.003000000026077032 c-0.05700000002980232,-0.0020000000949949026 -0.11100000143051147,-0.006000000052154064 -0.16500000655651093,-0.009999999776482582 c-0.05400000140070915,-0.004999999888241291 -0.09200000017881393,-0.008999999612569809 -0.11500000208616257,-0.014000000432133675 v1.687000036239624 h-0.9589999914169312 V7.148719787597656 zM42.0811767578125,7.855720520019531 c-0.09300000220537186,0 -0.18199999630451202,0.003000000026077032 -0.26600000262260437,0.010999999940395355 c-0.08399999886751175,0.007000000216066837 -0.1509999930858612,0.014999999664723873 -0.2029999941587448,0.024000000208616257 v1.5889999866485596 c0.01899999938905239,0.004999999888241291 0.04699999839067459,0.008999999612569809 0.08399999886751175,0.014000000432133675 c0.03700000047683716,0.004000000189989805 0.07699999958276749,0.00800000037997961 0.11900000274181366,0.009999999776482582 c0.041999999433755875,0.0020000000949949026 0.08299999684095383,0.003000000026077032 0.12200000137090683,0.003000000026077032 c0.03999999910593033,0 0.0689999982714653,0 0.08799999952316284,0 c0.12600000202655792,0 0.25099998712539673,-0.010999999940395355 0.37400001287460327,-0.03500000014901161 c0.12399999797344208,-0.023000000044703484 0.23499999940395355,-0.06599999964237213 0.3330000042915344,-0.12999999523162842 c0.09799999743700027,-0.06300000101327896 0.17599999904632568,-0.15000000596046448 0.23399999737739563,-0.2619999945163727 s0.08799999952316284,-0.2590000033378601 0.08799999952316284,-0.4410000145435333 c0,-0.15399999916553497 -0.02800000086426735,-0.2809999883174896 -0.08399999886751175,-0.38199999928474426 c-0.05700000002980232,-0.10000000149011612 -0.12999999523162842,-0.1809999942779541 -0.22100000083446503,-0.2409999966621399 s-0.19499999284744263,-0.10300000011920929 -0.31200000643730164,-0.12600000202655792 C42.321197509765625,7.866718292236328 42.20318603515625,7.855720520019531 42.0811767578125,7.855720520019531 z" id="svg_35"/>
	<path fill="#FFFFFF" d="M46.533172607421875,10.914718627929688 h-1.5049999952316284 l-0.3709999918937683,1.0850000381469727 h-0.9589999914169312 l1.7640000581741333,-4.934999942779541 h0.7070000171661377 l1.7649999856948853,4.934999942779541 h-1.0089999437332153 L46.533172607421875,10.914718627929688 zM45.273193359375,10.144718170166016 h1.0499999523162842 l-0.36399999260902405,-1.0920000076293945 l-0.1459999978542328,-0.7699999809265137 h-0.03500000014901161 l-0.1469999998807907,0.7770000100135803 L45.273193359375,10.144718170166016 z" id="svg_36"/>
	<path fill="#FFFFFF" d="M51.649200439453125,8.240718841552734 c0,0.12099999934434891 -0.014999999664723873,0.24300000071525574 -0.04500000178813934,0.36399999260902405 c-0.029999999329447746,0.12200000137090683 -0.07999999821186066,0.23199999332427979 -0.14900000393390656,0.3330000042915344 c-0.07000000029802322,0.10100000351667404 -0.1599999964237213,0.1889999955892563 -0.2709999978542328,0.26600000262260437 c-0.11100000143051147,0.07699999958276749 -0.2460000067949295,0.1340000033378601 -0.40400001406669617,0.17100000381469727 v0.041999999433755875 c0.14000000059604645,0.023000000044703484 0.2720000147819519,0.06300000101327896 0.3970000147819519,0.11900000274181366 c0.125,0.0560000017285347 0.23399999737739563,0.13300000131130219 0.3269999921321869,0.23100000619888306 s0.16599999368190765,0.21699999272823334 0.2199999988079071,0.3569999933242798 c0.05299999937415123,0.14000000059604645 0.07999999821186066,0.3059999942779541 0.07999999821186066,0.4970000088214874 c0,0.25200000405311584 -0.05400000140070915,0.4699999988079071 -0.16099999845027924,0.6539999842643738 c-0.10700000077486038,0.1850000023841858 -0.25099998712539673,0.33500000834465027 -0.4309999942779541,0.4519999921321869 s-0.3840000033378601,0.2029999941587448 -0.6119999885559082,0.2590000033378601 c-0.2290000021457672,0.0560000017285347 -0.4650000035762787,0.08399999886751175 -0.7070000171661377,0.08399999886751175 c-0.07900000363588333,0 -0.1809999942779541,0 -0.3050000071525574,0 c-0.12300000339746475,0 -0.25699999928474426,-0.003000000026077032 -0.39800000190734863,-0.009999999776482582 c-0.14300000667572021,-0.007000000216066837 -0.28700000047683716,-0.017999999225139618 -0.4350000023841858,-0.03200000151991844 c-0.1459999978542328,-0.014000000432133675 -0.2809999883174896,-0.03500000014901161 -0.4020000100135803,-0.06300000101327896 v-4.829999923706055 c0.08900000154972076,-0.014000000432133675 0.1899999976158142,-0.02800000086426735 0.3050000071525574,-0.041999999433755875 c0.11400000005960464,-0.014000000432133675 0.23600000143051147,-0.02500000037252903 0.367000013589859,-0.03500000014901161 s0.26499998569488525,-0.017000000923871994 0.4020000100135803,-0.020999999716877937 c0.1379999965429306,-0.004999999888241291 0.27399998903274536,-0.007000000216066837 0.4099999964237213,-0.007000000216066837 c0.2290000021457672,0 0.45100000500679016,0.017999999225139618 0.6679999828338623,0.05299999937415123 s0.41100001335144043,0.09700000286102295 0.5809999704360962,0.1860000044107437 c0.17100000381469727,0.08900000154972076 0.3070000112056732,0.21199999749660492 0.4099999964237213,0.3709999918937683 C51.598175048828125,7.797718048095703 51.649200439453125,7.997718811035156 51.649200439453125,8.240718841552734 zM49.598175048828125,9.157718658447266 c0.06499999761581421,0 0.14100000262260437,-0.0020000000949949026 0.2280000001192093,-0.007000000216066837 c0.0860000029206276,-0.004000000189989805 0.15700000524520874,-0.010999999940395355 0.21400000154972076,-0.020999999716877937 c0.1770000010728836,-0.054999999701976776 0.33000001311302185,-0.13899999856948853 0.4580000042915344,-0.25 s0.19200000166893005,-0.25600001215934753 0.19200000166893005,-0.43700000643730164 c0,-0.11999999731779099 -0.023000000044703484,-0.21899999678134918 -0.0689999982714653,-0.2980000078678131 c-0.04699999839067459,-0.07800000160932541 -0.10899999737739563,-0.14100000262260437 -0.1860000044107437,-0.18700000643730164 c-0.07699999958276749,-0.04600000008940697 -0.16500000655651093,-0.07800000160932541 -0.2630000114440918,-0.09700000286102295 c-0.0989999994635582,-0.01899999938905239 -0.20100000500679016,-0.02800000086426735 -0.3089999854564667,-0.02800000086426735 c-0.12099999934434891,0 -0.2329999953508377,0.0020000000949949026 -0.335999995470047,0.007000000216066837 c-0.10300000011920929,0.004999999888241291 -0.18199999630451202,0.012000000104308128 -0.2370000034570694,0.020999999716877937 v1.2949999570846558 H49.598175048828125 zM49.902191162109375,11.264717102050781 c0.11400000005960464,0 0.22599999606609344,-0.014000000432133675 0.3330000042915344,-0.041999999433755875 c0.10700000077486038,-0.02800000086426735 0.2029999941587448,-0.07100000232458115 0.2849999964237213,-0.12800000607967377 c0.08299999684095383,-0.057999998331069946 0.14900000393390656,-0.12999999523162842 0.19900000095367432,-0.21799999475479126 c0.050999999046325684,-0.08799999952316284 0.07599999755620956,-0.19200000166893005 0.07599999755620956,-0.31200000643730164 c0,-0.15199999511241913 -0.029999999329447746,-0.2720000147819519 -0.09000000357627869,-0.36000001430511475 c-0.05999999865889549,-0.08699999749660492 -0.1379999965429306,-0.15600000321865082 -0.2329999953508377,-0.20399999618530273 c-0.09700000286102295,-0.04899999871850014 -0.20399999618530273,-0.07999999821186066 -0.3230000138282776,-0.09399999678134918 c-0.11900000274181366,-0.014000000432133675 -0.23800000548362732,-0.020999999716877937 -0.3569999933242798,-0.020999999716877937 h-0.5009999871253967 v1.3370000123977661 c0.02199999988079071,0.008999999612569809 0.05999999865889549,0.01600000075995922 0.10899999737739563,0.020999999716877937 c0.050999999046325684,0.004999999888241291 0.10400000214576721,0.00800000037997961 0.16099999845027924,0.009999999776482582 c0.057999998331069946,0.0020000000949949026 0.11699999868869781,0.004999999888241291 0.17900000512599945,0.007000000216066837 C49.803192138671875,11.262718200683594 49.856201171875,11.264717102050781 49.902191162109375,11.264717102050781 z" id="svg_37"/>
	<path fill="#FFFFFF" d="M55.053192138671875,7.9537200927734375 h-1.0429999828338623 c-0.019999999552965164,0.4429999887943268 -0.03999999910593033,0.847000002861023 -0.06300000101327896,1.2109999656677246 c-0.023000000044703484,0.36399999260902405 -0.054999999701976776,0.6919999718666077 -0.0949999988079071,0.9829999804496765 c-0.039000000804662704,0.2919999957084656 -0.09200000017881393,0.550000011920929 -0.15700000524520874,0.7730000019073486 c-0.06499999761581421,0.2240000069141388 -0.14900000393390656,0.4180000126361847 -0.25200000405311584,0.5809999704360962 c-0.06499999761581421,0.10700000077486038 -0.13899999856948853,0.19599999487400055 -0.22100000083446503,0.26600000262260437 s-0.16699999570846558,0.12600000202655792 -0.2549999952316284,0.1679999977350235 c-0.08900000154972076,0.041999999433755875 -0.1770000010728836,0.07100000232458115 -0.2630000114440918,0.08699999749660492 c-0.08699999749660492,0.017000000923871994 -0.16699999570846558,0.024000000208616257 -0.24199999868869781,0.024000000208616257 c-0.10700000077486038,0 -0.19699999690055847,-0.00800000037997961 -0.27000001072883606,-0.024000000208616257 c-0.07199999690055847,-0.01600000075995922 -0.14399999380111694,-0.04100000113248825 -0.21299999952316284,-0.0729999989271164 l0.10400000214576721,-0.8259999752044678 c0.02800000086426735,0.008999999612569809 0.05700000002980232,0.017000000923871994 0.08399999886751175,0.020999999716877937 c0.02800000086426735,0.004999999888241291 0.05700000002980232,0.007000000216066837 0.08399999886751175,0.007000000216066837 c0.07500000298023224,0 0.14800000190734863,-0.01899999938905239 0.22100000083446503,-0.0560000017285347 c0.07199999690055847,-0.03799999877810478 0.1340000033378601,-0.10100000351667404 0.1860000044107437,-0.1889999955892563 c0.07000000029802322,-0.10300000011920929 0.13099999725818634,-0.2529999911785126 0.18199999630451202,-0.4519999921321869 c0.052000001072883606,-0.1979999989271164 0.09799999743700027,-0.4519999921321869 0.13699999451637268,-0.7599999904632568 c0.03999999910593033,-0.30799999833106995 0.07100000232458115,-0.675000011920929 0.0949999988079071,-1.1019999980926514 c0.023000000044703484,-0.4269999861717224 0.03999999910593033,-0.925000011920929 0.04899999871850014,-1.4950000047683716 h2.8919999599456787 v4.900000095367432 h-0.9589999914169312 V7.9537200927734375 z" id="svg_38"/>
	<path fill="#FFFFFF" d="M56.850189208984375,7.099720001220703 h2.9049999713897705 v0.8539999723434448 h-1.9459999799728394 v1.1410000324249268 h1.7710000276565552 v0.8539999723434448 h-1.7710000276565552 v1.1970000267028809 h1.9809999465942383 v0.8539999723434448 h-2.940000057220459 V7.099720001220703 z" id="svg_39"/>
	<path fill="#FFFFFF" d="M63.256195068359375,9.948719024658203 h-1.7920000553131104 v2.0510001182556152 h-0.9589999914169312 v-4.900000095367432 h0.9589999914169312 v1.9950000047683716 h1.7920000553131104 v-1.9950000047683716 h0.9589999914169312 v4.900000095367432 h-0.9589999914169312 V9.948719024658203 z" id="svg_40"/>
	<path fill="#FFFFFF" d="M67.91818237304688,9.28371810913086 l0.0560000017285347,-0.6370000243186951 h-0.03500000014901161 l-0.32899999618530273,0.6579999923706055 l-1.8270000219345093,2.694999933242798 h-0.7210000157356262 v-4.900000095367432 h0.9589999914169312 v2.6670000553131104 l-0.07000000029802322,0.6579999923706055 h0.041999999433755875 l0.3440000116825104,-0.6790000200271606 l1.8270000219345093,-2.6459999084472656 h0.7139999866485596 v4.900000095367432 h-0.9589999914169312 V9.28371810913086 z" id="svg_41"/>
	<path fill="#FFFFFF" d="M69.72317504882812,7.099720001220703 h2.9049999713897705 v0.8539999723434448 h-1.9459999799728394 v1.1410000324249268 h1.7710000276565552 v0.8539999723434448 h-1.7710000276565552 v1.1970000267028809 h1.9809999465942383 v0.8539999723434448 h-2.940000057220459 V7.099720001220703 z" id="svg_42"/>
	<path fill="#FFFFFF" d="M33.415191650390625,16.906719207763672 h-0.25200000405311584 v2.0920000076293945 h-0.9589999914169312 v-4.89900016784668 h0.9589999914169312 v2.1700000762939453 l0.2240000069141388,-0.09799999743700027 l1.3519999980926514,-2.072000026702881 h1.0920000076293945 l-1.4279999732971191,2.058000087738037 l-0.3779999911785126,0.26600000262260437 l0.3919999897480011,0.27300000190734863 l1.63100004196167,2.302999973297119 h-1.1829999685287476 L33.415191650390625,16.906719207763672 z" id="svg_43"/>
	<path fill="#FFFFFF" d="M37.936187744140625,16.262718200683594 l0.14100000262260437,0.6370000243186951 h0.041999999433755875 l0.11100000143051147,-0.6579999923706055 l0.7350000143051147,-2.1419999599456787 h0.9869999885559082 l-1.3020000457763672,3.388000011444092 c-0.10400000214576721,0.26600000262260437 -0.20200000703334808,0.4970000088214874 -0.2980000078678131,0.6930000185966492 c-0.09600000083446503,0.19499999284744263 -0.1979999989271164,0.3569999933242798 -0.3089999854564667,0.4860000014305115 c-0.10899999737739563,0.12800000607967377 -0.23100000619888306,0.2240000069141388 -0.367000013589859,0.28700000047683716 c-0.13500000536441803,0.06300000101327896 -0.2939999997615814,0.09399999678134918 -0.47600001096725464,0.09399999678134918 c-0.15399999916553497,0 -0.27900001406669617,-0.009999999776482582 -0.375,-0.03099999949336052 c-0.09600000083446503,-0.020999999716877937 -0.19900000095367432,-0.06599999964237213 -0.31200000643730164,-0.13699999451637268 l0.24500000476837158,-0.7760000228881836 c0.07900000363588333,0.041999999433755875 0.1509999930858612,0.06700000166893005 0.21699999272823334,0.07699999958276749 c0.06499999761581421,0.008999999612569809 0.13600000739097595,0.014000000432133675 0.20999999344348907,0.014000000432133675 c0.2199999988079071,0 0.37400001287460327,-0.17299999296665192 0.46299999952316284,-0.5189999938011169 l-1.8350000381469727,-3.5759999752044678 h1.128000020980835 L37.936187744140625,16.262718200683594 z" id="svg_44"/>
	<path fill="#FFFFFF" d="M42.628173828125,14.953720092773438 h-1.0429999828338623 c-0.019999999552965164,0.4429999887943268 -0.03999999910593033,0.847000002861023 -0.06300000101327896,1.2109999656677246 c-0.023000000044703484,0.36399999260902405 -0.054999999701976776,0.6919999718666077 -0.0949999988079071,0.9829999804496765 c-0.039000000804662704,0.2919999957084656 -0.09200000017881393,0.550000011920929 -0.15700000524520874,0.7730000019073486 c-0.06499999761581421,0.22499999403953552 -0.14900000393390656,0.4180000126361847 -0.25200000405311584,0.5809999704360962 c-0.06499999761581421,0.10700000077486038 -0.13899999856948853,0.19599999487400055 -0.22100000083446503,0.2669999897480011 c-0.0820000022649765,0.0689999982714653 -0.16699999570846558,0.12600000202655792 -0.2549999952316284,0.1679999977350235 c-0.08900000154972076,0.041999999433755875 -0.1770000010728836,0.07100000232458115 -0.2630000114440918,0.08699999749660492 c-0.08699999749660492,0.017000000923871994 -0.16699999570846558,0.024000000208616257 -0.24199999868869781,0.024000000208616257 c-0.10700000077486038,0 -0.19699999690055847,-0.00800000037997961 -0.27000001072883606,-0.024000000208616257 c-0.07199999690055847,-0.01600000075995922 -0.14399999380111694,-0.03999999910593033 -0.21299999952316284,-0.0729999989271164 l0.10400000214576721,-0.8259999752044678 c0.02800000086426735,0.009999999776482582 0.05700000002980232,0.017000000923871994 0.08399999886751175,0.020999999716877937 c0.02800000086426735,0.004999999888241291 0.05700000002980232,0.007000000216066837 0.08399999886751175,0.007000000216066837 c0.07500000298023224,0 0.14800000190734863,-0.01899999938905239 0.22100000083446503,-0.0560000017285347 c0.07199999690055847,-0.03799999877810478 0.1340000033378601,-0.10100000351667404 0.1860000044107437,-0.1889999955892563 c0.07000000029802322,-0.10300000011920929 0.13099999725818634,-0.2529999911785126 0.18199999630451202,-0.45100000500679016 c0.052000001072883606,-0.1979999989271164 0.09799999743700027,-0.4519999921321869 0.13699999451637268,-0.7599999904632568 c0.03999999910593033,-0.30799999833106995 0.07100000232458115,-0.675000011920929 0.0949999988079071,-1.1019999980926514 c0.023000000044703484,-0.4269999861717224 0.03999999910593033,-0.925000011920929 0.04899999871850014,-1.4950000047683716 h2.8919999599456787 v4.89900016784668 h-0.9589999914169312 V14.953720092773438 z" id="svg_45"/>
	<path fill="#FFFFFF" d="M44.426177978515625,14.099720001220703 h0.9589999914169312 v1.7569999694824219 c0.023000000044703484,-0.004000000189989805 0.06199999898672104,-0.009999999776482582 0.11500000208616257,-0.017999999225139618 c0.05400000140070915,-0.007000000216066837 0.1120000034570694,-0.013000000268220901 0.17599999904632568,-0.017999999225139618 c0.06300000101327896,-0.004000000189989805 0.12700000405311584,-0.008999999612569809 0.19200000166893005,-0.014000000432133675 c0.06499999761581421,-0.004999999888241291 0.12600000202655792,-0.007000000216066837 0.18199999630451202,-0.007000000216066837 c0.2290000021457672,0 0.44999998807907104,0.023000000044703484 0.6650000214576721,0.07000000029802322 c0.2150000035762787,0.04600000008940697 0.4050000011920929,0.1289999932050705 0.5699999928474426,0.24899999797344208 c0.16599999368190765,0.11900000274181366 0.2980000078678131,0.2800000011920929 0.3959999978542328,0.4830000102519989 c0.0989999994635582,0.2029999941587448 0.1469999998807907,0.46000000834465027 0.1469999998807907,0.7730000019073486 c0,0.5609999895095825 -0.17399999499320984,0.9819999933242798 -0.5210000276565552,1.2680000066757202 c-0.3479999899864197,0.2840000092983246 -0.8460000157356262,0.4269999861717224 -1.4950000047683716,0.4269999861717224 c-0.06499999761581421,0 -0.15199999511241913,-0.0010000000474974513 -0.2619999945163727,-0.004000000189989805 c-0.10999999940395355,-0.0020000000949949026 -0.23000000417232513,-0.00800000037997961 -0.3610000014305115,-0.017999999225139618 c-0.12999999523162842,-0.008999999612569809 -0.2619999945163727,-0.020999999716877937 -0.3959999978542328,-0.03400000184774399 c-0.13300000131130219,-0.014999999664723873 -0.2549999952316284,-0.03500000014901161 -0.367000013589859,-0.06300000101327896 V14.099720001220703 zM45.861175537109375,18.214717864990234 c0.12999999523162842,0 0.2540000081062317,-0.013000000268220901 0.3700000047683716,-0.03799999877810478 c0.11699999868869781,-0.02500000037252903 0.2199999988079071,-0.07000000029802322 0.3089999854564667,-0.13300000131130219 c0.08900000154972076,-0.06300000101327896 0.15700000524520874,-0.1459999978542328 0.20600000023841858,-0.24899999797344208 c0.04899999871850014,-0.10300000011920929 0.07400000095367432,-0.2290000021457672 0.07400000095367432,-0.3779999911785126 c0,-0.15800000727176666 -0.027000000700354576,-0.2879999876022339 -0.08100000023841858,-0.3889999985694885 c-0.05400000140070915,-0.10000000149011612 -0.12399999797344208,-0.17800000309944153 -0.20999999344348907,-0.23399999737739563 s-0.18799999356269836,-0.09300000220537186 -0.3050000071525574,-0.1120000034570694 c-0.11599999666213989,-0.01899999938905239 -0.2370000034570694,-0.02800000086426735 -0.3630000054836273,-0.02800000086426735 c-0.032999999821186066,0 -0.0729999989271164,0.0020000000949949026 -0.11900000274181366,0.007000000216066837 c-0.04699999839067459,0.004000000189989805 -0.09399999678134918,0.008999999612569809 -0.14100000262260437,0.014000000432133675 c-0.04699999839067459,0.004999999888241291 -0.09000000357627869,0.010999999940395355 -0.1289999932050705,0.017999999225139618 c-0.03999999910593033,0.007000000216066837 -0.0689999982714653,0.013000000268220901 -0.08799999952316284,0.017999999225139618 v1.4620000123977661 c0.052000001072883606,0.014999999664723873 0.11999999731779099,0.02500000037252903 0.2070000022649765,0.03200000151991844 C45.678192138671875,18.211719512939453 45.767181396484375,18.214717864990234 45.861175537109375,18.214717864990234 z" id="svg_46"/>
	<path fill="#FFFFFF" d="M51.12518310546875,14.953720092773438 h-1.4290000200271606 v4.045000076293945 h-0.9589999914169312 v-4.045000076293945 h-1.434999942779541 v-0.8539999723434448 h3.822000026702881 V14.953720092773438 z" id="svg_47"/>
	<path fill="#FFFFFF" d="M53.428192138671875,16.262718200683594 l0.14100000262260437,0.6370000243186951 h0.041999999433755875 l0.11100000143051147,-0.6579999923706055 l0.7350000143051147,-2.1419999599456787 h0.9869999885559082 l-1.3020000457763672,3.388000011444092 c-0.10400000214576721,0.26600000262260437 -0.20200000703334808,0.4970000088214874 -0.2980000078678131,0.6930000185966492 c-0.09600000083446503,0.19499999284744263 -0.1979999989271164,0.3569999933242798 -0.3089999854564667,0.4860000014305115 c-0.10899999737739563,0.12800000607967377 -0.23100000619888306,0.2240000069141388 -0.367000013589859,0.28700000047683716 c-0.13500000536441803,0.06300000101327896 -0.2939999997615814,0.09399999678134918 -0.47600001096725464,0.09399999678134918 c-0.15399999916553497,0 -0.27900001406669617,-0.009999999776482582 -0.375,-0.03099999949336052 c-0.09600000083446503,-0.020999999716877937 -0.19900000095367432,-0.06599999964237213 -0.31200000643730164,-0.13699999451637268 l0.24500000476837158,-0.7760000228881836 c0.07900000363588333,0.041999999433755875 0.1509999930858612,0.06700000166893005 0.21699999272823334,0.07699999958276749 c0.06499999761581421,0.008999999612569809 0.13600000739097595,0.014000000432133675 0.20999999344348907,0.014000000432133675 c0.2199999988079071,0 0.37400001287460327,-0.17299999296665192 0.46299999952316284,-0.5189999938011169 l-1.8350000381469727,-3.5759999752044678 h1.128000020980835 L53.428192138671875,16.262718200683594 z" id="svg_48"/>
	<path fill="#FFFFFF" d="M55.76519775390625,14.148719787597656 c0.19599999487400055,-0.03700000047683716 0.41200000047683716,-0.06599999964237213 0.6470000147819519,-0.08699999749660492 s0.4699999988079071,-0.03200000151991844 0.7039999961853027,-0.03200000151991844 c0.24199999868869781,0 0.4860000014305115,0.019999999552965164 0.7310000061988831,0.05999999865889549 c0.24400000274181366,0.03999999910593033 0.4650000035762787,0.11900000274181366 0.6610000133514404,0.23800000548362732 c0.19599999487400055,0.11900000274181366 0.35499998927116394,0.2849999964237213 0.4790000021457672,0.4970000088214874 s0.1860000044107437,0.48899999260902405 0.1860000044107437,0.8289999961853027 c0,0.30799999833106995 -0.05400000140070915,0.5680000185966492 -0.16099999845027924,0.781000018119812 s-0.25,0.38600000739097595 -0.4269999861717224,0.5210000276565552 c-0.17800000309944153,0.13500000536441803 -0.3799999952316284,0.2329999953508377 -0.6050000190734863,0.2930000126361847 c-0.22699999809265137,0.061000000685453415 -0.460999995470047,0.09099999815225601 -0.7039999961853027,0.09099999815225601 c-0.023000000044703484,0 -0.061000000685453415,0 -0.11100000143051147,0 c-0.052000001072883606,0 -0.10499999672174454,-0.0010000000474974513 -0.16099999845027924,-0.003000000026077032 c-0.05700000002980232,-0.003000000026077032 -0.11100000143051147,-0.006000000052154064 -0.16500000655651093,-0.010999999940395355 s-0.09200000017881393,-0.008999999612569809 -0.11500000208616257,-0.014000000432133675 v1.687000036239624 h-0.9589999914169312 V14.148719787597656 zM57.19317626953125,14.855720520019531 c-0.09300000220537186,0 -0.18199999630451202,0.003000000026077032 -0.26600000262260437,0.010999999940395355 c-0.08399999886751175,0.007000000216066837 -0.1509999930858612,0.014999999664723873 -0.2029999941587448,0.024000000208616257 v1.5889999866485596 c0.01899999938905239,0.004999999888241291 0.04699999839067459,0.008999999612569809 0.08399999886751175,0.014000000432133675 c0.03700000047683716,0.004000000189989805 0.07699999958276749,0.00800000037997961 0.11900000274181366,0.009999999776482582 c0.041999999433755875,0.0020000000949949026 0.08299999684095383,0.003000000026077032 0.12200000137090683,0.003000000026077032 c0.03999999910593033,0 0.0689999982714653,0 0.08799999952316284,0 c0.12600000202655792,0 0.25099998712539673,-0.010999999940395355 0.37400001287460327,-0.03500000014901161 c0.12399999797344208,-0.023000000044703484 0.23499999940395355,-0.06599999964237213 0.3330000042915344,-0.12999999523162842 c0.09799999743700027,-0.06300000101327896 0.17599999904632568,-0.15000000596046448 0.23399999737739563,-0.2619999945163727 s0.08799999952316284,-0.2590000033378601 0.08799999952316284,-0.4410000145435333 c0,-0.15399999916553497 -0.02800000086426735,-0.2809999883174896 -0.08399999886751175,-0.38199999928474426 c-0.05700000002980232,-0.10000000149011612 -0.12999999523162842,-0.1809999942779541 -0.22100000083446503,-0.2409999966621399 s-0.19499999284744263,-0.10300000011920929 -0.31200000643730164,-0.12600000202655792 C57.433197021484375,14.866718292236328 57.315185546875,14.855720520019531 57.19317626953125,14.855720520019531 z" id="svg_49"/>
	<path fill="#FFFFFF" d="M59.769195556640625,14.099720001220703 h0.9589999914169312 v1.7569999694824219 c0.052000001072883606,-0.008999999612569809 0.13300000131130219,-0.020999999716877937 0.24500000476837158,-0.03500000014901161 c0.1120000034570694,-0.014000000432133675 0.22200000286102295,-0.020999999716877937 0.32899999618530273,-0.020999999716877937 c0.2329999953508377,0 0.4560000002384186,0.023000000044703484 0.6679999828338623,0.07000000029802322 c0.21299999952316284,0.04600000008940697 0.39800000190734863,0.1289999932050705 0.5569999814033508,0.24899999797344208 c0.1589999943971634,0.11900000274181366 0.2849999964237213,0.2800000011920929 0.3779999911785126,0.4830000102519989 c0.09399999678134918,0.2029999941587448 0.14100000262260437,0.4580000042915344 0.14100000262260437,0.765999972820282 c0,0.5690000057220459 -0.16599999368190765,0.9950000047683716 -0.4970000088214874,1.2769999504089355 c-0.3319999873638153,0.28200000524520874 -0.8240000009536743,0.42399999499320984 -1.4780000448226929,0.42399999499320984 c-0.06499999761581421,0 -0.14900000393390656,-0.0010000000474974513 -0.25200000405311584,-0.004000000189989805 c-0.10300000011920929,-0.0020000000949949026 -0.21299999952316284,-0.00800000037997961 -0.3319999873638153,-0.017999999225139618 c-0.11900000274181366,-0.008999999612569809 -0.2409999966621399,-0.020999999716877937 -0.36800000071525574,-0.03400000184774399 c-0.12600000202655792,-0.014999999664723873 -0.24199999868869781,-0.03500000014901161 -0.3499999940395355,-0.06300000101327896 V14.099720001220703 zM61.14117431640625,18.214717864990234 c0.26600000262260437,0 0.48100000619888306,-0.06199999898672104 0.6470000147819519,-0.1860000044107437 c0.16599999368190765,-0.12300000339746475 0.24899999797344208,-0.33000001311302185 0.24899999797344208,-0.6190000176429749 c0,-0.15399999916553497 -0.023000000044703484,-0.2800000011920929 -0.07000000029802322,-0.3779999911785126 s-0.10999999940395355,-0.17499999701976776 -0.1889999955892563,-0.23100000619888306 c-0.07900000363588333,-0.0560000017285347 -0.17299999296665192,-0.09399999678134918 -0.27900001406669617,-0.11500000208616257 c-0.10700000077486038,-0.020999999716877937 -0.22499999403953552,-0.03200000151991844 -0.35100001096725464,-0.03200000151991844 c-0.06499999761581421,0 -0.14300000667572021,0.006000000052154064 -0.23000000417232513,0.017999999225139618 c-0.08900000154972076,0.012000000104308128 -0.15199999511241913,0.024000000208616257 -0.1889999955892563,0.039000000804662704 v1.4620000123977661 c0.052000001072883606,0.014999999664723873 0.11299999803304672,0.02500000037252903 0.1860000044107437,0.03200000151991844 S61.06219482421875,18.214717864990234 61.14117431640625,18.214717864990234 zM63.550201416015625,14.099720001220703 h0.9589999914169312 v4.89900016784668 h-0.9589999914169312 V14.099720001220703 z" id="svg_50"/>
	<path fill="#FFFFFF" d="M35.053192138671875,21.952720642089844 h-1.8899999856948853 v4.046000003814697 h-0.9589999914169312 v-4.89900016784668 h2.8489999771118164 V21.952720642089844 z" id="svg_51"/>
	<path fill="#FFFFFF" d="M35.108184814453125,23.548717498779297 c0,-0.8159999847412109 0.18000000715255737,-1.4450000524520874 0.5389999747276306,-1.8860000371932983 c0.35899999737739563,-0.4410000145435333 0.8730000257492065,-0.6620000004768372 1.5399999618530273,-0.6620000004768372 c0.35100001096725464,0 0.656000018119812,0.061000000685453415 0.9169999957084656,0.18299999833106995 c0.2619999945163727,0.12099999934434891 0.4790000021457672,0.2939999997615814 0.6510000228881836,0.5180000066757202 s0.3009999990463257,0.492000013589859 0.38499999046325684,0.8050000071525574 c0.08399999886751175,0.31299999356269836 0.12600000202655792,0.6610000133514404 0.12600000202655792,1.0429999828338623 c0,0.8169999718666077 -0.1809999942779541,1.4459999799728394 -0.5419999957084656,1.8869999647140503 c-0.3619999885559082,0.4410000145435333 -0.8740000128746033,0.6620000004768372 -1.5369999408721924,0.6620000004768372 c-0.3540000021457672,0 -0.6620000004768372,-0.06199999898672104 -0.9240000247955322,-0.18299999833106995 s-0.4779999852180481,-0.2939999997615814 -0.6470000147819519,-0.5180000066757202 c-0.17000000178813934,-0.22499999403953552 -0.2980000078678131,-0.492000013589859 -0.38199999928474426,-0.8059999942779541 C35.150177001953125,24.279720306396484 35.108184814453125,23.931716918945312 35.108184814453125,23.548717498779297 zM36.1171875,23.548717498779297 c0,0.24799999594688416 0.020999999716877937,0.47600001096725464 0.06300000101327896,0.6830000281333923 c0.041999999433755875,0.20800000429153442 0.10599999874830246,0.3869999945163727 0.19200000166893005,0.5360000133514404 c0.08699999749660492,0.14900000393390656 0.19699999690055847,0.26600000262260437 0.3330000042915344,0.3499999940395355 c0.13500000536441803,0.08399999886751175 0.29600000381469727,0.12600000202655792 0.4819999933242798,0.12600000202655792 c0.3409999907016754,0 0.6039999723434448,-0.13300000131130219 0.7910000085830688,-0.39800000190734863 c0.18700000643730164,-0.2669999897480011 0.2800000011920929,-0.6980000138282776 0.2800000011920929,-1.2960000038146973 c0,-0.2370000034570694 -0.019999999552965164,-0.45899999141693115 -0.05999999865889549,-0.6650000214576721 c-0.03999999910593033,-0.20499999821186066 -0.10199999809265137,-0.38499999046325684 -0.1860000044107437,-0.5379999876022339 c-0.08399999886751175,-0.15399999916553497 -0.19300000369548798,-0.27399998903274536 -0.32899999618530273,-0.3610000014305115 c-0.13500000536441803,-0.0860000029206276 -0.3009999990463257,-0.1289999932050705 -0.4970000088214874,-0.1289999932050705 c-0.3409999907016754,0 -0.6039999723434448,0.13699999451637268 -0.7910000085830688,0.4090000092983246 C36.210174560546875,22.5377197265625 36.1171875,22.965717315673828 36.1171875,23.548717498779297 z" id="svg_52"/>
	<path fill="#FFFFFF" d="M39.95318603515625,21.148719787597656 c0.19599999487400055,-0.03700000047683716 0.41200000047683716,-0.06599999964237213 0.6470000147819519,-0.08799999952316284 c0.23499999940395355,-0.020999999716877937 0.4699999988079071,-0.03099999949336052 0.7039999961853027,-0.03099999949336052 c0.24199999868869781,0 0.4860000014305115,0.019999999552965164 0.7310000061988831,0.05999999865889549 c0.24400000274181366,0.03999999910593033 0.4650000035762787,0.11900000274181366 0.6610000133514404,0.23800000548362732 c0.19599999487400055,0.11800000071525574 0.35499998927116394,0.2840000092983246 0.4790000021457672,0.4970000088214874 c0.12399999797344208,0.21199999749660492 0.1860000044107437,0.4880000054836273 0.1860000044107437,0.8289999961853027 c0,0.30799999833106995 -0.05400000140070915,0.5680000185966492 -0.16099999845027924,0.7799999713897705 c-0.10700000077486038,0.21299999952316284 -0.25,0.3869999945163727 -0.4269999861717224,0.5210000276565552 c-0.17800000309944153,0.13600000739097595 -0.3799999952316284,0.2329999953508377 -0.6050000190734863,0.2939999997615814 c-0.22699999809265137,0.061000000685453415 -0.460999995470047,0.09099999815225601 -0.7039999961853027,0.09099999815225601 c-0.023000000044703484,0 -0.061000000685453415,0 -0.11100000143051147,0 c-0.052000001072883606,0 -0.10499999672174454,-0.0010000000474974513 -0.16099999845027924,-0.003000000026077032 c-0.05700000002980232,-0.003000000026077032 -0.11100000143051147,-0.006000000052154064 -0.16500000655651093,-0.010999999940395355 s-0.09200000017881393,-0.008999999612569809 -0.11500000208616257,-0.014000000432133675 v1.687000036239624 h-0.9589999914169312 V21.148719787597656 zM41.381195068359375,21.85572052001953 c-0.09300000220537186,0 -0.18199999630451202,0.003000000026077032 -0.26600000262260437,0.010999999940395355 c-0.08399999886751175,0.007000000216066837 -0.1509999930858612,0.014999999664723873 -0.2029999941587448,0.024000000208616257 v1.5889999866485596 c0.01899999938905239,0.004999999888241291 0.04699999839067459,0.008999999612569809 0.08399999886751175,0.014000000432133675 s0.07699999958276749,0.008999999612569809 0.11900000274181366,0.010999999940395355 s0.08299999684095383,0.003000000026077032 0.12200000137090683,0.003000000026077032 c0.03999999910593033,0 0.0689999982714653,0 0.08799999952316284,0 c0.12600000202655792,0 0.25099998712539673,-0.010999999940395355 0.37400001287460327,-0.03400000184774399 c0.12399999797344208,-0.023000000044703484 0.23499999940395355,-0.06599999964237213 0.3330000042915344,-0.12999999523162842 s0.17599999904632568,-0.15000000596046448 0.23399999737739563,-0.2630000114440918 c0.05900000035762787,-0.11100000143051147 0.08799999952316284,-0.2590000033378601 0.08799999952316284,-0.4399999976158142 c0,-0.15399999916553497 -0.02800000086426735,-0.2809999883174896 -0.08399999886751175,-0.38199999928474426 c-0.05700000002980232,-0.10100000351667404 -0.12999999523162842,-0.1809999942779541 -0.22100000083446503,-0.2409999966621399 s-0.19499999284744263,-0.10300000011920929 -0.31200000643730164,-0.12600000202655792 C41.621185302734375,21.866718292236328 41.503173828125,21.85572052001953 41.381195068359375,21.85572052001953 z" id="svg_53"/>
	<path fill="#FFFFFF" d="M43.725189208984375,23.548717498779297 c0,-0.8159999847412109 0.18000000715255737,-1.4450000524520874 0.5389999747276306,-1.8860000371932983 c0.35899999737739563,-0.4410000145435333 0.8730000257492065,-0.6620000004768372 1.5399999618530273,-0.6620000004768372 c0.35100001096725464,0 0.656000018119812,0.061000000685453415 0.9169999957084656,0.18299999833106995 c0.2619999945163727,0.12099999934434891 0.4790000021457672,0.2939999997615814 0.6510000228881836,0.5180000066757202 s0.3009999990463257,0.492000013589859 0.38499999046325684,0.8050000071525574 c0.08399999886751175,0.31299999356269836 0.12600000202655792,0.6610000133514404 0.12600000202655792,1.0429999828338623 c0,0.8169999718666077 -0.1809999942779541,1.4459999799728394 -0.5419999957084656,1.8869999647140503 c-0.3619999885559082,0.4410000145435333 -0.8740000128746033,0.6620000004768372 -1.5369999408721924,0.6620000004768372 c-0.3540000021457672,0 -0.6620000004768372,-0.06199999898672104 -0.9240000247955322,-0.18299999833106995 s-0.4779999852180481,-0.2939999997615814 -0.6470000147819519,-0.5180000066757202 c-0.17000000178813934,-0.22499999403953552 -0.2980000078678131,-0.492000013589859 -0.38199999928474426,-0.8059999942779541 C43.767181396484375,24.279720306396484 43.725189208984375,23.931716918945312 43.725189208984375,23.548717498779297 zM44.73419189453125,23.548717498779297 c0,0.24799999594688416 0.020999999716877937,0.47600001096725464 0.06300000101327896,0.6830000281333923 c0.041999999433755875,0.20800000429153442 0.10599999874830246,0.3869999945163727 0.19200000166893005,0.5360000133514404 c0.08699999749660492,0.14900000393390656 0.19699999690055847,0.26600000262260437 0.3330000042915344,0.3499999940395355 c0.13500000536441803,0.08399999886751175 0.29600000381469727,0.12600000202655792 0.4819999933242798,0.12600000202655792 c0.3409999907016754,0 0.6039999723434448,-0.13300000131130219 0.7910000085830688,-0.39800000190734863 c0.18700000643730164,-0.2669999897480011 0.2800000011920929,-0.6980000138282776 0.2800000011920929,-1.2960000038146973 c0,-0.2370000034570694 -0.019999999552965164,-0.45899999141693115 -0.05999999865889549,-0.6650000214576721 c-0.03999999910593033,-0.20499999821186066 -0.10199999809265137,-0.38499999046325684 -0.1860000044107437,-0.5379999876022339 c-0.08399999886751175,-0.15399999916553497 -0.19300000369548798,-0.27399998903274536 -0.32899999618530273,-0.3610000014305115 c-0.13500000536441803,-0.0860000029206276 -0.3009999990463257,-0.1289999932050705 -0.4970000088214874,-0.1289999932050705 c-0.3409999907016754,0 -0.6039999723434448,0.13699999451637268 -0.7910000085830688,0.4090000092983246 C44.827178955078125,22.5377197265625 44.73419189453125,22.965717315673828 44.73419189453125,23.548717498779297 z" id="svg_54"/>
	<path fill="#FFFFFF" d="M52.735198974609375,26.87371826171875 h-0.6790000200271606 l-0.10499999672174454,-0.875 h-3.1489999294281006 l-0.10499999672174454,0.875 h-0.6790000200271606 v-1.7289999723434448 h0.5180000066757202 c0.032999999821186066,-0.052000001072883606 0.08699999749660492,-0.16599999368190765 0.16099999845027924,-0.34299999475479126 c0.07500000298023224,-0.17800000309944153 0.14900000393390656,-0.42899999022483826 0.22499999403953552,-0.753000020980835 c0.07400000095367432,-0.3240000009536743 0.1379999965429306,-0.7300000190734863 0.18799999356269836,-1.218000054359436 c0.052000001072883606,-0.4880000054836273 0.07500000298023224,-1.065000057220459 0.07000000029802322,-1.7319999933242798 h2.933000087738037 v4.046000003814697 h0.6230000257492065 V26.87371826171875 zM51.1531982421875,25.14571762084961 v-3.191999912261963 h-1.0850000381469727 c-0.027000000700354576,0.8309999704360962 -0.0949999988079071,1.5110000371932983 -0.19900000095367432,2.0409998893737793 c-0.10499999672174454,0.5289999842643738 -0.210999995470047,0.9129999876022339 -0.3179999887943268,1.1510000228881836 H51.1531982421875 z" id="svg_55"/>
	<path fill="#FFFFFF" d="M55.689178466796875,24.913719177246094 h-1.5049999952316284 l-0.3709999918937683,1.0850000381469727 h-0.9589999914169312 l1.7640000581741333,-4.934999942779541 h0.7070000171661377 l1.7649999856948853,4.934999942779541 h-1.0089999437332153 L55.689178466796875,24.913719177246094 zM54.43017578125,24.144718170166016 h1.0499999523162842 l-0.36399999260902405,-1.0920000076293945 l-0.1459999978542328,-0.7710000276565552 h-0.03500000014901161 l-0.1469999998807907,0.7770000100135803 L54.43017578125,24.144718170166016 z" id="svg_56"/>
	<path fill="#FFFFFF" d="M35.522186279296875,32.7987174987793 c-0.14900000393390656,0.10599999874830246 -0.3400000035762787,0.18299999833106995 -0.5699999928474426,0.2290000021457672 c-0.23100000619888306,0.04699999839067459 -0.4690000116825104,0.07000000029802322 -0.7110000252723694,0.07000000029802322 c-0.2939999997615814,0 -0.5730000138282776,-0.04600000008940697 -0.8370000123977661,-0.13699999451637268 s-0.4950000047683716,-0.23800000548362732 -0.6959999799728394,-0.4410000145435333 c-0.20100000500679016,-0.2029999941587448 -0.36000001430511475,-0.46700000762939453 -0.4790000021457672,-0.7910000085830688 c-0.11900000274181366,-0.3240000009536743 -0.17800000309944153,-0.7170000076293945 -0.17800000309944153,-1.1799999475479126 c0,-0.47999998927116394 0.06599999964237213,-0.8830000162124634 0.19900000095367432,-1.2070000171661377 c0.13300000131130219,-0.3240000009536743 0.3059999942779541,-0.5860000252723694 0.5180000066757202,-0.7839999794960022 c0.21199999749660492,-0.1979999989271164 0.4490000009536743,-0.3409999907016754 0.7110000252723694,-0.4269999861717224 c0.26100000739097595,-0.0860000029206276 0.5220000147819519,-0.12999999523162842 0.7829999923706055,-0.12999999523162842 c0.2800000011920929,0 0.5180000066757202,0.01899999938905239 0.7110000252723694,0.05700000002980232 c0.19300000369548798,0.03700000047683716 0.3540000021457672,0.08100000023841858 0.4790000021457672,0.13300000131130219 l-0.1889999955892563,0.8119999766349792 c-0.10599999874830246,-0.050999999046325684 -0.23399999737739563,-0.08799999952316284 -0.38100001215934753,-0.11100000143051147 c-0.1469999998807907,-0.023000000044703484 -0.32499998807907104,-0.03500000014901161 -0.5360000133514404,-0.03500000014901161 c-0.3869999945163727,0 -0.6980000138282776,0.1379999965429306 -0.9340000152587891,0.414000004529953 c-0.23600000143051147,0.2750000059604645 -0.3540000021457672,0.703000009059906 -0.3540000021457672,1.2829999923706055 c0,0.2529999911785126 0.027000000700354576,0.4830000102519989 0.08399999886751175,0.6909999847412109 c0.0560000017285347,0.20800000429153442 0.14100000262260437,0.38600000739097595 0.2549999952316284,0.5320000052452087 c0.11400000005960464,0.1469999998807907 0.25699999928474426,0.2630000114440918 0.4269999861717224,0.3440000116825104 c0.17100000381469727,0.0820000022649765 0.36800000071525574,0.12300000339746475 0.5920000076293945,0.12300000339746475 c0.20999999344348907,0 0.3880000114440918,-0.020999999716877937 0.5320000052452087,-0.06300000101327896 s0.2709999978542328,-0.09600000083446503 0.3779999911785126,-0.16099999845027924 L35.522186279296875,32.7987174987793 z" id="svg_57"/>
	<path fill="#FFFFFF" d="M36.1171875,28.099720001220703 h2.9049999713897705 v0.8539999723434448 h-1.9459999799728394 v1.1419999599456787 h1.7710000276565552 v0.8539999723434448 h-1.7710000276565552 v1.1970000267028809 h1.9809999465942383 v0.8539999723434448 h-2.940000057220459 V28.099720001220703 z" id="svg_58"/>
	<path fill="#FFFFFF" d="M43.06719970703125,29.240718841552734 c0,0.12099999934434891 -0.014999999664723873,0.24300000071525574 -0.04500000178813934,0.36399999260902405 s-0.07999999821186066,0.23199999332427979 -0.14900000393390656,0.3319999873638153 c-0.07000000029802322,0.10100000351667404 -0.1599999964237213,0.1889999955892563 -0.2709999978542328,0.2669999897480011 c-0.11100000143051147,0.07599999755620956 -0.2460000067949295,0.1340000033378601 -0.40400001406669617,0.17100000381469727 v0.041999999433755875 c0.14000000059604645,0.023000000044703484 0.2720000147819519,0.06300000101327896 0.3970000147819519,0.11900000274181366 s0.23399999737739563,0.13300000131130219 0.3269999921321869,0.23100000619888306 c0.09300000220537186,0.09799999743700027 0.16599999368190765,0.21699999272823334 0.2199999988079071,0.35600000619888306 c0.05299999937415123,0.14100000262260437 0.07999999821186066,0.3059999942779541 0.07999999821186066,0.4970000088214874 c0,0.25200000405311584 -0.05400000140070915,0.47099998593330383 -0.16099999845027924,0.6539999842643738 c-0.10700000077486038,0.1850000023841858 -0.25099998712539673,0.33500000834465027 -0.4309999942779541,0.4519999921321869 c-0.18000000715255737,0.11599999666213989 -0.3840000033378601,0.2029999941587448 -0.6119999885559082,0.2590000033378601 s-0.4650000035762787,0.08399999886751175 -0.7070000171661377,0.08399999886751175 c-0.07900000363588333,0 -0.1809999942779541,0 -0.3050000071525574,0 c-0.12300000339746475,0 -0.25699999928474426,-0.004000000189989805 -0.39800000190734863,-0.010999999940395355 c-0.14300000667572021,-0.007000000216066837 -0.28700000047683716,-0.017999999225139618 -0.4350000023841858,-0.03099999949336052 c-0.1459999978542328,-0.014000000432133675 -0.2809999883174896,-0.03500000014901161 -0.4020000100135803,-0.06300000101327896 v-4.829999923706055 c0.08900000154972076,-0.014000000432133675 0.1899999976158142,-0.027000000700354576 0.3050000071525574,-0.041999999433755875 c0.11400000005960464,-0.014000000432133675 0.23600000143051147,-0.02500000037252903 0.367000013589859,-0.03400000184774399 c0.13099999725818634,-0.009999999776482582 0.26499998569488525,-0.017000000923871994 0.4020000100135803,-0.020999999716877937 s0.27399998903274536,-0.007000000216066837 0.4099999964237213,-0.007000000216066837 c0.2290000021457672,0 0.45100000500679016,0.017999999225139618 0.6679999828338623,0.05299999937415123 s0.41100001335144043,0.09700000286102295 0.5809999704360962,0.1860000044107437 c0.17100000381469727,0.08900000154972076 0.3070000112056732,0.21199999749660492 0.4099999964237213,0.3709999918937683 C43.01617431640625,28.79671859741211 43.06719970703125,28.997718811035156 43.06719970703125,29.240718841552734 zM41.01617431640625,30.157718658447266 c0.06499999761581421,0 0.14100000262260437,-0.0020000000949949026 0.2280000001192093,-0.007000000216066837 c0.0860000029206276,-0.004999999888241291 0.15700000524520874,-0.012000000104308128 0.21400000154972076,-0.020999999716877937 c0.1770000010728836,-0.0560000017285347 0.33000001311302185,-0.13899999856948853 0.4580000042915344,-0.25 c0.12800000607967377,-0.10999999940395355 0.19200000166893005,-0.25600001215934753 0.19200000166893005,-0.43700000643730164 c0,-0.11999999731779099 -0.023000000044703484,-0.21899999678134918 -0.0689999982714653,-0.2980000078678131 c-0.04699999839067459,-0.07800000160932541 -0.10899999737739563,-0.14100000262260437 -0.1860000044107437,-0.18700000643730164 c-0.07699999958276749,-0.04600000008940697 -0.16500000655651093,-0.07800000160932541 -0.2630000114440918,-0.09700000286102295 c-0.0989999994635582,-0.01899999938905239 -0.20100000500679016,-0.02800000086426735 -0.3089999854564667,-0.02800000086426735 c-0.12099999934434891,0 -0.2329999953508377,0.003000000026077032 -0.335999995470047,0.007000000216066837 c-0.10300000011920929,0.004999999888241291 -0.18199999630451202,0.012000000104308128 -0.2370000034570694,0.020999999716877937 v1.2949999570846558 H41.01617431640625 zM41.3201904296875,32.26471710205078 c0.11400000005960464,0 0.22599999606609344,-0.014999999664723873 0.3330000042915344,-0.041999999433755875 s0.2029999941587448,-0.07000000029802322 0.2849999964237213,-0.12800000607967377 c0.08299999684095383,-0.057999998331069946 0.14900000393390656,-0.13099999725818634 0.19900000095367432,-0.21899999678134918 c0.050999999046325684,-0.08799999952316284 0.07599999755620956,-0.19099999964237213 0.07599999755620956,-0.31200000643730164 c0,-0.15199999511241913 -0.029999999329447746,-0.2720000147819519 -0.09000000357627869,-0.36000001430511475 s-0.1379999965429306,-0.15600000321865082 -0.2329999953508377,-0.20399999618530273 c-0.09700000286102295,-0.04899999871850014 -0.20399999618530273,-0.07999999821186066 -0.3230000138282776,-0.09399999678134918 s-0.23800000548362732,-0.020999999716877937 -0.3569999933242798,-0.020999999716877937 h-0.5009999871253967 v1.3370000123977661 c0.02199999988079071,0.009999999776482582 0.05999999865889549,0.017000000923871994 0.10899999737739563,0.020999999716877937 c0.050999999046325684,0.004999999888241291 0.10400000214576721,0.008999999612569809 0.16099999845027924,0.010999999940395355 c0.057999998331069946,0.0020000000949949026 0.11699999868869781,0.004999999888241291 0.17900000512599945,0.007000000216066837 C41.22119140625,32.262718200683594 41.274200439453125,32.26471710205078 41.3201904296875,32.26471710205078 z" id="svg_59"/>
	<path fill="#FFFFFF" d="M46.32318115234375,31.913719177246094 h-1.5049999952316284 l-0.3709999918937683,1.0850000381469727 h-0.9589999914169312 l1.7640000581741333,-4.934999942779541 h0.7070000171661377 l1.7649999856948853,4.934999942779541 h-1.0089999437332153 L46.32318115234375,31.913719177246094 zM45.063201904296875,31.144718170166016 h1.0499999523162842 l-0.36399999260902405,-1.0920000076293945 l-0.1459999978542328,-0.7710000276565552 h-0.03500000014901161 l-0.1469999998807907,0.7770000100135803 L45.063201904296875,31.144718170166016 z" id="svg_60"/>
	<path fill="#FFFFFF" d="M51.24420166015625,32.7987174987793 c-0.14900000393390656,0.10599999874830246 -0.3400000035762787,0.18299999833106995 -0.5699999928474426,0.2290000021457672 c-0.23100000619888306,0.04699999839067459 -0.4690000116825104,0.07000000029802322 -0.7110000252723694,0.07000000029802322 c-0.2939999997615814,0 -0.5730000138282776,-0.04600000008940697 -0.8370000123977661,-0.13699999451637268 s-0.4950000047683716,-0.23800000548362732 -0.6959999799728394,-0.4410000145435333 c-0.20000000298023224,-0.2029999941587448 -0.36000001430511475,-0.46700000762939453 -0.4790000021457672,-0.7910000085830688 s-0.17900000512599945,-0.7170000076293945 -0.17900000512599945,-1.1799999475479126 c0,-0.47999998927116394 0.06599999964237213,-0.8830000162124634 0.20000000298023224,-1.2070000171661377 c0.13300000131130219,-0.3240000009536743 0.3059999942779541,-0.5860000252723694 0.5180000066757202,-0.7839999794960022 s0.4490000009536743,-0.3409999907016754 0.7110000252723694,-0.4269999861717224 c0.26100000739097595,-0.0860000029206276 0.5220000147819519,-0.12999999523162842 0.7829999923706055,-0.12999999523162842 c0.2800000011920929,0 0.5180000066757202,0.01899999938905239 0.7110000252723694,0.05700000002980232 c0.19300000369548798,0.03700000047683716 0.3540000021457672,0.08100000023841858 0.4790000021457672,0.13300000131130219 l-0.1889999955892563,0.8119999766349792 c-0.10599999874830246,-0.050999999046325684 -0.23399999737739563,-0.08799999952316284 -0.38100001215934753,-0.11100000143051147 c-0.1469999998807907,-0.023000000044703484 -0.32499998807907104,-0.03500000014901161 -0.5360000133514404,-0.03500000014901161 c-0.3869999945163727,0 -0.6980000138282776,0.1379999965429306 -0.9340000152587891,0.414000004529953 c-0.23600000143051147,0.2750000059604645 -0.3540000021457672,0.703000009059906 -0.3540000021457672,1.2829999923706055 c0,0.2529999911785126 0.027000000700354576,0.4830000102519989 0.08399999886751175,0.6909999847412109 c0.0560000017285347,0.20800000429153442 0.14100000262260437,0.38600000739097595 0.2549999952316284,0.5320000052452087 c0.11400000005960464,0.1469999998807907 0.25699999928474426,0.2630000114440918 0.4269999861717224,0.3440000116825104 c0.17100000381469727,0.0820000022649765 0.36800000071525574,0.12300000339746475 0.5920000076293945,0.12300000339746475 c0.20999999344348907,0 0.3880000114440918,-0.020999999716877937 0.5320000052452087,-0.06300000101327896 s0.2709999978542328,-0.09600000083446503 0.3779999911785126,-0.16099999845027924 L51.24420166015625,32.7987174987793 z" id="svg_61"/>
	<path fill="#FFFFFF" d="M55.27618408203125,28.952720642089844 h-1.4290000200271606 v4.046000003814697 h-0.9589999914169312 v-4.046000003814697 h-1.434999942779541 v-0.8539999723434448 h3.822000026702881 V28.952720642089844 z" id="svg_62"/>
	<path fill="#FFFFFF" d="M55.34619140625,30.548717498779297 c0,-0.8159999847412109 0.18000000715255737,-1.4450000524520874 0.5389999747276306,-1.8860000371932983 c0.35899999737739563,-0.4410000145435333 0.8730000257492065,-0.6620000004768372 1.5399999618530273,-0.6620000004768372 c0.35100001096725464,0 0.656000018119812,0.061000000685453415 0.9169999957084656,0.18299999833106995 c0.2619999945163727,0.12099999934434891 0.4790000021457672,0.2939999997615814 0.6510000228881836,0.5180000066757202 s0.3009999990463257,0.492000013589859 0.38499999046325684,0.8050000071525574 c0.08399999886751175,0.31299999356269836 0.12600000202655792,0.6610000133514404 0.12600000202655792,1.0429999828338623 c0,0.8169999718666077 -0.1809999942779541,1.4459999799728394 -0.5419999957084656,1.8869999647140503 c-0.3619999885559082,0.4410000145435333 -0.8740000128746033,0.6620000004768372 -1.5369999408721924,0.6620000004768372 c-0.3540000021457672,0 -0.6620000004768372,-0.06199999898672104 -0.9240000247955322,-0.18299999833106995 s-0.4779999852180481,-0.2939999997615814 -0.6470000147819519,-0.5180000066757202 c-0.17000000178813934,-0.22499999403953552 -0.2980000078678131,-0.492000013589859 -0.38199999928474426,-0.8059999942779541 C55.38818359375,31.279720306396484 55.34619140625,30.931716918945312 55.34619140625,30.548717498779297 zM56.35418701171875,30.548717498779297 c0,0.24799999594688416 0.020999999716877937,0.47600001096725464 0.06300000101327896,0.6830000281333923 c0.041999999433755875,0.20800000429153442 0.10599999874830246,0.3869999945163727 0.19200000166893005,0.5360000133514404 c0.08699999749660492,0.14900000393390656 0.19699999690055847,0.26600000262260437 0.3330000042915344,0.3499999940395355 c0.13500000536441803,0.08399999886751175 0.29600000381469727,0.12600000202655792 0.4819999933242798,0.12600000202655792 c0.3409999907016754,0 0.6039999723434448,-0.13300000131130219 0.7910000085830688,-0.39800000190734863 c0.18700000643730164,-0.2669999897480011 0.2800000011920929,-0.6980000138282776 0.2800000011920929,-1.2960000038146973 c0,-0.2370000034570694 -0.019999999552965164,-0.45899999141693115 -0.05999999865889549,-0.6650000214576721 c-0.03999999910593033,-0.20499999821186066 -0.10199999809265137,-0.38499999046325684 -0.1860000044107437,-0.5379999876022339 c-0.08399999886751175,-0.15399999916553497 -0.19300000369548798,-0.27399998903274536 -0.32899999618530273,-0.3610000014305115 c-0.13500000536441803,-0.0860000029206276 -0.3009999990463257,-0.1289999932050705 -0.4970000088214874,-0.1289999932050705 c-0.3409999907016754,0 -0.6039999723434448,0.13699999451637268 -0.7910000085830688,0.4090000092983246 C56.447174072265625,29.5377197265625 56.35418701171875,29.965717315673828 56.35418701171875,30.548717498779297 z" id="svg_63"/>
	<path fill="#FFFFFF" d="M62.863189697265625,28.952720642089844 h-1.715000033378601 v4.046000003814697 h-0.9589999914169312 v-4.89900016784668 h3.632999897003174 v4.89900016784668 h-0.9589999914169312 V28.952720642089844 z" id="svg_64"/>
	<path fill="#FFFFFF" d="M64.50918579101562,30.548717498779297 c0,-0.8159999847412109 0.18000000715255737,-1.4450000524520874 0.5389999747276306,-1.8860000371932983 c0.35899999737739563,-0.4410000145435333 0.8730000257492065,-0.6620000004768372 1.5399999618530273,-0.6620000004768372 c0.35100001096725464,0 0.656000018119812,0.061000000685453415 0.9169999957084656,0.18299999833106995 c0.2619999945163727,0.12099999934434891 0.4790000021457672,0.2939999997615814 0.6510000228881836,0.5180000066757202 s0.3009999990463257,0.492000013589859 0.38499999046325684,0.8050000071525574 c0.08399999886751175,0.31299999356269836 0.12600000202655792,0.6610000133514404 0.12600000202655792,1.0429999828338623 c0,0.8169999718666077 -0.1809999942779541,1.4459999799728394 -0.5419999957084656,1.8869999647140503 c-0.3619999885559082,0.4410000145435333 -0.8740000128746033,0.6620000004768372 -1.5369999408721924,0.6620000004768372 c-0.3540000021457672,0 -0.6620000004768372,-0.06199999898672104 -0.9240000247955322,-0.18299999833106995 s-0.4779999852180481,-0.2939999997615814 -0.6470000147819519,-0.5180000066757202 c-0.17000000178813934,-0.22499999403953552 -0.2980000078678131,-0.492000013589859 -0.38199999928474426,-0.8059999942779541 C64.55117797851562,31.279720306396484 64.50918579101562,30.931716918945312 64.50918579101562,30.548717498779297 zM65.51718139648438,30.548717498779297 c0,0.24799999594688416 0.020999999716877937,0.47600001096725464 0.06300000101327896,0.6830000281333923 c0.041999999433755875,0.20800000429153442 0.10599999874830246,0.3869999945163727 0.19200000166893005,0.5360000133514404 c0.08699999749660492,0.14900000393390656 0.19699999690055847,0.26600000262260437 0.3330000042915344,0.3499999940395355 c0.13500000536441803,0.08399999886751175 0.29600000381469727,0.12600000202655792 0.4819999933242798,0.12600000202655792 c0.3409999907016754,0 0.6039999723434448,-0.13300000131130219 0.7910000085830688,-0.39800000190734863 c0.18700000643730164,-0.2669999897480011 0.2800000011920929,-0.6980000138282776 0.2800000011920929,-1.2960000038146973 c0,-0.2370000034570694 -0.019999999552965164,-0.45899999141693115 -0.05999999865889549,-0.6650000214576721 c-0.03999999910593033,-0.20499999821186066 -0.10199999809265137,-0.38499999046325684 -0.1860000044107437,-0.5379999876022339 c-0.08399999886751175,-0.15399999916553497 -0.19300000369548798,-0.27399998903274536 -0.32899999618530273,-0.3610000014305115 c-0.13500000536441803,-0.0860000029206276 -0.3009999990463257,-0.1289999932050705 -0.4970000088214874,-0.1289999932050705 c-0.3409999907016754,0 -0.6039999723434448,0.13699999451637268 -0.7910000085830688,0.4090000092983246 C65.61019897460938,29.5377197265625 65.51718139648438,29.965717315673828 65.51718139648438,30.548717498779297 z" id="svg_65"/>
	<path fill="#FFFFFF" d="M71.79617309570312,28.952720642089844 h-1.0429999828338623 c-0.019999999552965164,0.4429999887943268 -0.03999999910593033,0.847000002861023 -0.06300000101327896,1.2109999656677246 s-0.054999999701976776,0.6919999718666077 -0.0949999988079071,0.9829999804496765 c-0.039000000804662704,0.2919999957084656 -0.09200000017881393,0.550000011920929 -0.15700000524520874,0.7730000019073486 c-0.06499999761581421,0.22499999403953552 -0.14900000393390656,0.4180000126361847 -0.25200000405311584,0.5809999704360962 c-0.06499999761581421,0.10700000077486038 -0.13899999856948853,0.19599999487400055 -0.22100000083446503,0.2669999897480011 c-0.0820000022649765,0.0689999982714653 -0.16699999570846558,0.12600000202655792 -0.2549999952316284,0.1679999977350235 c-0.08900000154972076,0.041999999433755875 -0.1770000010728836,0.07100000232458115 -0.2630000114440918,0.08699999749660492 c-0.08699999749660492,0.017000000923871994 -0.16699999570846558,0.024000000208616257 -0.24199999868869781,0.024000000208616257 c-0.10700000077486038,0 -0.19699999690055847,-0.00800000037997961 -0.27000001072883606,-0.024000000208616257 c-0.07199999690055847,-0.01600000075995922 -0.14399999380111694,-0.03999999910593033 -0.21299999952316284,-0.0729999989271164 l0.10400000214576721,-0.8259999752044678 c0.02800000086426735,0.009999999776482582 0.05700000002980232,0.017000000923871994 0.08399999886751175,0.020999999716877937 c0.02800000086426735,0.004999999888241291 0.05700000002980232,0.007000000216066837 0.08399999886751175,0.007000000216066837 c0.07500000298023224,0 0.14800000190734863,-0.01899999938905239 0.22100000083446503,-0.0560000017285347 c0.07199999690055847,-0.03799999877810478 0.1340000033378601,-0.10100000351667404 0.1860000044107437,-0.1889999955892563 c0.07000000029802322,-0.10300000011920929 0.13099999725818634,-0.2529999911785126 0.18199999630451202,-0.45100000500679016 c0.052000001072883606,-0.1979999989271164 0.09799999743700027,-0.4519999921321869 0.13699999451637268,-0.7599999904632568 c0.03999999910593033,-0.30799999833106995 0.07100000232458115,-0.6759999990463257 0.0949999988079071,-1.1030000448226929 s0.03999999910593033,-0.925000011920929 0.04899999871850014,-1.49399995803833 h2.8919999599456787 v4.89900016784668 h-0.9589999914169312 V28.952720642089844 z" id="svg_66"/>
	<path fill="#FFFFFF" d="M76.80718994140625,32.99871826171875 h-0.9589999914169312 v-1.937999963760376 l-0.5040000081062317,0.13300000131130219 l-1.0210000276565552,1.805999994277954 h-1.1130000352859497 l1.0080000162124634,-1.63100004196167 l0.41999998688697815,-0.3009999990463257 c-0.14900000393390656,-0.03700000047683716 -0.289000004529953,-0.0949999988079071 -0.41999998688697815,-0.1720000058412552 s-0.24500000476837158,-0.17599999904632568 -0.34299999475479126,-0.296999990940094 c-0.0989999994635582,-0.12200000137090683 -0.17499999701976776,-0.26600000262260437 -0.23100000619888306,-0.4309999942779541 c-0.0560000017285347,-0.16599999368190765 -0.08399999886751175,-0.3540000021457672 -0.08399999886751175,-0.5630000233650208 c0,-0.2939999997615814 0.052000001072883606,-0.5419999957084656 0.15399999916553497,-0.7419999837875366 s0.24500000476837158,-0.3630000054836273 0.4269999861717224,-0.4860000014305115 c0.18299999833106995,-0.12399999797344208 0.39899998903274536,-0.21299999952316284 0.6510000228881836,-0.2669999897480011 c0.25200000405311584,-0.05299999937415123 0.5239999890327454,-0.07999999821186066 0.8180000185966492,-0.07999999821186066 c0.07999999821186066,0 0.17100000381469727,0.0020000000949949026 0.27300000190734863,0.007000000216066837 s0.20900000631809235,0.012000000104308128 0.3179999887943268,0.020999999716877937 c0.10899999737739563,0.008999999612569809 0.21699999272823334,0.020999999716877937 0.32199999690055847,0.03400000184774399 c0.10400000214576721,0.014999999664723873 0.19900000095367432,0.032999999821186066 0.28299999237060547,0.05700000002980232 V32.99871826171875 zM75.4921875,28.88271713256836 c-0.12600000202655792,0 -0.24500000476837158,0.012000000104308128 -0.3569999933242798,0.03500000014901161 s-0.20999999344348907,0.06300000101327896 -0.2939999997615814,0.11900000274181366 c-0.08399999886751175,0.05700000002980232 -0.15000000596046448,0.13300000131130219 -0.19900000095367432,0.23100000619888306 c-0.04899999871850014,0.09799999743700027 -0.07400000095367432,0.2240000069141388 -0.07400000095367432,0.3779999911785126 c0,0.14499999582767487 0.023000000044703484,0.2669999897480011 0.07000000029802322,0.367000013589859 s0.1120000034570694,0.18199999630451202 0.19599999487400055,0.24500000476837158 c0.08399999886751175,0.06300000101327896 0.18199999630451202,0.1080000028014183 0.2939999997615814,0.13699999451637268 c0.1120000034570694,0.027000000700354576 0.2329999953508377,0.041999999433755875 0.36399999260902405,0.041999999433755875 h0.35600000619888306 v-1.5199999809265137 c-0.050999999046325684,-0.008999999612569809 -0.10400000214576721,-0.017999999225139618 -0.15700000524520874,-0.024000000208616257 S75.57119750976562,28.88271713256836 75.4921875,28.88271713256836 z" id="svg_67"/>
</g></g></svg>