<svg xmlns="http://www.w3.org/2000/svg" width="77" height="35"><rect width="100%" height="100%" fill="none"/><g class="currentLayer"><title>Layer 1</title><g><path fill="#FFF" d="M14.156 35.138l-.163-.488s-.488-1.14-.895-1.71c-.326-.406-1.058-.487-1.383-.487H3.09c-.08 0-1.22-.08-2.197-1.302-.814-1.057-.895-2.033-.895-2.033V.067h28.724v29.05c0 .08-.08 1.058-.895 2.034-.976 1.14-2.197 1.222-2.197 1.222l-8.87.08c-.325 0-1.058.082-1.465.49-.488.487-.976 1.626-.976 1.708l-.164.488zM.404.473v28.643s.08.895.814 1.79c.814 1.058 1.872 1.14 1.872 1.14l8.544.08c.08 0 1.14 0 1.71.57.324.325.65.895.813 1.383.163-.408.488-.977.814-1.384.57-.57 1.628-.57 1.71-.57l8.87-.08s1.058-.082 1.953-1.14c.814-.895.814-1.79.814-1.79V.473H.404z"/><path fill="#FFF" d="M21.154 24.07l1.79 2.035c.08 0 .163 0 .244-.08 1.71-.49 2.36-2.85 2.36-2.85s-.65.733-2.36.733c-.895 0-1.383.57-1.383.57s.244-.325.895-.976c.65-.65 2.523-.488 3.906-1.953.814-.896.732-3.012.732-3.012s-.65.814-2.116 1.465c-1.058.407-1.71 1.79-1.71 1.79s.164-.895 1.222-1.872.976-2.033.814-2.766c-.407-1.71-.08-2.36-.08-2.36s-.896.814-1.466 1.546-.65 1.546-.407 3.174c.244 1.627-.814 3.174-.814 3.174s.652-1.79 0-3.255c-.325-.814-.325-1.546-.325-1.546l-.407.814c-1.058 1.873-.488 3.175-.407 4.314-.16.325-.323.732-.486 1.057zM20.91 23.827c0-.08 0-.163.08-.244.245-1.383-.406-2.767-.406-2.767s-.488.732-.976 1.627l1.302 1.384z"/><path fill="none" d="M11.877 27.652c-.163 0-.65-.244-.65-.244l.08-.65c0-.082.08-.652.08-.652s.164-.325.245-.407c.08-.082.407-.326.244-.408a2.084 2.084 0 0 0-.57-.163c-.08 0-.732-.082-.732-.082l-.244-.163-.08-.163h-.49l-.406-.57s0-.325-.08-.407c0-.08-.327-.407-.327-.407v-.407l-.407-.243-.163-.163-.163-.57-.244-.407-.163-.163-.08-.325-.164-.164-.08-.163c-.164-.08-.164-.163-.164-.163v-.08l-.082-.082-.163-7.405s.08 0 .08-.08v-.164s.082 0 .164-.082v-.325l-.164-.163s.08-.08.08-.244c0-.163.082-.08 0-.325-.08-.243-.162-.243-.162-.243H7.4c.162 0 .73.08.813 0 .08-.08.163-.08.163-.08s-.244.08-.488-.082c-.244-.163-.65-.244-.895-.163-.244 0-.407.08-.407.08s-.325-.324-.57-.243c-.244.08-.407.243-.65.324-.245 0-.327.08-.327.08s.08.164.487.164.57-.163.65-.163c.082 0 .245.08.245.08v.082H6.26v.65s-.082 0-.082.082v.08H5.77s-.162 0 0 .163c.164.163.164.08.164.244 0 .163-.08.244.08.325.164.08.082.08.082.08l-.08 7.325s-.082.08-.164.08v.164s-.08 0-.08.082v.163H5.69v.244h-.648l-.08.324.08.163.08.244-.08.326-.08.08v.49l-.082.324h-.244v-.08l-.244-.164s-.163-.08-.163 0-.408 1.058-.408 1.058l-.163.65v.57l-.164.245h-.244l-.163.65s-.164.407-.164.488v.65l-.08.408.243.244s.162.325.162.407.08.325.08.325.245.244.326.244c.244 0 .407.244.407.244l.163.08s.163.082.244.082h7.568l.163-.163.08-.652-.08-.488c0 .006-.082-.157-.326-.238z"/><path fill="#FFF" d="M27.257 30.988l-4.23-4.8c-1.06.243-1.873 0-2.524 0-.732 0-.976.406-.976.406s1.22-.08 2.197.08c1.302.326 2.278 1.547 2.278 1.547s-.57-.08-1.627.245c-1.058.325-2.848.08-3.987-.488-.895-.488-2.36-.244-3.255 0s-1.546 1.14-1.546 1.14h-.163s0-.977.326-1.384c.163-.163.325-.325 1.302-.244 0 0 2.44-.082 3.336-.815.895-.732.732-2.767.976-3.418.08-.244.244-.488.407-.732L.323.555s-.244 26.12 0 28.4c.08.65.407 1.708.895 2.277.65.732 1.465.976 1.465.976s9.683.244 10.253.488c.57.244 1.22 1.953 1.22 1.953s.49-1.06.815-1.547c.326-.488 1.22-.732 1.22-.732s9.277 0 10.335-.406c1.057-.407.732-.976.732-.976zm-14.973-1.953l-.163.163H4.554l-.244-.08-.245-.082s-.244-.244-.325-.244c-.08 0-.326-.244-.326-.244s-.08-.244-.08-.325-.164-.407-.164-.407l-.244-.244.08-.407v-.653l.164-.488.08-.65h.327l.163-.245v-.57l.163-.652s.325-.976.407-1.058c0-.08.163 0 .163 0l.244.163v.08h.163l.08-.406v-.407l.164-.08.08-.326-.08-.244-.163-.163.082-.244H5.692v-.244l.163-.082v-.163c0-.08.08-.08.08-.08v-.164c0-.08.164-.08.164-.08l.08-7.324s0-.08-.08-.08 0-.082-.08-.326c0-.163-.082-.08-.164-.244-.163-.163 0-.163 0-.163h.325v-.08c0-.08.082-.082.082-.082v-.65h.163v-.08s-.163-.082-.244-.082c-.08 0-.324.163-.65.163s-.488-.162-.488-.162.163-.08.326-.08c.244 0 .407-.245.65-.326.245-.08.57.163.57.163s.164-.08.408-.08c.244 0 .65.08.895.162.245.163.49.08.49.08s-.082 0-.164.082c-.08.08-.57.08-.814 0h-.325s.08.243.244.406 0 .163 0 .325c0 .164-.08.245-.08.245l.08.08v.326c0 .082-.162.082-.162.082v.163c0 .083-.08.08-.08.08l.162 7.406.08.082c.08.082 0 .08 0 .08s0 .082.082.245l.08.163.164.163.08.325.164.163.244.408.163.57.163.163s.407.164.407.245v.407s.326.325.326.407.08.406.08.406l.408.57.408.08.08.245.245.164s.65 0 .732.08c.08 0 .407.082.57.164.163.08-.163.325-.244.407-.08.08-.162.407-.243.407l-.08.65c0 .082-.082.652-.082.652s.488.244.65.244c.164 0 .326.244.326.244l.164.488.08.405z"/><path fill="#FFF" d="M21.154 24.153l-.244-.244c-.244.975-.732 1.464-.732 1.464s.65-.57.976-1.22z"/><g><path fill="#FFF" d="M24.897 10.726l-2.604-.814-1.465-2.116c.407-.08.732-.407.732-.814s-.244-.732-.65-.814v-.163c.324-.08.65-.325.73-.65h1.792c.326 0 .57-.326.57-.733s-.244-.65-.57-.732V2.832c.326 0 .57-.325.57-.732s-.244-.65-.57-.732H18.14c-.325 0-.57.325-.57.732s.244.65.57.732V3.89c-.325 0-.57.325-.57.732s.244.65.57.732h1.789c.08.325.407.57.732.65v.326c-.325.08-.65.407-.65.814s.325.732.73.814l-1.464 2.116-2.604.814 1.627 2.197v2.767l2.604-.895 2.604.895v-2.767l1.387-2.36zm-4.72-5.37h1.14c-.082.163-.245.325-.408.325 0-.08-.082-.162-.164-.162-.08 0-.163.08-.163.163-.162 0-.324-.162-.406-.324zm.082 1.708c0-.244.162-.407.325-.488 0 .08.08.163.163.163.08 0 .163-.082.163-.164.245.08.326.244.326.488s-.244.488-.488.488c-.245 0-.49-.244-.49-.488z"/></g></g><g fill="#FFF"><path d="M35.053.954h-1.89V5h-.96V.1h2.85v.854zM37.727.954h-1.043c-.02.443-.04.847-.063 1.21-.022.365-.054.693-.094.984-.04.292-.092.55-.157.773-.066.225-.15.42-.253.582a1.09 1.09 0 0 1-.476.434 1.08 1.08 0 0 1-.262.087 1.254 1.254 0 0 1-.242.024c-.107 0-.197-.008-.27-.024a1.052 1.052 0 0 1-.213-.073l.104-.826a.543.543 0 0 0 .168.028c.075 0 .148-.02.22-.056a.483.483 0 0 0 .187-.19c.07-.102.13-.252.182-.45.052-.2.098-.453.137-.76.04-.31.072-.676.096-1.103.023-.427.04-.925.05-1.495h2.89v4.9h-.958V.954zM41.94 3.915h-1.504L40.066 5h-.96L40.87.065h.707L43.342 5h-1.01l-.39-1.085zm-1.26-.77h1.05l-.363-1.092-.146-.77h-.034l-.147.777-.36 1.085zM47.057 1.24c0 .122-.015.244-.045.365a1.012 1.012 0 0 1-.42.6 1.17 1.17 0 0 1-.404.17v.042a1.6 1.6 0 0 1 .397.12 1.022 1.022 0 0 1 .547.587c.053.14.08.306.08.497 0 .253-.054.47-.16.655-.108.185-.252.335-.432.452s-.384.203-.612.26c-.23.055-.465.083-.707.083h-.304a8.063 8.063 0 0 1-.833-.042 3.116 3.116 0 0 1-.402-.063V.135a8.874 8.874 0 0 1 .673-.077 11.29 11.29 0 0 1 .812-.028c.23 0 .45.018.668.053s.41.097.58.186c.172.088.308.21.41.37.104.158.154.358.154.6zm-2.05.918a3.992 3.992 0 0 0 .442-.028c.176-.055.33-.14.457-.25s.192-.256.192-.437c0-.12-.024-.22-.07-.298a.537.537 0 0 0-.186-.187.81.81 0 0 0-.263-.097c-.098-.018-.2-.027-.308-.027-.12 0-.233.002-.336.007a2.246 2.246 0 0 0-.237.02v1.296h.307zm.303 2.107c.114 0 .226-.014.333-.042a.893.893 0 0 0 .285-.128.61.61 0 0 0 .275-.53.63.63 0 0 0-.09-.36A.62.62 0 0 0 45.88 3a.956.956 0 0 0-.323-.093 3.053 3.053 0 0 0-.357-.02h-.5v1.336c.02.01.06.016.108.02.05.006.104.01.16.01l.18.008c.063.003.116.005.162.005zM50.648 2.95h-1.792V5h-.96V.1h.96v1.995h1.792V.1h.96V5h-.96V2.95zM52.3 2.55c0-.816.18-1.445.54-1.886s.873-.662 1.54-.662c.35 0 .656.06.917.182.262.12.48.294.65.518.174.224.302.492.386.805.084.313.126.66.126 1.043 0 .817-.182 1.446-.543 1.887-.362.44-.874.662-1.537.662-.354 0-.662-.062-.924-.183s-.478-.294-.647-.518-.3-.493-.383-.806A4.038 4.038 0 0 1 52.3 2.55zm1.01 0c0 .248.02.475.062.683.042.208.106.386.192.536.087.148.197.265.333.35a.895.895 0 0 0 .482.125c.34 0 .603-.133.79-.4.187-.265.28-.697.28-1.294 0-.237-.02-.458-.06-.664a1.868 1.868 0 0 0-.186-.54.967.967 0 0 0-.33-.36.908.908 0 0 0-.496-.13c-.34 0-.604.138-.79.41s-.28.7-.28 1.284zM57.144.1h2.905v.854h-1.947v1.14h1.77v.855h-1.77v1.196h1.98V5h-2.94V.1zM33.842 9.263l.14.637h.043l.11-.658.736-2.142h.988l-1.302 3.388a9.304 9.304 0 0 1-.298.693 2.25 2.25 0 0 1-.31.487c-.108.128-.23.224-.366.287a1.117 1.117 0 0 1-.476.094c-.154 0-.28-.01-.375-.03a.985.985 0 0 1-.31-.138l.244-.777c.08.042.15.068.217.077s.137.014.21.014c.22 0 .375-.172.464-.518L31.72 7.1h1.127l.995 2.163zM38.853 7.954h-1.715V12h-.96V7.1h3.634V12h-.96V7.954zM40.653 7.15c.196-.038.412-.067.647-.088s.47-.032.704-.032c.242 0 .486.02.73.06.245.04.466.12.662.238.196.12.355.285.48.497s.185.49.185.83c0 .307-.053.567-.16.78s-.25.386-.427.52c-.178.136-.38.234-.605.295-.227.06-.46.09-.704.09h-.11c-.053 0-.106 0-.162-.002-.057-.002-.11-.006-.165-.01a1.148 1.148 0 0 1-.115-.014V12h-.96V7.15zm1.428.706a2.824 2.824 0 0 0-.468.035v1.59c.02.005.047.01.084.014a1.97 1.97 0 0 0 .24.013h.09c.125 0 .25-.01.373-.035a.903.903 0 0 0 .332-.13c.098-.063.176-.15.234-.262s.088-.26.088-.44a.78.78 0 0 0-.084-.383c-.057-.1-.13-.18-.22-.24s-.196-.104-.313-.127a1.82 1.82 0 0 0-.356-.034zM46.533 10.915h-1.505L44.658 12h-.96l1.764-4.935h.707L47.933 12h-1.01l-.39-1.085zm-1.26-.77h1.05l-.364-1.092-.147-.77h-.035l-.147.777-.357 1.085zM51.65 8.24c0 .122-.016.244-.046.365a1.012 1.012 0 0 1-.42.6 1.17 1.17 0 0 1-.404.17v.042a1.6 1.6 0 0 1 .397.12 1.022 1.022 0 0 1 .547.587c.053.14.08.306.08.497 0 .253-.054.47-.16.655-.108.185-.252.335-.432.452s-.384.203-.612.26c-.23.055-.465.083-.707.083h-.305a8.063 8.063 0 0 1-.833-.042 3.116 3.116 0 0 1-.402-.063v-4.83a8.874 8.874 0 0 1 .672-.077 11.29 11.29 0 0 1 .812-.028c.23 0 .45.018.668.053s.41.097.58.186c.172.088.308.21.41.37.103.158.154.358.154.6zm-2.052.918a3.992 3.992 0 0 0 .442-.028c.177-.055.33-.14.458-.25s.192-.256.192-.437c0-.12-.023-.22-.07-.298a.537.537 0 0 0-.185-.187.81.81 0 0 0-.263-.097c-.1-.018-.2-.027-.31-.027-.12 0-.232.002-.335.007a2.246 2.246 0 0 0-.237.02v1.296h.308zm.304 2.107c.114 0 .226-.014.333-.042a.893.893 0 0 0 .285-.128.61.61 0 0 0 .275-.53.63.63 0 0 0-.09-.36.62.62 0 0 0-.233-.204.956.956 0 0 0-.323-.093 3.053 3.053 0 0 0-.358-.02h-.5v1.336c.02.01.06.016.108.02.05.006.104.01.16.01l.18.008c.063.003.116.005.162.005zM55.053 7.954H54.01c-.02.443-.04.847-.063 1.21-.023.365-.055.693-.095.984-.04.292-.092.55-.157.773-.065.225-.15.42-.252.582a1.09 1.09 0 0 1-.476.434 1.08 1.08 0 0 1-.263.087 1.254 1.254 0 0 1-.242.024c-.107 0-.197-.008-.27-.024a1.052 1.052 0 0 1-.213-.073l.103-.826a.543.543 0 0 0 .168.028c.076 0 .15-.02.222-.056a.483.483 0 0 0 .186-.19c.07-.102.13-.252.182-.45.052-.2.098-.453.137-.76.04-.31.07-.676.095-1.103.023-.427.04-.925.05-1.495h2.89v4.9h-.958V7.954zM56.85 7.1h2.905v.854H57.81v1.14h1.77v.855h-1.77v1.196h1.98V12h-2.94V7.1zM63.256 9.95h-1.792V12h-.96V7.1h.96v1.995h1.792V7.1h.96V12h-.96V9.95zM67.918 9.284l.056-.637h-.035l-.33.658L65.783 12h-.72V7.1h.958v2.667l-.07.658h.043l.344-.68L68.164 7.1h.714V12h-.96V9.284zM69.723 7.1h2.905v.854h-1.946v1.14h1.77v.855h-1.77v1.196h1.98V12h-2.94V7.1zM33.415 16.907h-.252V19h-.96v-4.9h.96v2.17l.224-.098L34.74 14.1h1.09l-1.427 2.058-.378.266.392.273L36.047 19h-1.182l-1.45-2.093z"/><path d="M37.936 16.263l.14.637h.043l.11-.658.735-2.142h.987l-1.302 3.388a9.304 9.304 0 0 1-.298.693 2.3 2.3 0 0 1-.31.487c-.108.128-.23.224-.366.287a1.117 1.117 0 0 1-.476.094c-.154 0-.28-.01-.375-.03a.995.995 0 0 1-.312-.138l.245-.776c.08.042.15.067.217.077.065.01.136.015.21.015.22 0 .374-.173.463-.52L35.813 14.1h1.128l.996 2.163zM42.628 14.954h-1.043c-.02.443-.04.847-.063 1.21-.023.365-.055.693-.095.984-.04.292-.092.55-.157.773a2.25 2.25 0 0 1-.252.582 1.116 1.116 0 0 1-.74.522 1.254 1.254 0 0 1-.24.024.994.994 0 0 1-.483-.097l.103-.826a.484.484 0 0 0 .39-.028.483.483 0 0 0 .185-.19c.07-.102.13-.252.182-.45.052-.198.098-.452.137-.76.04-.308.07-.675.095-1.102.023-.427.04-.925.05-1.495h2.89V19h-.958v-4.046zM44.426 14.1h.96v1.757l.114-.018c.054-.008.112-.014.176-.02.063-.003.127-.008.192-.013a3.1 3.1 0 0 1 .847.063c.215.046.405.13.57.25.166.118.298.28.396.482.1.203.148.46.148.773 0 .56-.174.982-.52 1.268-.35.284-.847.427-1.496.427a9.732 9.732 0 0 1-1.02-.056 2.823 2.823 0 0 1-.366-.063V14.1zm1.435 4.115c.13 0 .255-.013.37-.038a.83.83 0 0 0 .31-.133.63.63 0 0 0 .206-.25.875.875 0 0 0 .074-.377.823.823 0 0 0-.08-.39c-.055-.1-.125-.177-.21-.233s-.19-.093-.306-.112a2.244 2.244 0 0 0-.363-.028 6.725 6.725 0 0 0-.26.02 1.83 1.83 0 0 0-.216.038v1.463c.052.015.12.025.207.032.088.007.177.01.27.01zM51.125 14.954h-1.43V19h-.958v-4.046h-1.435V14.1h3.822v.854zM53.428 16.263l.14.637h.043l.112-.658.735-2.142h.987l-1.302 3.388a9.304 9.304 0 0 1-.298.693 2.3 2.3 0 0 1-.31.487c-.108.128-.23.224-.366.287a1.117 1.117 0 0 1-.476.094c-.154 0-.28-.01-.375-.03a.995.995 0 0 1-.312-.138l.245-.776c.08.042.15.067.217.077.065.01.136.015.21.015.22 0 .374-.173.463-.52L51.305 14.1h1.128l.995 2.163zM55.765 14.15c.196-.038.412-.067.647-.088s.47-.032.704-.032c.242 0 .486.02.73.06.245.04.466.12.662.238.196.12.355.285.48.497s.185.49.185.83c0 .307-.054.567-.16.78s-.25.386-.428.52c-.178.136-.38.234-.605.294-.227.06-.46.09-.704.09h-.11a4.49 4.49 0 0 1-.327-.014 1.148 1.148 0 0 1-.116-.014V19h-.96v-4.85zm1.428.706a2.824 2.824 0 0 0-.47.035v1.59a1.97 1.97 0 0 0 .325.027h.09c.125 0 .25-.01.373-.035a.903.903 0 0 0 .334-.13c.098-.063.176-.15.234-.262s.088-.26.088-.44a.78.78 0 0 0-.084-.383c-.057-.1-.13-.18-.22-.24s-.196-.104-.313-.127a1.82 1.82 0 0 0-.357-.034zM59.77 14.1h.958v1.757c.052-.01.133-.02.245-.035a3.08 3.08 0 0 1 .997.05 1.4 1.4 0 0 1 .557.248c.16.12.285.28.378.483.094.203.14.458.14.766 0 .568-.165.994-.496 1.276-.333.282-.825.424-1.48.424a8.722 8.722 0 0 1-.583-.022c-.12-.01-.24-.02-.368-.034a2.638 2.638 0 0 1-.35-.063V14.1zm1.37 4.115c.267 0 .482-.062.648-.186.166-.124.25-.33.25-.62 0-.154-.024-.28-.07-.378s-.11-.175-.19-.23a.72.72 0 0 0-.28-.116 1.83 1.83 0 0 0-.58-.014.89.89 0 0 0-.19.04v1.46c.053.016.114.026.187.033s.147.01.226.01zm2.41-4.115h.96V19h-.96v-4.9zM35.053 21.953h-1.89V26h-.96v-4.9h2.85v.853zM35.108 23.55c0-.817.18-1.446.54-1.887.358-.44.872-.662 1.54-.662.35 0 .655.062.916.184.262.12.48.294.65.518s.302.492.386.805c.084.313.126.66.126 1.043 0 .817-.18 1.446-.542 1.887-.362.44-.874.662-1.537.662-.354 0-.662-.063-.924-.184s-.478-.294-.647-.518a2.308 2.308 0 0 1-.382-.806 4.012 4.012 0 0 1-.126-1.043zm1.01 0c0 .247.02.475.062.682.042.208.106.387.192.536.087.15.197.266.333.35a.895.895 0 0 0 .482.126c.34 0 .604-.133.79-.398.188-.267.28-.698.28-1.296 0-.237-.02-.46-.06-.665a1.85 1.85 0 0 0-.185-.538.967.967 0 0 0-.33-.36.908.908 0 0 0-.496-.13.905.905 0 0 0-.79.41c-.186.27-.28.7-.28 1.282zM39.953 21.15c.196-.038.412-.067.647-.09.235-.02.47-.03.704-.03.242 0 .486.02.73.06.245.04.466.12.662.238s.355.284.48.497c.123.212.185.488.185.83 0 .307-.053.567-.16.78a1.47 1.47 0 0 1-.427.52 1.73 1.73 0 0 1-.605.294c-.227.06-.46.09-.704.09h-.11a4.49 4.49 0 0 1-.327-.014 1.148 1.148 0 0 1-.115-.014V26h-.96v-4.85zm1.428.706a2.824 2.824 0 0 0-.468.035v1.59c.02.005.047.01.084.014s.077.01.12.01.082.004.12.004h.09c.125 0 .25-.01.373-.034.123-.023.234-.066.332-.13s.176-.15.234-.263c.06-.11.088-.258.088-.44a.78.78 0 0 0-.084-.38c-.057-.102-.13-.182-.22-.242s-.196-.103-.313-.126a1.68 1.68 0 0 0-.356-.036zM43.725 23.55c0-.817.18-1.446.54-1.887.358-.44.872-.662 1.54-.662.35 0 .655.062.916.184.263.12.48.294.652.518s.3.492.385.805c.084.313.126.66.126 1.043 0 .817-.18 1.446-.542 1.887-.36.44-.873.662-1.536.662-.354 0-.662-.063-.924-.184s-.478-.294-.647-.518a2.308 2.308 0 0 1-.382-.806 4.012 4.012 0 0 1-.125-1.043zm1.01 0c0 .247.02.475.062.682.042.208.106.387.192.536.086.15.196.266.332.35a.895.895 0 0 0 .482.126c.34 0 .604-.133.79-.398.188-.267.28-.698.28-1.296 0-.237-.02-.46-.06-.665a1.85 1.85 0 0 0-.185-.538.967.967 0 0 0-.33-.36.908.908 0 0 0-.497-.13.905.905 0 0 0-.79.41c-.186.27-.28.7-.28 1.282zM52.735 26.874h-.68L51.952 26h-3.148l-.105.874h-.68v-1.73h.52c.032-.05.086-.165.16-.342.075-.178.15-.43.225-.753a10.3 10.3 0 0 0 .188-1.22c.052-.487.075-1.064.07-1.73h2.933v4.045h.623v1.73zm-1.582-1.728v-3.192h-1.085c-.027.83-.095 1.51-.2 2.04-.104.53-.21.914-.317 1.152h1.603zM55.69 24.914h-1.506L53.814 26h-.96l1.764-4.936h.707L57.09 26h-1.01l-.39-1.086zm-1.26-.77h1.05l-.364-1.09-.146-.772h-.035l-.147.777-.358 1.085zM35.522 32.8c-.15.105-.34.182-.57.228-.23.047-.47.07-.71.07-.295 0-.574-.046-.838-.137s-.495-.237-.696-.44c-.2-.203-.36-.467-.48-.79-.118-.325-.177-.718-.177-1.18 0-.48.067-.884.2-1.208.133-.324.306-.586.518-.784.212-.198.45-.34.71-.427.262-.085.523-.13.784-.13.28 0 .518.02.71.058.194.037.355.08.48.133l-.19.813a1.37 1.37 0 0 0-.38-.11 3.524 3.524 0 0 0-.536-.036c-.387 0-.698.138-.934.414-.236.276-.354.704-.354 1.284 0 .253.027.483.084.69.056.21.14.387.255.533.114.147.257.263.427.344.17.083.368.124.592.124.21 0 .388-.02.532-.063s.27-.095.378-.16l.196.78zM36.117 28.1h2.905v.854h-1.946v1.142h1.77v.854h-1.77v1.197h1.98V33h-2.94v-4.9zM43.067 29.24c0 .122-.015.244-.045.365a1.007 1.007 0 0 1-.42.6 1.19 1.19 0 0 1-.404.17v.042c.14.023.272.063.397.12s.234.132.327.23.166.217.22.356c.053.14.08.306.08.497 0 .252-.054.47-.16.654-.108.185-.252.335-.432.452-.18.116-.384.203-.612.26s-.465.083-.707.083h-.304a8.12 8.12 0 0 1-.398-.012 11.262 11.262 0 0 1-.435-.03 3.116 3.116 0 0 1-.402-.064v-4.83a6.91 6.91 0 0 1 .672-.076c.132-.01.266-.017.403-.02s.274-.008.41-.008c.23 0 .45.018.668.053s.41.097.58.186c.172.088.308.21.41.37.103.157.154.358.154.6zm-2.05.918a3.992 3.992 0 0 0 .44-.028c.178-.056.33-.14.46-.25a.548.548 0 0 0 .19-.437c0-.12-.022-.22-.068-.298a.537.537 0 0 0-.187-.187.81.81 0 0 0-.263-.097c-.1-.018-.2-.027-.31-.027-.12 0-.232.003-.335.007a2.246 2.246 0 0 0-.237.02v1.296h.308zm.303 2.107c.114 0 .226-.015.333-.042s.203-.07.285-.128a.663.663 0 0 0 .2-.22.61.61 0 0 0 .075-.31c0-.153-.03-.273-.09-.36s-.138-.157-.233-.205c-.097-.05-.204-.08-.323-.094s-.238-.02-.357-.02h-.5v1.336c.02.01.06.017.108.02.05.006.104.01.16.012l.18.007c.063.003.116.005.162.005zM46.323 31.914h-1.505L44.448 33h-.96l1.764-4.936h.707L47.723 33h-1.01l-.39-1.086zm-1.26-.77h1.05l-.364-1.09-.147-.772h-.035l-.147.777-.357 1.085zM51.244 32.8c-.15.105-.34.182-.57.228-.23.047-.47.07-.71.07-.295 0-.574-.046-.838-.137s-.495-.237-.696-.44c-.2-.203-.36-.467-.48-.79s-.178-.718-.178-1.18c0-.48.066-.884.2-1.208.133-.324.306-.586.518-.784s.45-.34.71-.427c.262-.085.523-.13.784-.13.28 0 .518.02.71.058.194.037.355.08.48.133l-.19.813a1.37 1.37 0 0 0-.38-.11 3.524 3.524 0 0 0-.536-.036c-.387 0-.698.138-.934.414-.236.276-.354.704-.354 1.284 0 .253.027.483.084.69.056.21.14.387.255.533.113.147.256.263.426.344.17.083.368.124.592.124.21 0 .388-.02.532-.063s.27-.095.378-.16l.196.78zM55.276 28.953h-1.43V33h-.958v-4.047h-1.435V28.1h3.822v.853zM55.346 30.55c0-.817.18-1.446.54-1.887.358-.44.872-.662 1.54-.662.35 0 .655.062.916.184.262.12.48.294.65.518s.302.492.386.805c.084.313.126.66.126 1.043 0 .817-.18 1.446-.542 1.887-.362.44-.874.662-1.537.662-.354 0-.662-.063-.924-.184s-.477-.294-.646-.518a2.308 2.308 0 0 1-.382-.806 4.012 4.012 0 0 1-.126-1.043zm1.008 0c0 .247.02.475.063.682.042.208.106.387.192.536.086.15.196.266.332.35a.895.895 0 0 0 .482.126c.34 0 .604-.133.79-.398.188-.267.28-.698.28-1.296 0-.237-.02-.46-.06-.665a1.85 1.85 0 0 0-.185-.538.967.967 0 0 0-.33-.36.908.908 0 0 0-.497-.13.905.905 0 0 0-.79.41c-.186.27-.28.7-.28 1.282zM62.863 28.953h-1.715V33h-.96v-4.9h3.634V33h-.96v-4.047zM64.51 30.55c0-.817.18-1.446.538-1.887.36-.44.873-.662 1.54-.662.35 0 .656.062.917.184.262.12.48.294.65.518s.302.492.386.805c.085.313.127.66.127 1.043 0 .817-.18 1.446-.542 1.887-.362.44-.874.662-1.537.662-.354 0-.662-.063-.924-.184s-.478-.294-.647-.518a2.308 2.308 0 0 1-.382-.806 4.012 4.012 0 0 1-.126-1.043zm1.007 0c0 .247.02.475.063.682.042.208.106.387.192.536.087.15.197.266.333.35a.895.895 0 0 0 .482.126c.34 0 .604-.133.79-.398.188-.267.28-.698.28-1.296 0-.237-.02-.46-.06-.665a1.85 1.85 0 0 0-.185-.538.967.967 0 0 0-.33-.36.908.908 0 0 0-.496-.13.905.905 0 0 0-.79.41c-.186.27-.28.7-.28 1.282zM71.796 28.953h-1.043c-.02.443-.04.847-.063 1.21s-.055.693-.095.984c-.04.292-.092.55-.157.773a2.25 2.25 0 0 1-.252.58 1.116 1.116 0 0 1-.74.523 1.254 1.254 0 0 1-.24.024.994.994 0 0 1-.483-.097l.103-.826a.484.484 0 0 0 .39-.028.483.483 0 0 0 .185-.19c.07-.102.132-.252.183-.45.052-.198.098-.452.137-.76.04-.308.07-.676.095-1.103s.04-.925.05-1.494h2.89v4.898h-.958v-4.045zM76.807 33h-.96v-1.94l-.503.134L74.324 33H73.21l1.008-1.63.42-.302c-.15-.037-.29-.095-.42-.172s-.245-.176-.343-.297a1.38 1.38 0 0 1-.23-.432 1.758 1.758 0 0 1-.085-.563c0-.294.052-.542.154-.742s.245-.363.427-.486c.184-.124.4-.213.652-.267.252-.053.524-.08.818-.08a9.413 9.413 0 0 1 .913.062c.104.015.2.033.283.057V33zm-1.315-4.117c-.126 0-.245.012-.357.035s-.21.063-.294.12a.59.59 0 0 0-.198.23.845.845 0 0 0-.074.378c0 .145.023.267.07.367s.112.182.196.245a.83.83 0 0 0 .294.137c.112.027.233.042.364.042h.356v-1.52a1.798 1.798 0 0 0-.356-.034z"/></g></g></svg>